<mxfile host="app.diagrams.net" modified="2023-11-30T06:06:56.319Z" agent="Mozilla/5.0 (Windows NT 10.0; Win64; x64) AppleWebKit/537.36 (KHTML, like Gecko) Chrome/118.0.0.0 Whale/3.23.214.10 Safari/537.36" etag="VYb_uwFlurLy9U-t2Yku" version="22.1.5" type="github">
  <diagram name="페이지-1" id="yjgecmYh6PU_Y6vNmz87">
    <mxGraphModel dx="2656" dy="805" grid="1" gridSize="10" guides="1" tooltips="1" connect="1" arrows="1" fold="1" page="1" pageScale="1" pageWidth="1169" pageHeight="827" math="0" shadow="0">
      <root>
        <mxCell id="0" />
        <mxCell id="1" parent="0" />
        <mxCell id="d-gHiXN0EIWmtfIMJueE-1" value="" style="shape=image;verticalLabelPosition=bottom;labelBackgroundColor=default;verticalAlign=top;aspect=fixed;imageAspect=0;image=data:image/png,iVBORw0KGgoAAAANSUhEUgAABJAAAALlCAMAAACsMexTAAAAAXNSR0IArs4c6QAAAARnQU1BAACxjwv8YQUAAAAGUExURQAAAKqqqhNjf+wAAAABdFJOUwBA5thmAAAACXBIWXMAABcRAAAXEQHKJvM/AAAJJ0lEQVR4Xu3UMREAMAgAMfBvulxV/JCIyCxAhJCAjAtpAAKEBGQICcgQEpAhJCBDSECGkIAMIQEZQgIyhARkCAnIEBKQISQgQ0hAhpCADCEBGUICMoQEZAgJyBASkCEkIENIQIaQgAwhARlCAjKEBGQICcgQEpAhJCBDSECGkIAMIQEZQgIyhARkCAnIEBKQISQgQ0hAhpCADCEBGUICMoQEZAgJyBASkCEkIENIQIaQgAwhARlCAjKEBGQICcgQEpAhJCBDSECGkIAMIQEZQgIyhARkCAnIEBKQISQgQ0hAhpCADCEBGUICMoQEZAgJyBASkCEkIENIQIaQgAwhARlCAjKEBGQICcgQEpAhJCBDSECGkIAMIQEZQgIyhARkCAnIEBKQISQgQ0hAhpCADCEBGUICMoQEZAgJyBASkCEkIENIQIaQgAwhARlCAjKEBGQICcgQEpAhJCBDSECGkIAMIQEZQgIyhARkCAnIEBKQISQgQ0hAhpCADCEBGUICMoQEZAgJyBASkCEkIENIQIaQgAwhARlCAjKEBGQICcgQEpAhJCBDSECGkIAMIQEZQgIyhARkCAnIEBKQISQgQ0hAhpCADCEBGUICMoQEZAgJyBASkCEkIENIQIaQgAwhARlCAjKEBGQICcgQEpAhJCBDSECGkIAMIQEZQgIyhARkCAnIEBKQISQgQ0hAhpCADCEBGUICMoQEZAgJyBASkCEkIENIQIaQgAwhARlCAjKEBGQICcgQEpAhJCBDSECGkIAMIQEZQgIyhARkCAnIEBKQISQgQ0hAhpCADCEBGUICMoQEZAgJyBASkCEkIENIQIaQgAwhARlCAjKEBGQICcgQEpAhJCBDSECGkIAMIQEZQgIyhARkCAnIEBKQISQgQ0hAhpCADCEBGUICMoQEZAgJyBASkCEkIENIQIaQgAwhARlCAjKEBGQICcgQEpAhJCBDSECGkIAMIQEZQgIyhARkCAnIEBKQISQgQ0hAhpCADCEBGUICMoQEZAgJyBASkCEkIENIQIaQgAwhARlCAjKEBGQICcgQEpAhJCBDSECGkIAMIQEZQgIyhARkCAnIEBKQISQgQ0hAhpCADCEBGUICMoQEZAgJyBASkCEkIENIQIaQgAwhARlCAjKEBGQICcgQEpAhJCBDSECGkIAMIQEZQgIyhARkCAnIEBKQISQgQ0hAhpCADCEBGUICMoQEZAgJyBASkCEkIENIQIaQgAwhARlCAjKEBGQICcgQEpAhJCBDSECGkIAMIQEZQgIyhARkCAnIEBKQISQgQ0hAhpCADCEBGUICMoQEZAgJyBASkCEkIENIQIaQgAwhARlCAjKEBGQICcgQEpAhJCBDSECGkIAMIQEZQgIyhARkCAnIEBKQISQgQ0hAhpCADCEBGUICMoQEZAgJyBASkCEkIENIQIaQgAwhARlCAjKEBGQICcgQEpAhJCBDSECGkIAMIQEZQgIyhARkCAnIEBKQISQgQ0hAhpCADCEBGUICMoQEZAgJyBASkCEkIENIQIaQgAwhARlCAjKEBGQICcgQEpAhJCBDSECGkIAMIQEZQgIyhARkCAnIEBKQISQgQ0hAhpCADCEBGUICMoQEZAgJyBASkCEkIENIQIaQgAwhARlCAjKEBGQICcgQEpAhJCBDSECGkIAMIQEZQgIyhARkCAnIEBKQISQgQ0hAhpCADCEBGUICMoQEZAgJyBASkCEkIENIQIaQgAwhARlCAjKEBGQICcgQEpAhJCBDSECGkIAMIQEZQgIyhARkCAnIEBKQISQgQ0hAhpCADCEBGUICMoQEZAgJyBASkCEkIENIQIaQgAwhARlCAjKEBGQICcgQEpAhJCBDSECGkIAMIQEZQgIyhARkCAnIEBKQISQgQ0hAhpCADCEBGUICMoQEZAgJyBASkCEkIENIQIaQgAwhARlCAjKEBGQICcgQEpAhJCBDSECGkIAMIQEZQgIyhARkCAnIEBKQISQgQ0hAhpCADCEBGUICMoQEZAgJyBASkCEkIENIQIaQgAwhARlCAjKEBGQICcgQEpAhJCBDSECGkIAMIQEZQgIyhARkCAnIEBKQISQgQ0hAhpCADCEBGUICMoQEZAgJyBASkCEkIENIQIaQgAwhARlCAjKEBGQICcgQEpAhJCBDSECGkIAMIQEZQgIyhARkCAnIEBKQISQgQ0hAhpCADCEBGUICMoQEZAgJyBASkCEkIENIQIaQgAwhARlCAjKEBGQICcgQEpAhJCBDSECGkIAMIQEZQgIyhARkCAnIEBKQISQgQ0hAhpCADCEBGUICMoQEZAgJyBASkCEkIENIQIaQgAwhARlCAjKEBGQICcgQEpAhJCBDSECGkIAMIQEZQgIyhARkCAnIEBKQISQgQ0hAhpCADCEBGUICMoQEZAgJyBASkCEkIENIQIaQgAwhARlCAjKEBGQICcgQEpAhJCBDSECGkIAMIQEZQgIyhARkCAnIEBKQISQgQ0hAhpCADCEBGUICMoQEZAgJyBASkCEkIENIQIaQgAwhARlCAjKEBGQICcgQEpAhJCBDSECGkIAMIQEZQgIyhARkCAnIEBKQISQgQ0hAhpCADCEBGUICMoQEZAgJyBASkCEkIENIQIaQgAwhARlCAjKEBGQICcgQEpAhJCBDSECGkIAMIQEZQgIyhARkCAnIEBKQISQgQ0hAhpCADCEBGUICMoQEZAgJyBASkCEkIENIQIaQgAwhARlCAjKEBGQICcgQEpAhJCBDSECGkIAMIQEZQgIyhARkCAnIEBKQISQgQ0hAhpCADCEBGUICMoQEZAgJyBASkCEkIENIQIaQgAwhARlCAjKEBGQICcgQEpAhJCBDSECGkIAMIQEZQgIyhARkCAnIEBKQISQgQ0hAhpCADCEBGUICMoQEZAgJyBASkCEkIENIQIaQgAwhARlCAjKEBGQICcgQEpAhJCBDSECGkIAMIQEZQgIyhARkCAnIEBKQISQgQ0hAhpCADCEBGUICMoQEZAgJyBASkCEkIENIQIaQgAwhARlCAjKEBGQICcgQEpAhJCBDSECGkIAMIQEZQgIyhARkCAnIEBKQISQgQ0hAhpCADCEBGUICMn5IAA1CAiJ2H9OgHcW+ew43AAAAAElFTkSuQmCC;" parent="1" vertex="1">
          <mxGeometry x="40" y="80" width="1197.95" height="760" as="geometry" />
        </mxCell>
        <mxCell id="d-gHiXN0EIWmtfIMJueE-3" value="" style="shape=image;verticalLabelPosition=bottom;labelBackgroundColor=default;verticalAlign=top;imageAspect=0;image=data:image/png,iVBORw0KGgoAAAANSUhEUgAABFUAAAKpCAMAAABKPeOhAAAAAXNSR0IArs4c6QAAAARnQU1BAACxjwv8YQUAAAAGUExURQAAAKqqqhNjf+wAAAABdFJOUwBA5thmAAAACXBIWXMAABcRAAAXEQHKJvM/AAAJEUlEQVR4Xu3UIQ4DQRADwd3/fzq+U3gCGlZJI5PBfc65L2utTVZVrLXt7hYWgIaqAC1VAVqqAuRUBWipChCSFKClKkBrVREWIKQqQEtVgJaqADlVAVqqAoQkBWipCtBaVYQFCKkK0FIVoKUqQE5VgJaqACFJAVqqArRWFWEBQqoCtFQFaKkKkFMVoKUqQEhSgJaqAK1VRViAkKoALVUBWqoC5FQFaKkKEJIUoKUqQGtVERYgpCpAS1WAlqoAOVUBWqoChCQFaKkK0FpVhAUIqQrQUhWgpSpATlWAlqoAIUkBWqoCtFYVYQFCqgK0VAVoqQqQUxWgpSpASFKAlqoArVVFWICQqgAtVQFaqgLkVAVoqQoQkhSgpSpAa1URFiCkKkBLVYCWqgA5VQFaqgKEJAVoqQrQWlWEBQipCtBSFaClKkBOVYCWqgAhSQFaqgK0VhVhAUKqArRUBWipCpBTFaClKkBIUoCWqgCtVUVYgJCqAC1VAVqqAuRUBWipChCSFKClKkBrVREWIKQqQEtVgJaqADlVAVqqAoQkBWipCtBaVYQFCKkK0FIVoKUqQE5VgJaqACFJAVqqArRWFWEBQqoCtFQFaKkKkFMVoKUqQEhSgJaqAK1VRViAkKoALVUBWqoC5FQFaKkKEJIUoKUqQGtVERYgpCpAS1WAlqoAOVUBWqoChCQFaKkK0FpVhAUIqQrQUhWgpSpATlWAlqoAIUkBWqoCtFYVYQFCqgK0VAVoqQqQUxWgpSpASFKAlqoArVVFWICQqgAtVQFaqgLkVAVoqQoQkhSgpSpAa1URFiCkKkBLVYCWqgA5VQFaqgKEJAVoqQrQWlWEBQipCtBSFaClKkBOVYCWqgAhSQFaqgK0VhVhAUKqArRUBWipCpBTFaClKkBIUoCWqgCtVUVYgJCqAC1VAVqqAuRUBWipChCSFKClKkBrVREWIKQqQEtVgJaqADlVAVqqAoQkBWipCtBaVYQFCKkK0FIVoKUqQE5VgJaqACFJAVqqArRWFWEBQqoCtFQFaKkKkFMVoKUqQEhSgJaqAK1VRViAkKoALVUBWqoC5FQFaKkKEJIUoKUqQGtVERYgpCpAS1WAlqoAOVUBWqoChCQFaKkK0FpVhAUIqQrQUhWgpSpATlWAlqoAIUkBWqoCtFYVYQFCqgK0VAVoqQqQUxWgpSpASFKAlqoArVVFWICQqgAtVQFaqgLkVAVoqQoQkhSgpSpAa1URFiCkKkBLVYCWqgA5VQFaqgKEJAVoqQrQWlWEBQipCtBSFaClKkBOVYCWqgAhSQFaqgK0VhVhAUKqArRUBWipCpBTFaClKkBIUoCWqgCtVUVYgJCqAC1VAVqqAuRUBWipChCSFKClKkBrVREWIKQqQEtVgJaqADlVAVqqAoQkBWipCtBaVYQFCKkK0FIVoKUqQE5VgJaqACFJAVqqArRWFWEBQqoCtFQFaKkKkFMVoKUqQEhSgJaqAK1VRViAkKoALVUBWqoC5FQFaKkKEJIUoKUqQGtVERYgpCpAS1WAlqoAOVUBWqoChCQFaKkK0FpVhAUIqQrQUhWgpSpATlWAlqoAIUkBWqoCtFYVYQFCqgK0VAVoqQqQUxWgpSpASFKAlqoArVVFWICQqgAtVQFaqgLkVAVoqQoQkhSgpSpAa1URFiCkKkBLVYCWqgA5VQFaqgKEJAVoqQrQWlWEBQipCtBSFaClKkBOVYCWqgAhSQFaqgK0VhVhAUKqArRUBWipCpBTFaClKkBIUoCWqgCtVUVYgJCqAC1VAVqqAuRUBWipChCSFKClKkBrVREWIKQqQEtVgJaqADlVAVqqAoQkBWipCtBaVYQFCKkK0FIVoKUqQE5VgJaqACFJAVqqArRWFWEBQqoCtFQFaKkKkFMVoKUqQEhSgJaqAK1VRViAkKoALVUBWqoC5FQFaKkKEJIUoKUqQGtVERYgpCpAS1WAlqoAOVUBWqoChCQFaKkK0FpVhAUIqQrQUhWgpSpATlWAlqoAIUkBWqoCtFYVYQFCqgK0VAVoqQqQUxWgpSpASFKAlqoArVVFWICQqgAtVQFaqgLkVAVoqQoQkhSgpSpAa1URFiCkKkBLVYCWqgA5VQFaqgKEJAVoqQrQWlWEBQipCtBSFaClKkBOVYCWqgAhSQFaqgK0VhVhAUKqArRUBWipCpBTFaClKkBIUoCWqgCtVUVYgJCqAC1VAVqqAuRUBWipChCSFKClKkBrVREWIKQqQEtVgJaqADlVAVqqAoQkBWipCtBaVYQFCKkK0FIVoKUqQE5VgJaqACFJAVqqArRWFWEBQqoCtFQFaKkKkFMVoKUqQEhSgJaqAK1VRViAkKoALVUBWqoC5FQFaKkKEJIUoKUqQGtVERYgpCpAS1WAlqoAOVUBWqoChCQFaKkK0FpVhAUIqQrQUhWgpSpATlWAlqoAIUkBWqoCtFYVYQFCqgK0VAVoqQqQUxWgpSpASFKAlqoArVVFWICQqgAtVQFaqgLkVAVoqQoQkhSgpSpAa1URFiCkKkBLVYCWqgA5VQFaqgKEJAVoqQrQWlWEBQipCtBSFaClKkBOVYCWqgAhSQFaqgK0VhVhAUKqArRUBWipCpBTFaClKkBIUoCWqgCtVUVYgJCqAC1VAVqqAuRUBWipChCSFKClKkBrVREWIKQqQEtVgJaqADlVAVqqAoQkBWipCtBaVYQFCKkK0FIVoKUqQE5VgJaqACFJAVqqArRWFWEBQqoCtFQFaKkKkFMVoKUqQEhSgJaqAK1VRViAkKoALVUBWqoC5FQFaKkKEJIUoKUqQGtVERYgpCpAS1WAlqoAOVUBWqoChCQFaKkK0FpVhAUIqQrQUhWgpSpATlWAlqoAIUkBWqoCtFYVYQFCqgK0VAVoqQqQUxWgpSpASFKAlqoArVVFWICQqgAtVQFaqgLkVAVoqQoQkhSgpSpAa1URFiCkKkBLVYCWqgA5VQFaqgKEJAVoqQrQWlWEBQipCtBSFaClKkBOVYCWqgAhSQFaqgK0VhVhAUKqArRUBWipCpBTFaClKkBIUoCWqgCtVUVYgJCqAC1VAVqqAuRUBWjdx3estTba/76stfbX3vsB8LsU8LvnwE0AAAAASUVORK5CYII=;" parent="1" vertex="1">
          <mxGeometry x="80" y="119.5" width="1120" height="680.5" as="geometry" />
        </mxCell>
        <mxCell id="d-gHiXN0EIWmtfIMJueE-2" value="" style="shape=image;verticalLabelPosition=bottom;labelBackgroundColor=default;verticalAlign=top;aspect=fixed;imageAspect=0;image=data:image/png,iVBORw0KGgoAAAANSUhEUgAAAKAAAAAtCAMAAAAeP5AZAAAAAXNSR0IArs4c6QAAAARnQU1BAACxjwv8YQUAAAJJUExURQAAAABAvyBA3zNN5jFV2y5V4DRa4zNZ5jRa5TRb5TNb5TRc5TRa5jRb5TRc5TRc5TRc5TRb5TRb5TRc5TVb5TRc5jRb5QBR5AFR5AFS5ANT5ANT5QRT5ARU5ARU5QVU5AVU5QVV5QZV5AZV5QdV5QdW5QhW5QhX5QlW5QlX5QpX5QpY5QtY5QtY5gtZ5QtZ5gxZ5QxZ5g1Z5Q1a5Q1a5g5a5g5b5Q5b5g9b5hBb5hBc5hFc5hFd5hJd5hNd5hNe5hRf5hVf5hZf5hZg5hdh5xli5xpj5xtj5x1k5x9m5yNp6CVq6CZq6Cdr6Cpt6Cxu6C1v6S9x6TJz6TJ06jN06jR16TVc5jZ26jh36jp46jp56jx66j176kB860R/60WA60eB60eB7EuE7EyF7E6G60+H7FCI7FOJ7VaL7VaM7VeM7ViM7VqO7VqP7lyQ7V6R7V+S7meX7miY722b73Wh8Hqj8Hyl8X2l8X+n8YCp8YGp8YKp8oOq8omu8oqv8o2x8o+y85G085e49Jy79J289Z689J699J+99aG+9aK/9aPA9qbC9arF9q3H9q7H9q/I97DJ9rDJ97PL97jP97nP97rP+LvQ+LzR+L3S+MDU+MHV+cXX+MfZ+cna+cra+cra+s7d+dPh+tTh+tXi+tfj+tfk+9nl+tnl+9rm+9zn+93o+9/p++Ps/OTs/OTt/Obu/Onw/Onw/ezy/e3y/fD1/fb5/vf5/vf6/vr7/vv8/vv8//z8//z9/vz9//39//3+//7+//7//////wEAZv4AAAAXdFJOUwAECAoVITY8WGJtgI2mr7LFzdfh7vT5BzvbDAAAAAlwSFlzAAAXEQAAFxEByibzPwAAA7VJREFUWEftmOdbE0EQh5NoBCSCmljQqNEUIaBSRBPCRbFhQcV2YgV7w94rNuyKXewK9t47iPeXuTM7dzmSXETxeS4f8n7a3d+w9zLH7YUYhD9j0BWSiAVV6gRJxIIqdYIkZAJFfp+/KEAzDlXqBElwCpxZ+SP9vvws53BaAahSJ0gC8Pcbt2TvhZsNd+t2VY21+2k1bgSDOXnrbkgy1zcOyaQgXgQ9E042kR3QcrzMRQlV6gRJBAeX1ZOazP0KMqRKneAOQu7oq+T17vlbGj2cNQwzqtQJVBACnkPo1HRufcWMuUtrXuFstQdDqtQJVBAGLfoIRm825fRxeT39HeV1kvR9W0ERhlSpE6jgzz0Ffh+WZ/hwHnDl137Z6S7EyX8TTBKTaaSB2ZZKIxWokDX9PQhuz+AtgzNn4poi8osQNNvENByk9OwEl+W7psDlW0eERWSwsB2C7mrwe1CahzMgWOiUZaMJ8stHFVRFiNnWrYPBYLImt0Ow2H0QBGtcrd/BMlSpYLZ1wYtGFVRHgMmKc+DfBQPu0yBY7UCfCKhSge2DNlEF1ZGyzCFBuOM9OrIBr+GrJqsopmkLui6BYFXbBU1WuERUQVXEMKajC4Iq2FFjOsQqQVxl5pqC15hfS2XbBblWVEFVxFDdYa5iwcBkZc+SSpCvWjQF3Wegg6v6o08EVKkAFtgDEpQhwVDECBc0pvO5hTU2JEir8NMRgEHAfRgEdzvb+pCwfcy2NFkwrIOhiBEuiK1jQMtCgrSqKSi4t4DgnVHyyceOGZ/DF6QxVSrwfSxisoagEjHC/wa1BGN3UMic84kJ/tjcS25hMG9M9fgcMqRKBb4P27SzhqAcAfyvC1Gp/OUtFgqFy9DCl/N789M54HXu/3Y04OWGVKlA+6SIXTUE5QiA+02AivohwbkxPbSq+ZAIgn1tMxg+W+bp68nOcgyYfOSXJJ0oHYEhVSqQBdtaS5AiJEmE7pis8HhjBZvyG4/dZGcLrjJhS3fNDgq+wvMgKH2uXTl72szKPU9wts9VDCFVKsh3IklTkCIOnMGqdzGTZ2cyJuzFKKaabbCKQ/gtIkA/9nFhaiM6SdLrxy++8tHTedmYUaVOoAJj4MJHXEuhcQEd3FSpE9yB4Sy/QmbIz2NTnJRQpU6QBMNTsvUe2UnN9Rty4u3fTnbY2CetOHDxVsPtszsWl9iVj4PxIygIQ53eAh9+9RF6p8SVIDui4/vLo+hQpU6QRCyoUidIIhZUmSBBggQJEkRgMPwG3ibc/7Lw2/kAAAAASUVORK5CYII=;" parent="1" vertex="1">
          <mxGeometry x="40" y="80" width="160" height="45" as="geometry" />
        </mxCell>
        <mxCell id="d-gHiXN0EIWmtfIMJueE-4" value="" style="shape=image;verticalLabelPosition=bottom;labelBackgroundColor=default;verticalAlign=top;aspect=fixed;imageAspect=0;image=data:image/png,iVBORw0KGgoAAAANSUhEUgAAAGQAAAAuCAMAAADp/0xsAAAAAXNSR0IArs4c6QAAAARnQU1BAACxjwv8YQUAAAHjUExURQAAAECAv0Cfv02Zs1Wewl2bwVqhwlmdv12fwlufwVyfwVyhwlyfw1ygwlygw1ygwl2hw1yhw1yhwlyhw06YvVCZvlGZvlOav1Obv1Sbv1Scv1Wbv1Wcv1WcwFacwFadwFedwFedwVidwViewFiewVmewVqewVqfwVqfwlufwlyfwlygwl2gwl2gw12hw16hw1+hw1+iw2Ciw2CixGKjxGOkxGemxmmnx2upyGypyG2pyHCryXCrynCsynGsynSty3evzHevzXiwzXixzXqxzXuyzX6zz3+10IC0z4C10IG1z4K20IS30YW40Ya30Ya40oe50oi50om504m604u704u71I281JK/1pK/15PA15rE2pvE2pvF2ZzF2qHI3KXK3afM3qjM3qrN36vO36zO4LHR4rLS4rTT47XT47bU47jV5bnW5LrW5brX5b3Y57/Z57/a58Xd6cXd6sXe6sbe6czh7M3i7c/j7dLl7tPl7tTl79Tm79Xm8NXn79jp8Nnp8drq8t3r8uDt8+Hu9OLu9OXw9efx9ujy9uny9+vz9+30+O71+O/1+fD2+fH3+vL3+vP4+/T5+/X5+/f5/Pf6/Pj7/Pj7/fn7/Pn8/Pr8/fr8/vv8/vv9/fz9/v3+/v7//////+91uosAAAAUdFJOUwAECAoVITY8WGKAjZivss3h7vT53zIKDQAAAAlwSFlzAAAXEQAAFxEByibzPwAAAtlJREFUWEftlWdb01AYhkO1IlSxVcRWaUhrUUNtIoJ7oeJExQXuvdG6B+4JLhy4UcH3p3rGY0htOFxex4+9P0BO81z307wnSQ13dAxtIFKBpAYQqUBSA4hUIKkBRCqQ1AAiFUhqABFwMslEMuNgBZDUACJJ2lqxtaN9pZXGWoKkBhBxcmbLpV4ien55teW/GCQ1gIiRs/b0sQrO645aXwuSGkDEMHd/RQdR/3YTnzKQ1AAi161f1IMGTs/CRA4n/mfJjMPwS040WymcQVIDiFx73i3oJUPPzq9NZsUpJDUQGteZNdV+Ab3H2wMZ0YKkR4UzXh6UO5VGOOYwJo+Vn0T4Amd9iA7bXH7owoAwXzl4XfznDO4X24+kRzg2UR5Epoxji0rDKKsS5nBs0hjDCEWLWrhlTsORV/CebV634ByOid6v4Y8lkh5lVfKLh6LMKUrkofgTCJPMnX0GUvq0+DSdWvIFK6KLKXaPITkM5sWnhRLR642xCFZSuw9Kou9Nj+lR0w+siHqX1geUYF58Wr6SPxcYgOs2zL8PJX0+am/q3GAf+4Y1DW5ku4LkMGVVXC+nI0t47cjTYiWp1o9Q0oNk1ozXZZMPsSbalgwokYMqx2azw1CUtSpLEu0QEt1J8FeWM/0e1jS0OehKpC8ipiNvYa5Xl2yBkej2NFESv4s1vVw2M6iEb0coKjZGjouj3JP0qjdQ0pPG6pqamurGp1jT1UzQ3SXmJaflK5E3QiDsFV9/DUr61d2Vz+e7urGkgba6gOeEwUYzQX5vX4n3kBbBJNb6D5D+zXGLv4qRLKDCcaTRV8KuT+7N8CeASVxzbz+sBfw8adv8NJIFhGOYjb+E+Ud+d+XMthvvYPbou7kjJToCS/4NoXHNbOuuzgJ2ttgmfraQ1EB63KyViBeQSMkfEwaSGkCkAkkNIFKBpAYQqUBSA4hUIKkBRCqQ1AAiFUiWKFGixOgYxm+57I+p9uYsrgAAAABJRU5ErkJggg==;" parent="1" vertex="1">
          <mxGeometry x="80" y="119.5" width="100" height="46" as="geometry" />
        </mxCell>
        <mxCell id="d-gHiXN0EIWmtfIMJueE-5" value="Batch Svr" style="shape=image;verticalLabelPosition=bottom;labelBackgroundColor=default;verticalAlign=top;imageAspect=0;image=data:image/png,iVBORw0KGgoAAAANSUhEUgAAAGMAAABkCAMAAACl4H4fAAAAAXNSR0IArs4c6QAAAARnQU1BAACxjwv8YQUAAAIKUExURQAAAEC//zOZzDPMzDPM/yuq1SCv3yiv3x+q4B+y6Cat4SGv4yCu4yCw4yCv4SCt4SCv4SCv5CK06yCw5CKy6CKz6SGx5yGw4yGx5CCw4iGv4iGv4iCv5CCv4yGx5SGx5SGx5iGy5iGy5yGz5iKz5yGv4yGw5CCv4yCw4yCw4yCw5ACj3wOk4Amn4A6o4Q6p4RCp4RGp4RGq4RSr4har4his4hms4hmt4hqt4hut4huu4xyt4hyu4x2t4h2t4x2u4h2u4x6u4x+u4x+v4yCv4yCv5CCw5CCx5SCx5iCy5iG06SG06iG16yG26yG27CG27SG37SK37SSw5CWx5Cax5Cmy5Cqy5Cqz5Cuz5Cyz5Cyz5Sy05C205S+05TC05Ta25ja35je35je45ji45jm45kC65kC750G65kK75ka96FLB6VPB6VbC6VrE6lvE6lvE61zE6l7F6mLG62PG62PH62TH62TI62bI7GfJ7HTN7YfT74jU74nU75TY8pXY8pXZ8pbZ8pja8prb8p3c857c863h9K3i9K3i9a/h9K/i9K/i9bDi9bHj9brm9rvn9r7n97/o98Do987t+M7u+M/t+M/u+dDu+NDu+dLv+dnx+trx+tvx+uf3++n3/Oz5/e35/e75/e/5/fL6/fP6/fP7/fT7/vX7/vf8/vj8/vj9/vn8/vn9/vr9/v///2NImxMAAAArdFJOUwAEBQUFBiAgISEibW5ub3BwcHBxcXJzi4yOwsPFxuHi4uLi4+Ps7O7u/v5oqSCPAAAACXBIWXMAABcRAAAXEQHKJvM/AAAC0UlEQVRoQ+2a+VPTQBSAV0TwtvVEsOLFpYj2sLEatbGRQ0I5quKN4oGC4IVURQW8FTwB7wNRLsH/0cR5pW7SIWG7m2FKvp+SvDfvm07SzWb3IYWUxatyNorUyXEsnf2vPkJJC9aWFxXCdZoUFpWvsyUrihkrJAku0kcqS0uSHfOkUrjAglJpoXwvVgfhlA3BzBRkq2RxK6Lsq7Sh9BI4YUVJOspi+zPkpysL5cEhO/IQHLDEchgnoR0BgZQAVMCI4RC2x4MAVf5D6/D7Gh91vyej+3GTzw91omgc/K7bA3/IGWjdw0OlcdSOAHdtGNLJ+N3MqW+K2sFXvYJkUt6EdkKtCGqH7/AXyCXl6xEf1IqgcRztg1xSfhzXd3yHXFL6LAfO8/sPcTpeQoSeozZ/C86mSxCh57jogfwIrmaIWA41lkPGoON8wTaczVchQs/ReOIMTvUtiNBzjA4N4wyNQYSeYwKmiiMx3lE7Dn6EXFI+V+s5BOEe5JLSvlc9VVQ7RK6mB5LJeHeag0rjaByit67rJ+RPnl9dF7xQJ4rWIXpCDeGbZIQbDqgHMpkYDpF3O7eS4XRrJrsysRy0sRzGSWQH73Y5yXAZfXY9ofqWMBkt9SFD/0Hvuc5+GBkmT39nnYGxhKt5C/lk9JzSHRMF4S4kk9KmO7bH/476dEj/XfsNckmZPnOGKeQYGxnFGaE/F7188izOMfpzajO+DaxvNRnLARF6jtr8AhwGazJPOh7gtL+ACD3HBEwnhwnvKBPWkPmq15BLiv5aeIC7Huea/g3dNX2R3906COkkDN7x6+5NKHssTU97P5DR++yKkT2WePeKtIpYDjP2vKhjOYyTMA4zeg2ymfdMZKOMYjhmRXEGsjPvYbGj1EzGvThrUhGaz7SnaL+0SOmNSitj2BsVXDlTacBKtq+vYNTjVbFhySxFITNnmSOXQa9armP5XIQQ+guU8GZcBNE4FwAAAABJRU5ErkJggg==;aspect=fixed;" parent="1" vertex="1">
          <mxGeometry x="400" y="240" width="40" height="40" as="geometry" />
        </mxCell>
        <mxCell id="d-gHiXN0EIWmtfIMJueE-6" value="Monitro-&#xa;Kaist01" style="shape=image;verticalLabelPosition=bottom;labelBackgroundColor=default;verticalAlign=top;imageAspect=0;image=data:image/png,iVBORw0KGgoAAAANSUhEUgAAAGMAAABkCAMAAACl4H4fAAAAAXNSR0IArs4c6QAAAARnQU1BAACxjwv8YQUAAAIKUExURQAAAEC//zOZzDPMzDPM/yuq1SCv3yiv3x+q4B+y6Cat4SGv4yCu4yCw4yCv4SCt4SCv4SCv5CK06yCw5CKy6CKz6SGx5yGw4yGx5CCw4iGv4iGv4iCv5CCv4yGx5SGx5SGx5iGy5iGy5yGz5iKz5yGv4yGw5CCv4yCw4yCw4yCw5ACj3wOk4Amn4A6o4Q6p4RCp4RGp4RGq4RSr4har4his4hms4hmt4hqt4hut4huu4xyt4hyu4x2t4h2t4x2u4h2u4x6u4x+u4x+v4yCv4yCv5CCw5CCx5SCx5iCy5iG06SG06iG16yG26yG27CG27SG37SK37SSw5CWx5Cax5Cmy5Cqy5Cqz5Cuz5Cyz5Cyz5Sy05C205S+05TC05Ta25ja35je35je45ji45jm45kC65kC750G65kK75ka96FLB6VPB6VbC6VrE6lvE6lvE61zE6l7F6mLG62PG62PH62TH62TI62bI7GfJ7HTN7YfT74jU74nU75TY8pXY8pXZ8pbZ8pja8prb8p3c857c863h9K3i9K3i9a/h9K/i9K/i9bDi9bHj9brm9rvn9r7n97/o98Do987t+M7u+M/t+M/u+dDu+NDu+dLv+dnx+trx+tvx+uf3++n3/Oz5/e35/e75/e/5/fL6/fP6/fP7/fT7/vX7/vf8/vj8/vj9/vn8/vn9/vr9/v///2NImxMAAAArdFJOUwAEBQUFBiAgISEibW5ub3BwcHBxcXJzi4yOwsPFxuHi4uLi4+Ps7O7u/v5oqSCPAAAACXBIWXMAABcRAAAXEQHKJvM/AAAC0UlEQVRoQ+2a+VPTQBSAV0TwtvVEsOLFpYj2sLEatbGRQ0I5quKN4oGC4IVURQW8FTwB7wNRLsH/0cR5pW7SIWG7m2FKvp+SvDfvm07SzWb3IYWUxatyNorUyXEsnf2vPkJJC9aWFxXCdZoUFpWvsyUrihkrJAku0kcqS0uSHfOkUrjAglJpoXwvVgfhlA3BzBRkq2RxK6Lsq7Sh9BI4YUVJOspi+zPkpysL5cEhO/IQHLDEchgnoR0BgZQAVMCI4RC2x4MAVf5D6/D7Gh91vyej+3GTzw91omgc/K7bA3/IGWjdw0OlcdSOAHdtGNLJ+N3MqW+K2sFXvYJkUt6EdkKtCGqH7/AXyCXl6xEf1IqgcRztg1xSfhzXd3yHXFL6LAfO8/sPcTpeQoSeozZ/C86mSxCh57jogfwIrmaIWA41lkPGoON8wTaczVchQs/ReOIMTvUtiNBzjA4N4wyNQYSeYwKmiiMx3lE7Dn6EXFI+V+s5BOEe5JLSvlc9VVQ7RK6mB5LJeHeag0rjaByit67rJ+RPnl9dF7xQJ4rWIXpCDeGbZIQbDqgHMpkYDpF3O7eS4XRrJrsysRy0sRzGSWQH73Y5yXAZfXY9ofqWMBkt9SFD/0Hvuc5+GBkmT39nnYGxhKt5C/lk9JzSHRMF4S4kk9KmO7bH/476dEj/XfsNckmZPnOGKeQYGxnFGaE/F7188izOMfpzajO+DaxvNRnLARF6jtr8AhwGazJPOh7gtL+ACD3HBEwnhwnvKBPWkPmq15BLiv5aeIC7Huea/g3dNX2R3906COkkDN7x6+5NKHssTU97P5DR++yKkT2WePeKtIpYDjP2vKhjOYyTMA4zeg2ymfdMZKOMYjhmRXEGsjPvYbGj1EzGvThrUhGaz7SnaL+0SOmNSitj2BsVXDlTacBKtq+vYNTjVbFhySxFITNnmSOXQa9armP5XIQQ+guU8GZcBNE4FwAAAABJRU5ErkJggg==;aspect=fixed;" parent="1" vertex="1">
          <mxGeometry x="640" y="240" width="40" height="40" as="geometry" />
        </mxCell>
        <mxCell id="d-gHiXN0EIWmtfIMJueE-7" value="Kaist&#xa;Acronis01" style="shape=image;verticalLabelPosition=bottom;labelBackgroundColor=default;verticalAlign=top;imageAspect=0;image=data:image/png,iVBORw0KGgoAAAANSUhEUgAAAGMAAABkCAMAAACl4H4fAAAAAXNSR0IArs4c6QAAAARnQU1BAACxjwv8YQUAAAIKUExURQAAAEC//zOZzDPMzDPM/yuq1SCv3yiv3x+q4B+y6Cat4SGv4yCu4yCw4yCv4SCt4SCv4SCv5CK06yCw5CKy6CKz6SGx5yGw4yGx5CCw4iGv4iGv4iCv5CCv4yGx5SGx5SGx5iGy5iGy5yGz5iKz5yGv4yGw5CCv4yCw4yCw4yCw5ACj3wOk4Amn4A6o4Q6p4RCp4RGp4RGq4RSr4har4his4hms4hmt4hqt4hut4huu4xyt4hyu4x2t4h2t4x2u4h2u4x6u4x+u4x+v4yCv4yCv5CCw5CCx5SCx5iCy5iG06SG06iG16yG26yG27CG27SG37SK37SSw5CWx5Cax5Cmy5Cqy5Cqz5Cuz5Cyz5Cyz5Sy05C205S+05TC05Ta25ja35je35je45ji45jm45kC65kC750G65kK75ka96FLB6VPB6VbC6VrE6lvE6lvE61zE6l7F6mLG62PG62PH62TH62TI62bI7GfJ7HTN7YfT74jU74nU75TY8pXY8pXZ8pbZ8pja8prb8p3c857c863h9K3i9K3i9a/h9K/i9K/i9bDi9bHj9brm9rvn9r7n97/o98Do987t+M7u+M/t+M/u+dDu+NDu+dLv+dnx+trx+tvx+uf3++n3/Oz5/e35/e75/e/5/fL6/fP6/fP7/fT7/vX7/vf8/vj8/vj9/vn8/vn9/vr9/v///2NImxMAAAArdFJOUwAEBQUFBiAgISEibW5ub3BwcHBxcXJzi4yOwsPFxuHi4uLi4+Ps7O7u/v5oqSCPAAAACXBIWXMAABcRAAAXEQHKJvM/AAAC0UlEQVRoQ+2a+VPTQBSAV0TwtvVEsOLFpYj2sLEatbGRQ0I5quKN4oGC4IVURQW8FTwB7wNRLsH/0cR5pW7SIWG7m2FKvp+SvDfvm07SzWb3IYWUxatyNorUyXEsnf2vPkJJC9aWFxXCdZoUFpWvsyUrihkrJAku0kcqS0uSHfOkUrjAglJpoXwvVgfhlA3BzBRkq2RxK6Lsq7Sh9BI4YUVJOspi+zPkpysL5cEhO/IQHLDEchgnoR0BgZQAVMCI4RC2x4MAVf5D6/D7Gh91vyej+3GTzw91omgc/K7bA3/IGWjdw0OlcdSOAHdtGNLJ+N3MqW+K2sFXvYJkUt6EdkKtCGqH7/AXyCXl6xEf1IqgcRztg1xSfhzXd3yHXFL6LAfO8/sPcTpeQoSeozZ/C86mSxCh57jogfwIrmaIWA41lkPGoON8wTaczVchQs/ReOIMTvUtiNBzjA4N4wyNQYSeYwKmiiMx3lE7Dn6EXFI+V+s5BOEe5JLSvlc9VVQ7RK6mB5LJeHeag0rjaByit67rJ+RPnl9dF7xQJ4rWIXpCDeGbZIQbDqgHMpkYDpF3O7eS4XRrJrsysRy0sRzGSWQH73Y5yXAZfXY9ofqWMBkt9SFD/0Hvuc5+GBkmT39nnYGxhKt5C/lk9JzSHRMF4S4kk9KmO7bH/476dEj/XfsNckmZPnOGKeQYGxnFGaE/F7188izOMfpzajO+DaxvNRnLARF6jtr8AhwGazJPOh7gtL+ACD3HBEwnhwnvKBPWkPmq15BLiv5aeIC7Huea/g3dNX2R3906COkkDN7x6+5NKHssTU97P5DR++yKkT2WePeKtIpYDjP2vKhjOYyTMA4zeg2ymfdMZKOMYjhmRXEGsjPvYbGj1EzGvThrUhGaz7SnaL+0SOmNSitj2BsVXDlTacBKtq+vYNTjVbFhySxFITNnmSOXQa9armP5XIQQ+guU8GZcBNE4FwAAAABJRU5ErkJggg==;aspect=fixed;" parent="1" vertex="1">
          <mxGeometry x="760" y="240" width="40" height="40" as="geometry" />
        </mxCell>
        <mxCell id="d-gHiXN0EIWmtfIMJueE-8" value="Kaits&#xa;Petra01" style="shape=image;verticalLabelPosition=bottom;labelBackgroundColor=default;verticalAlign=top;imageAspect=0;image=data:image/png,iVBORw0KGgoAAAANSUhEUgAAAGMAAABkCAMAAACl4H4fAAAAAXNSR0IArs4c6QAAAARnQU1BAACxjwv8YQUAAAIKUExURQAAAEC//zOZzDPMzDPM/yuq1SCv3yiv3x+q4B+y6Cat4SGv4yCu4yCw4yCv4SCt4SCv4SCv5CK06yCw5CKy6CKz6SGx5yGw4yGx5CCw4iGv4iGv4iCv5CCv4yGx5SGx5SGx5iGy5iGy5yGz5iKz5yGv4yGw5CCv4yCw4yCw4yCw5ACj3wOk4Amn4A6o4Q6p4RCp4RGp4RGq4RSr4har4his4hms4hmt4hqt4hut4huu4xyt4hyu4x2t4h2t4x2u4h2u4x6u4x+u4x+v4yCv4yCv5CCw5CCx5SCx5iCy5iG06SG06iG16yG26yG27CG27SG37SK37SSw5CWx5Cax5Cmy5Cqy5Cqz5Cuz5Cyz5Cyz5Sy05C205S+05TC05Ta25ja35je35je45ji45jm45kC65kC750G65kK75ka96FLB6VPB6VbC6VrE6lvE6lvE61zE6l7F6mLG62PG62PH62TH62TI62bI7GfJ7HTN7YfT74jU74nU75TY8pXY8pXZ8pbZ8pja8prb8p3c857c863h9K3i9K3i9a/h9K/i9K/i9bDi9bHj9brm9rvn9r7n97/o98Do987t+M7u+M/t+M/u+dDu+NDu+dLv+dnx+trx+tvx+uf3++n3/Oz5/e35/e75/e/5/fL6/fP6/fP7/fT7/vX7/vf8/vj8/vj9/vn8/vn9/vr9/v///2NImxMAAAArdFJOUwAEBQUFBiAgISEibW5ub3BwcHBxcXJzi4yOwsPFxuHi4uLi4+Ps7O7u/v5oqSCPAAAACXBIWXMAABcRAAAXEQHKJvM/AAAC0UlEQVRoQ+2a+VPTQBSAV0TwtvVEsOLFpYj2sLEatbGRQ0I5quKN4oGC4IVURQW8FTwB7wNRLsH/0cR5pW7SIWG7m2FKvp+SvDfvm07SzWb3IYWUxatyNorUyXEsnf2vPkJJC9aWFxXCdZoUFpWvsyUrihkrJAku0kcqS0uSHfOkUrjAglJpoXwvVgfhlA3BzBRkq2RxK6Lsq7Sh9BI4YUVJOspi+zPkpysL5cEhO/IQHLDEchgnoR0BgZQAVMCI4RC2x4MAVf5D6/D7Gh91vyej+3GTzw91omgc/K7bA3/IGWjdw0OlcdSOAHdtGNLJ+N3MqW+K2sFXvYJkUt6EdkKtCGqH7/AXyCXl6xEf1IqgcRztg1xSfhzXd3yHXFL6LAfO8/sPcTpeQoSeozZ/C86mSxCh57jogfwIrmaIWA41lkPGoON8wTaczVchQs/ReOIMTvUtiNBzjA4N4wyNQYSeYwKmiiMx3lE7Dn6EXFI+V+s5BOEe5JLSvlc9VVQ7RK6mB5LJeHeag0rjaByit67rJ+RPnl9dF7xQJ4rWIXpCDeGbZIQbDqgHMpkYDpF3O7eS4XRrJrsysRy0sRzGSWQH73Y5yXAZfXY9ofqWMBkt9SFD/0Hvuc5+GBkmT39nnYGxhKt5C/lk9JzSHRMF4S4kk9KmO7bH/476dEj/XfsNckmZPnOGKeQYGxnFGaE/F7188izOMfpzajO+DaxvNRnLARF6jtr8AhwGazJPOh7gtL+ACD3HBEwnhwnvKBPWkPmq15BLiv5aeIC7Huea/g3dNX2R3906COkkDN7x6+5NKHssTU97P5DR++yKkT2WePeKtIpYDjP2vKhjOYyTMA4zeg2ymfdMZKOMYjhmRXEGsjPvYbGj1EzGvThrUhGaz7SnaL+0SOmNSitj2BsVXDlTacBKtq+vYNTjVbFhySxFITNnmSOXQa9armP5XIQQ+guU8GZcBNE4FwAAAABJRU5ErkJggg==;aspect=fixed;" parent="1" vertex="1">
          <mxGeometry x="880" y="240" width="40" height="40" as="geometry" />
        </mxCell>
        <mxCell id="d-gHiXN0EIWmtfIMJueE-9" value="Kaist&#xa;NGS01" style="shape=image;verticalLabelPosition=bottom;labelBackgroundColor=default;verticalAlign=top;imageAspect=0;image=data:image/png,iVBORw0KGgoAAAANSUhEUgAAAGMAAABkCAMAAACl4H4fAAAAAXNSR0IArs4c6QAAAARnQU1BAACxjwv8YQUAAAIKUExURQAAAEC//zOZzDPMzDPM/yuq1SCv3yiv3x+q4B+y6Cat4SGv4yCu4yCw4yCv4SCt4SCv4SCv5CK06yCw5CKy6CKz6SGx5yGw4yGx5CCw4iGv4iGv4iCv5CCv4yGx5SGx5SGx5iGy5iGy5yGz5iKz5yGv4yGw5CCv4yCw4yCw4yCw5ACj3wOk4Amn4A6o4Q6p4RCp4RGp4RGq4RSr4har4his4hms4hmt4hqt4hut4huu4xyt4hyu4x2t4h2t4x2u4h2u4x6u4x+u4x+v4yCv4yCv5CCw5CCx5SCx5iCy5iG06SG06iG16yG26yG27CG27SG37SK37SSw5CWx5Cax5Cmy5Cqy5Cqz5Cuz5Cyz5Cyz5Sy05C205S+05TC05Ta25ja35je35je45ji45jm45kC65kC750G65kK75ka96FLB6VPB6VbC6VrE6lvE6lvE61zE6l7F6mLG62PG62PH62TH62TI62bI7GfJ7HTN7YfT74jU74nU75TY8pXY8pXZ8pbZ8pja8prb8p3c857c863h9K3i9K3i9a/h9K/i9K/i9bDi9bHj9brm9rvn9r7n97/o98Do987t+M7u+M/t+M/u+dDu+NDu+dLv+dnx+trx+tvx+uf3++n3/Oz5/e35/e75/e/5/fL6/fP6/fP7/fT7/vX7/vf8/vj8/vj9/vn8/vn9/vr9/v///2NImxMAAAArdFJOUwAEBQUFBiAgISEibW5ub3BwcHBxcXJzi4yOwsPFxuHi4uLi4+Ps7O7u/v5oqSCPAAAACXBIWXMAABcRAAAXEQHKJvM/AAAC0UlEQVRoQ+2a+VPTQBSAV0TwtvVEsOLFpYj2sLEatbGRQ0I5quKN4oGC4IVURQW8FTwB7wNRLsH/0cR5pW7SIWG7m2FKvp+SvDfvm07SzWb3IYWUxatyNorUyXEsnf2vPkJJC9aWFxXCdZoUFpWvsyUrihkrJAku0kcqS0uSHfOkUrjAglJpoXwvVgfhlA3BzBRkq2RxK6Lsq7Sh9BI4YUVJOspi+zPkpysL5cEhO/IQHLDEchgnoR0BgZQAVMCI4RC2x4MAVf5D6/D7Gh91vyej+3GTzw91omgc/K7bA3/IGWjdw0OlcdSOAHdtGNLJ+N3MqW+K2sFXvYJkUt6EdkKtCGqH7/AXyCXl6xEf1IqgcRztg1xSfhzXd3yHXFL6LAfO8/sPcTpeQoSeozZ/C86mSxCh57jogfwIrmaIWA41lkPGoON8wTaczVchQs/ReOIMTvUtiNBzjA4N4wyNQYSeYwKmiiMx3lE7Dn6EXFI+V+s5BOEe5JLSvlc9VVQ7RK6mB5LJeHeag0rjaByit67rJ+RPnl9dF7xQJ4rWIXpCDeGbZIQbDqgHMpkYDpF3O7eS4XRrJrsysRy0sRzGSWQH73Y5yXAZfXY9ofqWMBkt9SFD/0Hvuc5+GBkmT39nnYGxhKt5C/lk9JzSHRMF4S4kk9KmO7bH/476dEj/XfsNckmZPnOGKeQYGxnFGaE/F7188izOMfpzajO+DaxvNRnLARF6jtr8AhwGazJPOh7gtL+ACD3HBEwnhwnvKBPWkPmq15BLiv5aeIC7Huea/g3dNX2R3906COkkDN7x6+5NKHssTU97P5DR++yKkT2WePeKtIpYDjP2vKhjOYyTMA4zeg2ymfdMZKOMYjhmRXEGsjPvYbGj1EzGvThrUhGaz7SnaL+0SOmNSitj2BsVXDlTacBKtq+vYNTjVbFhySxFITNnmSOXQa9armP5XIQQ+guU8GZcBNE4FwAAAABJRU5ErkJggg==;aspect=fixed;" parent="1" vertex="1">
          <mxGeometry x="1000" y="240" width="40" height="40" as="geometry" />
        </mxCell>
        <mxCell id="d-gHiXN0EIWmtfIMJueE-10" value="Kaist&#xa;DB01" style="shape=image;verticalLabelPosition=bottom;labelBackgroundColor=default;verticalAlign=top;imageAspect=0;image=data:image/png,iVBORw0KGgoAAAANSUhEUgAAAGMAAABkCAMAAACl4H4fAAAAAXNSR0IArs4c6QAAAARnQU1BAACxjwv8YQUAAAIKUExURQAAAEC//zOZzDPMzDPM/yuq1SCv3yiv3x+q4B+y6Cat4SGv4yCu4yCw4yCv4SCt4SCv4SCv5CK06yCw5CKy6CKz6SGx5yGw4yGx5CCw4iGv4iGv4iCv5CCv4yGx5SGx5SGx5iGy5iGy5yGz5iKz5yGv4yGw5CCv4yCw4yCw4yCw5ACj3wOk4Amn4A6o4Q6p4RCp4RGp4RGq4RSr4har4his4hms4hmt4hqt4hut4huu4xyt4hyu4x2t4h2t4x2u4h2u4x6u4x+u4x+v4yCv4yCv5CCw5CCx5SCx5iCy5iG06SG06iG16yG26yG27CG27SG37SK37SSw5CWx5Cax5Cmy5Cqy5Cqz5Cuz5Cyz5Cyz5Sy05C205S+05TC05Ta25ja35je35je45ji45jm45kC65kC750G65kK75ka96FLB6VPB6VbC6VrE6lvE6lvE61zE6l7F6mLG62PG62PH62TH62TI62bI7GfJ7HTN7YfT74jU74nU75TY8pXY8pXZ8pbZ8pja8prb8p3c857c863h9K3i9K3i9a/h9K/i9K/i9bDi9bHj9brm9rvn9r7n97/o98Do987t+M7u+M/t+M/u+dDu+NDu+dLv+dnx+trx+tvx+uf3++n3/Oz5/e35/e75/e/5/fL6/fP6/fP7/fT7/vX7/vf8/vj8/vj9/vn8/vn9/vr9/v///2NImxMAAAArdFJOUwAEBQUFBiAgISEibW5ub3BwcHBxcXJzi4yOwsPFxuHi4uLi4+Ps7O7u/v5oqSCPAAAACXBIWXMAABcRAAAXEQHKJvM/AAAC0UlEQVRoQ+2a+VPTQBSAV0TwtvVEsOLFpYj2sLEatbGRQ0I5quKN4oGC4IVURQW8FTwB7wNRLsH/0cR5pW7SIWG7m2FKvp+SvDfvm07SzWb3IYWUxatyNorUyXEsnf2vPkJJC9aWFxXCdZoUFpWvsyUrihkrJAku0kcqS0uSHfOkUrjAglJpoXwvVgfhlA3BzBRkq2RxK6Lsq7Sh9BI4YUVJOspi+zPkpysL5cEhO/IQHLDEchgnoR0BgZQAVMCI4RC2x4MAVf5D6/D7Gh91vyej+3GTzw91omgc/K7bA3/IGWjdw0OlcdSOAHdtGNLJ+N3MqW+K2sFXvYJkUt6EdkKtCGqH7/AXyCXl6xEf1IqgcRztg1xSfhzXd3yHXFL6LAfO8/sPcTpeQoSeozZ/C86mSxCh57jogfwIrmaIWA41lkPGoON8wTaczVchQs/ReOIMTvUtiNBzjA4N4wyNQYSeYwKmiiMx3lE7Dn6EXFI+V+s5BOEe5JLSvlc9VVQ7RK6mB5LJeHeag0rjaByit67rJ+RPnl9dF7xQJ4rWIXpCDeGbZIQbDqgHMpkYDpF3O7eS4XRrJrsysRy0sRzGSWQH73Y5yXAZfXY9ofqWMBkt9SFD/0Hvuc5+GBkmT39nnYGxhKt5C/lk9JzSHRMF4S4kk9KmO7bH/476dEj/XfsNckmZPnOGKeQYGxnFGaE/F7188izOMfpzajO+DaxvNRnLARF6jtr8AhwGazJPOh7gtL+ACD3HBEwnhwnvKBPWkPmq15BLiv5aeIC7Huea/g3dNX2R3906COkkDN7x6+5NKHssTU97P5DR++yKkT2WePeKtIpYDjP2vKhjOYyTMA4zeg2ymfdMZKOMYjhmRXEGsjPvYbGj1EzGvThrUhGaz7SnaL+0SOmNSitj2BsVXDlTacBKtq+vYNTjVbFhySxFITNnmSOXQa9armP5XIQQ+guU8GZcBNE4FwAAAABJRU5ErkJggg==;aspect=fixed;" parent="1" vertex="1">
          <mxGeometry x="320" y="400" width="40" height="40" as="geometry" />
        </mxCell>
        <mxCell id="d-gHiXN0EIWmtfIMJueE-11" value="Kaist&#xa;DB02" style="shape=image;verticalLabelPosition=bottom;labelBackgroundColor=default;verticalAlign=top;imageAspect=0;image=data:image/png,iVBORw0KGgoAAAANSUhEUgAAAGMAAABkCAMAAACl4H4fAAAAAXNSR0IArs4c6QAAAARnQU1BAACxjwv8YQUAAAIKUExURQAAAEC//zOZzDPMzDPM/yuq1SCv3yiv3x+q4B+y6Cat4SGv4yCu4yCw4yCv4SCt4SCv4SCv5CK06yCw5CKy6CKz6SGx5yGw4yGx5CCw4iGv4iGv4iCv5CCv4yGx5SGx5SGx5iGy5iGy5yGz5iKz5yGv4yGw5CCv4yCw4yCw4yCw5ACj3wOk4Amn4A6o4Q6p4RCp4RGp4RGq4RSr4har4his4hms4hmt4hqt4hut4huu4xyt4hyu4x2t4h2t4x2u4h2u4x6u4x+u4x+v4yCv4yCv5CCw5CCx5SCx5iCy5iG06SG06iG16yG26yG27CG27SG37SK37SSw5CWx5Cax5Cmy5Cqy5Cqz5Cuz5Cyz5Cyz5Sy05C205S+05TC05Ta25ja35je35je45ji45jm45kC65kC750G65kK75ka96FLB6VPB6VbC6VrE6lvE6lvE61zE6l7F6mLG62PG62PH62TH62TI62bI7GfJ7HTN7YfT74jU74nU75TY8pXY8pXZ8pbZ8pja8prb8p3c857c863h9K3i9K3i9a/h9K/i9K/i9bDi9bHj9brm9rvn9r7n97/o98Do987t+M7u+M/t+M/u+dDu+NDu+dLv+dnx+trx+tvx+uf3++n3/Oz5/e35/e75/e/5/fL6/fP6/fP7/fT7/vX7/vf8/vj8/vj9/vn8/vn9/vr9/v///2NImxMAAAArdFJOUwAEBQUFBiAgISEibW5ub3BwcHBxcXJzi4yOwsPFxuHi4uLi4+Ps7O7u/v5oqSCPAAAACXBIWXMAABcRAAAXEQHKJvM/AAAC0UlEQVRoQ+2a+VPTQBSAV0TwtvVEsOLFpYj2sLEatbGRQ0I5quKN4oGC4IVURQW8FTwB7wNRLsH/0cR5pW7SIWG7m2FKvp+SvDfvm07SzWb3IYWUxatyNorUyXEsnf2vPkJJC9aWFxXCdZoUFpWvsyUrihkrJAku0kcqS0uSHfOkUrjAglJpoXwvVgfhlA3BzBRkq2RxK6Lsq7Sh9BI4YUVJOspi+zPkpysL5cEhO/IQHLDEchgnoR0BgZQAVMCI4RC2x4MAVf5D6/D7Gh91vyej+3GTzw91omgc/K7bA3/IGWjdw0OlcdSOAHdtGNLJ+N3MqW+K2sFXvYJkUt6EdkKtCGqH7/AXyCXl6xEf1IqgcRztg1xSfhzXd3yHXFL6LAfO8/sPcTpeQoSeozZ/C86mSxCh57jogfwIrmaIWA41lkPGoON8wTaczVchQs/ReOIMTvUtiNBzjA4N4wyNQYSeYwKmiiMx3lE7Dn6EXFI+V+s5BOEe5JLSvlc9VVQ7RK6mB5LJeHeag0rjaByit67rJ+RPnl9dF7xQJ4rWIXpCDeGbZIQbDqgHMpkYDpF3O7eS4XRrJrsysRy0sRzGSWQH73Y5yXAZfXY9ofqWMBkt9SFD/0Hvuc5+GBkmT39nnYGxhKt5C/lk9JzSHRMF4S4kk9KmO7bH/476dEj/XfsNckmZPnOGKeQYGxnFGaE/F7188izOMfpzajO+DaxvNRnLARF6jtr8AhwGazJPOh7gtL+ACD3HBEwnhwnvKBPWkPmq15BLiv5aeIC7Huea/g3dNX2R3906COkkDN7x6+5NKHssTU97P5DR++yKkT2WePeKtIpYDjP2vKhjOYyTMA4zeg2ymfdMZKOMYjhmRXEGsjPvYbGj1EzGvThrUhGaz7SnaL+0SOmNSitj2BsVXDlTacBKtq+vYNTjVbFhySxFITNnmSOXQa9armP5XIQQ+guU8GZcBNE4FwAAAABJRU5ErkJggg==;aspect=fixed;" parent="1" vertex="1">
          <mxGeometry x="440" y="400" width="40" height="40" as="geometry" />
        </mxCell>
        <mxCell id="d-gHiXN0EIWmtfIMJueE-12" value="Kaist&#xa;Module01" style="shape=image;verticalLabelPosition=bottom;labelBackgroundColor=default;verticalAlign=top;imageAspect=0;image=data:image/png,iVBORw0KGgoAAAANSUhEUgAAAGMAAABkCAMAAACl4H4fAAAAAXNSR0IArs4c6QAAAARnQU1BAACxjwv8YQUAAAIKUExURQAAAEC//zOZzDPMzDPM/yuq1SCv3yiv3x+q4B+y6Cat4SGv4yCu4yCw4yCv4SCt4SCv4SCv5CK06yCw5CKy6CKz6SGx5yGw4yGx5CCw4iGv4iGv4iCv5CCv4yGx5SGx5SGx5iGy5iGy5yGz5iKz5yGv4yGw5CCv4yCw4yCw4yCw5ACj3wOk4Amn4A6o4Q6p4RCp4RGp4RGq4RSr4har4his4hms4hmt4hqt4hut4huu4xyt4hyu4x2t4h2t4x2u4h2u4x6u4x+u4x+v4yCv4yCv5CCw5CCx5SCx5iCy5iG06SG06iG16yG26yG27CG27SG37SK37SSw5CWx5Cax5Cmy5Cqy5Cqz5Cuz5Cyz5Cyz5Sy05C205S+05TC05Ta25ja35je35je45ji45jm45kC65kC750G65kK75ka96FLB6VPB6VbC6VrE6lvE6lvE61zE6l7F6mLG62PG62PH62TH62TI62bI7GfJ7HTN7YfT74jU74nU75TY8pXY8pXZ8pbZ8pja8prb8p3c857c863h9K3i9K3i9a/h9K/i9K/i9bDi9bHj9brm9rvn9r7n97/o98Do987t+M7u+M/t+M/u+dDu+NDu+dLv+dnx+trx+tvx+uf3++n3/Oz5/e35/e75/e/5/fL6/fP6/fP7/fT7/vX7/vf8/vj8/vj9/vn8/vn9/vr9/v///2NImxMAAAArdFJOUwAEBQUFBiAgISEibW5ub3BwcHBxcXJzi4yOwsPFxuHi4uLi4+Ps7O7u/v5oqSCPAAAACXBIWXMAABcRAAAXEQHKJvM/AAAC0UlEQVRoQ+2a+VPTQBSAV0TwtvVEsOLFpYj2sLEatbGRQ0I5quKN4oGC4IVURQW8FTwB7wNRLsH/0cR5pW7SIWG7m2FKvp+SvDfvm07SzWb3IYWUxatyNorUyXEsnf2vPkJJC9aWFxXCdZoUFpWvsyUrihkrJAku0kcqS0uSHfOkUrjAglJpoXwvVgfhlA3BzBRkq2RxK6Lsq7Sh9BI4YUVJOspi+zPkpysL5cEhO/IQHLDEchgnoR0BgZQAVMCI4RC2x4MAVf5D6/D7Gh91vyej+3GTzw91omgc/K7bA3/IGWjdw0OlcdSOAHdtGNLJ+N3MqW+K2sFXvYJkUt6EdkKtCGqH7/AXyCXl6xEf1IqgcRztg1xSfhzXd3yHXFL6LAfO8/sPcTpeQoSeozZ/C86mSxCh57jogfwIrmaIWA41lkPGoON8wTaczVchQs/ReOIMTvUtiNBzjA4N4wyNQYSeYwKmiiMx3lE7Dn6EXFI+V+s5BOEe5JLSvlc9VVQ7RK6mB5LJeHeag0rjaByit67rJ+RPnl9dF7xQJ4rWIXpCDeGbZIQbDqgHMpkYDpF3O7eS4XRrJrsysRy0sRzGSWQH73Y5yXAZfXY9ofqWMBkt9SFD/0Hvuc5+GBkmT39nnYGxhKt5C/lk9JzSHRMF4S4kk9KmO7bH/476dEj/XfsNckmZPnOGKeQYGxnFGaE/F7188izOMfpzajO+DaxvNRnLARF6jtr8AhwGazJPOh7gtL+ACD3HBEwnhwnvKBPWkPmq15BLiv5aeIC7Huea/g3dNX2R3906COkkDN7x6+5NKHssTU97P5DR++yKkT2WePeKtIpYDjP2vKhjOYyTMA4zeg2ymfdMZKOMYjhmRXEGsjPvYbGj1EzGvThrUhGaz7SnaL+0SOmNSitj2BsVXDlTacBKtq+vYNTjVbFhySxFITNnmSOXQa9armP5XIQQ+guU8GZcBNE4FwAAAABJRU5ErkJggg==;aspect=fixed;" parent="1" vertex="1">
          <mxGeometry x="560" y="400" width="40" height="40" as="geometry" />
        </mxCell>
        <mxCell id="d-gHiXN0EIWmtfIMJueE-13" value="Kaist&#xa;Module02" style="shape=image;verticalLabelPosition=bottom;labelBackgroundColor=default;verticalAlign=top;imageAspect=0;image=data:image/png,iVBORw0KGgoAAAANSUhEUgAAAGMAAABkCAMAAACl4H4fAAAAAXNSR0IArs4c6QAAAARnQU1BAACxjwv8YQUAAAIKUExURQAAAEC//zOZzDPMzDPM/yuq1SCv3yiv3x+q4B+y6Cat4SGv4yCu4yCw4yCv4SCt4SCv4SCv5CK06yCw5CKy6CKz6SGx5yGw4yGx5CCw4iGv4iGv4iCv5CCv4yGx5SGx5SGx5iGy5iGy5yGz5iKz5yGv4yGw5CCv4yCw4yCw4yCw5ACj3wOk4Amn4A6o4Q6p4RCp4RGp4RGq4RSr4har4his4hms4hmt4hqt4hut4huu4xyt4hyu4x2t4h2t4x2u4h2u4x6u4x+u4x+v4yCv4yCv5CCw5CCx5SCx5iCy5iG06SG06iG16yG26yG27CG27SG37SK37SSw5CWx5Cax5Cmy5Cqy5Cqz5Cuz5Cyz5Cyz5Sy05C205S+05TC05Ta25ja35je35je45ji45jm45kC65kC750G65kK75ka96FLB6VPB6VbC6VrE6lvE6lvE61zE6l7F6mLG62PG62PH62TH62TI62bI7GfJ7HTN7YfT74jU74nU75TY8pXY8pXZ8pbZ8pja8prb8p3c857c863h9K3i9K3i9a/h9K/i9K/i9bDi9bHj9brm9rvn9r7n97/o98Do987t+M7u+M/t+M/u+dDu+NDu+dLv+dnx+trx+tvx+uf3++n3/Oz5/e35/e75/e/5/fL6/fP6/fP7/fT7/vX7/vf8/vj8/vj9/vn8/vn9/vr9/v///2NImxMAAAArdFJOUwAEBQUFBiAgISEibW5ub3BwcHBxcXJzi4yOwsPFxuHi4uLi4+Ps7O7u/v5oqSCPAAAACXBIWXMAABcRAAAXEQHKJvM/AAAC0UlEQVRoQ+2a+VPTQBSAV0TwtvVEsOLFpYj2sLEatbGRQ0I5quKN4oGC4IVURQW8FTwB7wNRLsH/0cR5pW7SIWG7m2FKvp+SvDfvm07SzWb3IYWUxatyNorUyXEsnf2vPkJJC9aWFxXCdZoUFpWvsyUrihkrJAku0kcqS0uSHfOkUrjAglJpoXwvVgfhlA3BzBRkq2RxK6Lsq7Sh9BI4YUVJOspi+zPkpysL5cEhO/IQHLDEchgnoR0BgZQAVMCI4RC2x4MAVf5D6/D7Gh91vyej+3GTzw91omgc/K7bA3/IGWjdw0OlcdSOAHdtGNLJ+N3MqW+K2sFXvYJkUt6EdkKtCGqH7/AXyCXl6xEf1IqgcRztg1xSfhzXd3yHXFL6LAfO8/sPcTpeQoSeozZ/C86mSxCh57jogfwIrmaIWA41lkPGoON8wTaczVchQs/ReOIMTvUtiNBzjA4N4wyNQYSeYwKmiiMx3lE7Dn6EXFI+V+s5BOEe5JLSvlc9VVQ7RK6mB5LJeHeag0rjaByit67rJ+RPnl9dF7xQJ4rWIXpCDeGbZIQbDqgHMpkYDpF3O7eS4XRrJrsysRy0sRzGSWQH73Y5yXAZfXY9ofqWMBkt9SFD/0Hvuc5+GBkmT39nnYGxhKt5C/lk9JzSHRMF4S4kk9KmO7bH/476dEj/XfsNckmZPnOGKeQYGxnFGaE/F7188izOMfpzajO+DaxvNRnLARF6jtr8AhwGazJPOh7gtL+ACD3HBEwnhwnvKBPWkPmq15BLiv5aeIC7Huea/g3dNX2R3906COkkDN7x6+5NKHssTU97P5DR++yKkT2WePeKtIpYDjP2vKhjOYyTMA4zeg2ymfdMZKOMYjhmRXEGsjPvYbGj1EzGvThrUhGaz7SnaL+0SOmNSitj2BsVXDlTacBKtq+vYNTjVbFhySxFITNnmSOXQa9armP5XIQQ+guU8GZcBNE4FwAAAABJRU5ErkJggg==;aspect=fixed;" parent="1" vertex="1">
          <mxGeometry x="680" y="400" width="40" height="40" as="geometry" />
        </mxCell>
        <mxCell id="d-gHiXN0EIWmtfIMJueE-14" value="Kaist&#xa;Chat01" style="shape=image;verticalLabelPosition=bottom;labelBackgroundColor=default;verticalAlign=top;imageAspect=0;image=data:image/png,iVBORw0KGgoAAAANSUhEUgAAAGMAAABkCAMAAACl4H4fAAAAAXNSR0IArs4c6QAAAARnQU1BAACxjwv8YQUAAAIKUExURQAAAEC//zOZzDPMzDPM/yuq1SCv3yiv3x+q4B+y6Cat4SGv4yCu4yCw4yCv4SCt4SCv4SCv5CK06yCw5CKy6CKz6SGx5yGw4yGx5CCw4iGv4iGv4iCv5CCv4yGx5SGx5SGx5iGy5iGy5yGz5iKz5yGv4yGw5CCv4yCw4yCw4yCw5ACj3wOk4Amn4A6o4Q6p4RCp4RGp4RGq4RSr4har4his4hms4hmt4hqt4hut4huu4xyt4hyu4x2t4h2t4x2u4h2u4x6u4x+u4x+v4yCv4yCv5CCw5CCx5SCx5iCy5iG06SG06iG16yG26yG27CG27SG37SK37SSw5CWx5Cax5Cmy5Cqy5Cqz5Cuz5Cyz5Cyz5Sy05C205S+05TC05Ta25ja35je35je45ji45jm45kC65kC750G65kK75ka96FLB6VPB6VbC6VrE6lvE6lvE61zE6l7F6mLG62PG62PH62TH62TI62bI7GfJ7HTN7YfT74jU74nU75TY8pXY8pXZ8pbZ8pja8prb8p3c857c863h9K3i9K3i9a/h9K/i9K/i9bDi9bHj9brm9rvn9r7n97/o98Do987t+M7u+M/t+M/u+dDu+NDu+dLv+dnx+trx+tvx+uf3++n3/Oz5/e35/e75/e/5/fL6/fP6/fP7/fT7/vX7/vf8/vj8/vj9/vn8/vn9/vr9/v///2NImxMAAAArdFJOUwAEBQUFBiAgISEibW5ub3BwcHBxcXJzi4yOwsPFxuHi4uLi4+Ps7O7u/v5oqSCPAAAACXBIWXMAABcRAAAXEQHKJvM/AAAC0UlEQVRoQ+2a+VPTQBSAV0TwtvVEsOLFpYj2sLEatbGRQ0I5quKN4oGC4IVURQW8FTwB7wNRLsH/0cR5pW7SIWG7m2FKvp+SvDfvm07SzWb3IYWUxatyNorUyXEsnf2vPkJJC9aWFxXCdZoUFpWvsyUrihkrJAku0kcqS0uSHfOkUrjAglJpoXwvVgfhlA3BzBRkq2RxK6Lsq7Sh9BI4YUVJOspi+zPkpysL5cEhO/IQHLDEchgnoR0BgZQAVMCI4RC2x4MAVf5D6/D7Gh91vyej+3GTzw91omgc/K7bA3/IGWjdw0OlcdSOAHdtGNLJ+N3MqW+K2sFXvYJkUt6EdkKtCGqH7/AXyCXl6xEf1IqgcRztg1xSfhzXd3yHXFL6LAfO8/sPcTpeQoSeozZ/C86mSxCh57jogfwIrmaIWA41lkPGoON8wTaczVchQs/ReOIMTvUtiNBzjA4N4wyNQYSeYwKmiiMx3lE7Dn6EXFI+V+s5BOEe5JLSvlc9VVQ7RK6mB5LJeHeag0rjaByit67rJ+RPnl9dF7xQJ4rWIXpCDeGbZIQbDqgHMpkYDpF3O7eS4XRrJrsysRy0sRzGSWQH73Y5yXAZfXY9ofqWMBkt9SFD/0Hvuc5+GBkmT39nnYGxhKt5C/lk9JzSHRMF4S4kk9KmO7bH/476dEj/XfsNckmZPnOGKeQYGxnFGaE/F7188izOMfpzajO+DaxvNRnLARF6jtr8AhwGazJPOh7gtL+ACD3HBEwnhwnvKBPWkPmq15BLiv5aeIC7Huea/g3dNX2R3906COkkDN7x6+5NKHssTU97P5DR++yKkT2WePeKtIpYDjP2vKhjOYyTMA4zeg2ymfdMZKOMYjhmRXEGsjPvYbGj1EzGvThrUhGaz7SnaL+0SOmNSitj2BsVXDlTacBKtq+vYNTjVbFhySxFITNnmSOXQa9armP5XIQQ+guU8GZcBNE4FwAAAABJRU5ErkJggg==;aspect=fixed;" parent="1" vertex="1">
          <mxGeometry x="800" y="400" width="40" height="40" as="geometry" />
        </mxCell>
        <mxCell id="d-gHiXN0EIWmtfIMJueE-15" value="Kaist&#xa;LRS01" style="shape=image;verticalLabelPosition=bottom;labelBackgroundColor=default;verticalAlign=top;imageAspect=0;image=data:image/png,iVBORw0KGgoAAAANSUhEUgAAAGMAAABkCAMAAACl4H4fAAAAAXNSR0IArs4c6QAAAARnQU1BAACxjwv8YQUAAAIKUExURQAAAEC//zOZzDPMzDPM/yuq1SCv3yiv3x+q4B+y6Cat4SGv4yCu4yCw4yCv4SCt4SCv4SCv5CK06yCw5CKy6CKz6SGx5yGw4yGx5CCw4iGv4iGv4iCv5CCv4yGx5SGx5SGx5iGy5iGy5yGz5iKz5yGv4yGw5CCv4yCw4yCw4yCw5ACj3wOk4Amn4A6o4Q6p4RCp4RGp4RGq4RSr4har4his4hms4hmt4hqt4hut4huu4xyt4hyu4x2t4h2t4x2u4h2u4x6u4x+u4x+v4yCv4yCv5CCw5CCx5SCx5iCy5iG06SG06iG16yG26yG27CG27SG37SK37SSw5CWx5Cax5Cmy5Cqy5Cqz5Cuz5Cyz5Cyz5Sy05C205S+05TC05Ta25ja35je35je45ji45jm45kC65kC750G65kK75ka96FLB6VPB6VbC6VrE6lvE6lvE61zE6l7F6mLG62PG62PH62TH62TI62bI7GfJ7HTN7YfT74jU74nU75TY8pXY8pXZ8pbZ8pja8prb8p3c857c863h9K3i9K3i9a/h9K/i9K/i9bDi9bHj9brm9rvn9r7n97/o98Do987t+M7u+M/t+M/u+dDu+NDu+dLv+dnx+trx+tvx+uf3++n3/Oz5/e35/e75/e/5/fL6/fP6/fP7/fT7/vX7/vf8/vj8/vj9/vn8/vn9/vr9/v///2NImxMAAAArdFJOUwAEBQUFBiAgISEibW5ub3BwcHBxcXJzi4yOwsPFxuHi4uLi4+Ps7O7u/v5oqSCPAAAACXBIWXMAABcRAAAXEQHKJvM/AAAC0UlEQVRoQ+2a+VPTQBSAV0TwtvVEsOLFpYj2sLEatbGRQ0I5quKN4oGC4IVURQW8FTwB7wNRLsH/0cR5pW7SIWG7m2FKvp+SvDfvm07SzWb3IYWUxatyNorUyXEsnf2vPkJJC9aWFxXCdZoUFpWvsyUrihkrJAku0kcqS0uSHfOkUrjAglJpoXwvVgfhlA3BzBRkq2RxK6Lsq7Sh9BI4YUVJOspi+zPkpysL5cEhO/IQHLDEchgnoR0BgZQAVMCI4RC2x4MAVf5D6/D7Gh91vyej+3GTzw91omgc/K7bA3/IGWjdw0OlcdSOAHdtGNLJ+N3MqW+K2sFXvYJkUt6EdkKtCGqH7/AXyCXl6xEf1IqgcRztg1xSfhzXd3yHXFL6LAfO8/sPcTpeQoSeozZ/C86mSxCh57jogfwIrmaIWA41lkPGoON8wTaczVchQs/ReOIMTvUtiNBzjA4N4wyNQYSeYwKmiiMx3lE7Dn6EXFI+V+s5BOEe5JLSvlc9VVQ7RK6mB5LJeHeag0rjaByit67rJ+RPnl9dF7xQJ4rWIXpCDeGbZIQbDqgHMpkYDpF3O7eS4XRrJrsysRy0sRzGSWQH73Y5yXAZfXY9ofqWMBkt9SFD/0Hvuc5+GBkmT39nnYGxhKt5C/lk9JzSHRMF4S4kk9KmO7bH/476dEj/XfsNckmZPnOGKeQYGxnFGaE/F7188izOMfpzajO+DaxvNRnLARF6jtr8AhwGazJPOh7gtL+ACD3HBEwnhwnvKBPWkPmq15BLiv5aeIC7Huea/g3dNX2R3906COkkDN7x6+5NKHssTU97P5DR++yKkT2WePeKtIpYDjP2vKhjOYyTMA4zeg2ymfdMZKOMYjhmRXEGsjPvYbGj1EzGvThrUhGaz7SnaL+0SOmNSitj2BsVXDlTacBKtq+vYNTjVbFhySxFITNnmSOXQa9armP5XIQQ+guU8GZcBNE4FwAAAABJRU5ErkJggg==;aspect=fixed;" parent="1" vertex="1">
          <mxGeometry x="920" y="400" width="40" height="40" as="geometry" />
        </mxCell>
        <mxCell id="d-gHiXN0EIWmtfIMJueE-16" value="Kaist&#xa;Dev01" style="shape=image;verticalLabelPosition=bottom;labelBackgroundColor=default;verticalAlign=top;imageAspect=0;image=data:image/png,iVBORw0KGgoAAAANSUhEUgAAAGMAAABkCAMAAACl4H4fAAAAAXNSR0IArs4c6QAAAARnQU1BAACxjwv8YQUAAAIKUExURQAAAEC//zOZzDPMzDPM/yuq1SCv3yiv3x+q4B+y6Cat4SGv4yCu4yCw4yCv4SCt4SCv4SCv5CK06yCw5CKy6CKz6SGx5yGw4yGx5CCw4iGv4iGv4iCv5CCv4yGx5SGx5SGx5iGy5iGy5yGz5iKz5yGv4yGw5CCv4yCw4yCw4yCw5ACj3wOk4Amn4A6o4Q6p4RCp4RGp4RGq4RSr4har4his4hms4hmt4hqt4hut4huu4xyt4hyu4x2t4h2t4x2u4h2u4x6u4x+u4x+v4yCv4yCv5CCw5CCx5SCx5iCy5iG06SG06iG16yG26yG27CG27SG37SK37SSw5CWx5Cax5Cmy5Cqy5Cqz5Cuz5Cyz5Cyz5Sy05C205S+05TC05Ta25ja35je35je45ji45jm45kC65kC750G65kK75ka96FLB6VPB6VbC6VrE6lvE6lvE61zE6l7F6mLG62PG62PH62TH62TI62bI7GfJ7HTN7YfT74jU74nU75TY8pXY8pXZ8pbZ8pja8prb8p3c857c863h9K3i9K3i9a/h9K/i9K/i9bDi9bHj9brm9rvn9r7n97/o98Do987t+M7u+M/t+M/u+dDu+NDu+dLv+dnx+trx+tvx+uf3++n3/Oz5/e35/e75/e/5/fL6/fP6/fP7/fT7/vX7/vf8/vj8/vj9/vn8/vn9/vr9/v///2NImxMAAAArdFJOUwAEBQUFBiAgISEibW5ub3BwcHBxcXJzi4yOwsPFxuHi4uLi4+Ps7O7u/v5oqSCPAAAACXBIWXMAABcRAAAXEQHKJvM/AAAC0UlEQVRoQ+2a+VPTQBSAV0TwtvVEsOLFpYj2sLEatbGRQ0I5quKN4oGC4IVURQW8FTwB7wNRLsH/0cR5pW7SIWG7m2FKvp+SvDfvm07SzWb3IYWUxatyNorUyXEsnf2vPkJJC9aWFxXCdZoUFpWvsyUrihkrJAku0kcqS0uSHfOkUrjAglJpoXwvVgfhlA3BzBRkq2RxK6Lsq7Sh9BI4YUVJOspi+zPkpysL5cEhO/IQHLDEchgnoR0BgZQAVMCI4RC2x4MAVf5D6/D7Gh91vyej+3GTzw91omgc/K7bA3/IGWjdw0OlcdSOAHdtGNLJ+N3MqW+K2sFXvYJkUt6EdkKtCGqH7/AXyCXl6xEf1IqgcRztg1xSfhzXd3yHXFL6LAfO8/sPcTpeQoSeozZ/C86mSxCh57jogfwIrmaIWA41lkPGoON8wTaczVchQs/ReOIMTvUtiNBzjA4N4wyNQYSeYwKmiiMx3lE7Dn6EXFI+V+s5BOEe5JLSvlc9VVQ7RK6mB5LJeHeag0rjaByit67rJ+RPnl9dF7xQJ4rWIXpCDeGbZIQbDqgHMpkYDpF3O7eS4XRrJrsysRy0sRzGSWQH73Y5yXAZfXY9ofqWMBkt9SFD/0Hvuc5+GBkmT39nnYGxhKt5C/lk9JzSHRMF4S4kk9KmO7bH/476dEj/XfsNckmZPnOGKeQYGxnFGaE/F7188izOMfpzajO+DaxvNRnLARF6jtr8AhwGazJPOh7gtL+ACD3HBEwnhwnvKBPWkPmq15BLiv5aeIC7Huea/g3dNX2R3906COkkDN7x6+5NKHssTU97P5DR++yKkT2WePeKtIpYDjP2vKhjOYyTMA4zeg2ymfdMZKOMYjhmRXEGsjPvYbGj1EzGvThrUhGaz7SnaL+0SOmNSitj2BsVXDlTacBKtq+vYNTjVbFhySxFITNnmSOXQa9armP5XIQQ+guU8GZcBNE4FwAAAABJRU5ErkJggg==;aspect=fixed;" parent="1" vertex="1">
          <mxGeometry x="1040" y="400" width="40" height="40" as="geometry" />
        </mxCell>
        <mxCell id="d-gHiXN0EIWmtfIMJueE-66" style="edgeStyle=orthogonalEdgeStyle;rounded=0;orthogonalLoop=1;jettySize=auto;html=1;exitX=0.5;exitY=1;exitDx=0;exitDy=0;entryX=0.5;entryY=0;entryDx=0;entryDy=0;strokeWidth=2;endArrow=none;endFill=0;fillColor=#dae8fc;strokeColor=#6c8ebf;" parent="1" source="d-gHiXN0EIWmtfIMJueE-17" target="d-gHiXN0EIWmtfIMJueE-20" edge="1">
          <mxGeometry relative="1" as="geometry" />
        </mxCell>
        <mxCell id="d-gHiXN0EIWmtfIMJueE-67" style="edgeStyle=orthogonalEdgeStyle;rounded=0;orthogonalLoop=1;jettySize=auto;html=1;exitX=0.5;exitY=1;exitDx=0;exitDy=0;entryX=0.5;entryY=0;entryDx=0;entryDy=0;strokeWidth=2;endArrow=none;endFill=0;fillColor=#dae8fc;strokeColor=#6c8ebf;" parent="1" source="d-gHiXN0EIWmtfIMJueE-17" target="d-gHiXN0EIWmtfIMJueE-21" edge="1">
          <mxGeometry relative="1" as="geometry" />
        </mxCell>
        <mxCell id="d-gHiXN0EIWmtfIMJueE-68" style="edgeStyle=orthogonalEdgeStyle;rounded=0;orthogonalLoop=1;jettySize=auto;html=1;exitX=0.5;exitY=1;exitDx=0;exitDy=0;entryX=0.5;entryY=0;entryDx=0;entryDy=0;strokeWidth=2;endArrow=none;endFill=0;fillColor=#dae8fc;strokeColor=#6c8ebf;" parent="1" source="d-gHiXN0EIWmtfIMJueE-17" target="d-gHiXN0EIWmtfIMJueE-22" edge="1">
          <mxGeometry relative="1" as="geometry" />
        </mxCell>
        <mxCell id="d-gHiXN0EIWmtfIMJueE-69" style="edgeStyle=orthogonalEdgeStyle;rounded=0;orthogonalLoop=1;jettySize=auto;html=1;exitX=0.5;exitY=1;exitDx=0;exitDy=0;entryX=0.5;entryY=0;entryDx=0;entryDy=0;strokeWidth=2;endArrow=none;endFill=0;fillColor=#dae8fc;strokeColor=#6c8ebf;" parent="1" source="d-gHiXN0EIWmtfIMJueE-17" target="d-gHiXN0EIWmtfIMJueE-23" edge="1">
          <mxGeometry relative="1" as="geometry" />
        </mxCell>
        <mxCell id="d-gHiXN0EIWmtfIMJueE-70" style="edgeStyle=orthogonalEdgeStyle;rounded=0;orthogonalLoop=1;jettySize=auto;html=1;exitX=0.5;exitY=1;exitDx=0;exitDy=0;entryX=0.5;entryY=0;entryDx=0;entryDy=0;strokeWidth=2;endArrow=none;endFill=0;fillColor=#dae8fc;strokeColor=#6c8ebf;" parent="1" source="d-gHiXN0EIWmtfIMJueE-17" target="d-gHiXN0EIWmtfIMJueE-24" edge="1">
          <mxGeometry relative="1" as="geometry" />
        </mxCell>
        <mxCell id="d-gHiXN0EIWmtfIMJueE-17" value="LB" style="shape=image;verticalLabelPosition=bottom;labelBackgroundColor=default;verticalAlign=top;aspect=fixed;imageAspect=0;image=data:image/png,iVBORw0KGgoAAAANSUhEUgAAAGQAAABkCAYAAABw4pVUAAAAAXNSR0IArs4c6QAAAARnQU1BAACxjwv8YQUAAAAJcEhZcwAAFxEAABcRAcom8z8AAAoHSURBVHhe7V1rjBtXFTb8QUJQCil90GY9dkUFpWp/9EGTICgVBIEEQa0I/QECpLaUCvH4kf4qjyIVJBDwB5QENYkKqC3Jxut9dPPYPEpS0iTtRiFpE5JNs2t7xt5HnH2/7GwO57seV5vl2jPXM7Zv6D3Sp2w0955z5nznPubeO+PIFUL0nmjCXhFry6y3Epm+aCIzZyVtstoyBmGAYyliyrGNtTvrW9rslYi5G/0r5dY2e7m1PbXJSjqFWNewqCxVahAcHNtY1xD+LVhtqc3xrU6LS0NJ4h1OSyxp74rvnqBY56BciUHoiHXkKN4zQVYi3WO1ZqMuHZEIN6HnQIbV7kgrGtQRHHMR+0RqsyAj2p65H92UZVpG84DYJ+0iDxsrI9xVbRBjhqygQcMADmLJ9MaI1WafNQO4Bihx0BcR0zBZAYOGA1xETOvQCMwFd1mSCwZNgyFEM2hLyMe2p+nDW1N0zUsp+mBIgC7ohG6ZTR2gHSFRxke3pem+HVla15un358aoz+eHg8F0AWdn2bdsAFbMh+aCa0IaWHcxNn73UMjdGJ0nuolJ1n399gGbMGmzJdmQStCbmhN09f2D9Lg7CU3dPWTIbaxZv+QsCnzpVnQhpBbEhn6eLtNHZlpN2T1l062dRvbhG2ZT82ANoTcxJl6T3eWhufq3zrKMsK27uXxBLZlPjUD2hByIwfl/p1Zmrt02Q1X/WV+4TKtYJuwLfOpGTCEGELkMISUYAgxhMhhCCnBEGIIkcMQUoIhxBAihyGkBEOIIUQOQ0gJhhBDiByGkBIMIYYQOQwhJRhCDCFyGEJKMIQYQuQoE4IgNUoKhpDKwL723d3Zhpw4Kcvo/CVx/svsqUtwy/Y03daeoZftxp062ZebpU922HSzRicZtSEEpwjRdXz71WGaKC64IaufTBYW6FtsC+eydDrBqA0hwPJERmTrumN5smfq13U500VxpBS2YFPmS7OgFSFACwcIWfuFPTl69sQovdA/Ra2p6XfwIv/fmfYmy2FCUXZx3a2pKfrDqTFavXeQrmcbsCXzoZnQjhAAXQhOqC/blqJr/5GiDy1C5O/94sShl3TxWISyi+tC10fc0+86HrQGtCSkGhDQnc6MG/bKsis7I8rKdOgMQ4hmMIRoBkOIZjCEaAZDiGYIhRAse2Aq2Qh84KUB6ra9CdnBpKGsTEc9ENbySyiEfKrTpru6nIYglszQ3tysG/bKsm9wVpSV6agH7uAYyGKjikCE4EkX2fHq8CyNzi80BBcZWDb3EpRBWZmOeuDQyKyIRdCn/1AIeWus4Ibh3Sunxwv6EHL8Yv1eYb5aBK9xG0I0EkOIZmII0UwMIZqJIUQzMYRoJlcdIQeH5ujJoxdoXe/FQPgh68DXfLzkzbF5UVamQwVPHrlAB9h3L7nqCFl/ZoIif71yS7UWRP6msIXLZWU6VBB5vp/+zL57yVVHyOZzk3QN36BMjwoavdqLr9BtYt+9xBDiIe9aQvBVNj+E4KbCIATfTPRLCMrKdKgAhDznkxDxhbpmEoJDZsjCY3lvQjaenaD3vTAg1eMXOLrz/hcH6GUf+yHdTBrKBj3uA583sO9egqRELIIevKuZkOWJtDjQ9o2DQ5T1ccrwyIU5cdK81o9PIvNQd/WeHP1n3Ht1+QyX+dLeHF3PdWrJWvgIeziRD9+9JMcxWHtwmG7gOoiNTKcf1EQIDGKX8KnevNIX4BDIb7LTOMMbVQgSAor++bHDI5SaKrravCU9XaTHuY5qVwLf4OPaA8NiWd2v4At1Tx3L03K2VyspyoQgc+Ds9w9fqOnlmv6pAn2RM1flnQzREg8MUX5e/bwvNqnWcl0VeyiLo6zn2VdVwfstP+BnF+iopSdQJgSZ+mBPjjIKmbpU9g/iNQDsxcttLMbNXObubkcMmrUK6t7LOqBLZmMx4NMn2Ld9Oe9xqpLYM0V6kAlFrGQ2qkGZEPSrm/q8B7lqUuCG9ZPX876mpSjz65Ojbs3a5Tesw6+9Hx3N+9omriZbzk2IWMlsVIMSIWB8JQ9yfQr9aiXpeucTrZWdxkmOO7tsOjziPah6yVHWAV3Vsha+4FO1flYCvOTcRIFW7coqtxIlQq7blhKD5GwIL2b2c5f3ee76qn3IGBn20D9rGzuWCnQ8zLqqZS18eWA3jx2TwRMOMcI4i5jJbFWCEiHXcnN++njw7gMyww6veWWIHa4cIDzYPco3tXA5eAJAx+Osq9rDInzBl7VnisHtQX7OsULMZLYqQYkQPGn/9s0x11xweYSnwMuqOIz3OX7MY01Y8tM38kKnzBYAXzAjC0t+99aY8uqEEiFY/fzlv8NpIZgeojvyaiFo9mEJpqNeLeTrrwyG9mr2MydGRcxktipBbQzhmwlrDBlwxxA8SctsAeUxBM8SQQU6HubsrzaG4DW3B3qyNBDSGPIExpAqCSCDEiGYMWA+j2WJoJLkmUw8WZrZyGwBmGXhteV/DXsfHfWS13iWdbvHK9DwBT61pafcWrXLWZ5l3ddd51kWnjwxE/Gz2FZN0CVgN2/ZVm9nr+Myz3A3GbRN/urEmNAls7EY8Am7hHMBu62/cIwQK9WndSVCADC+YkeW3g7QrHEyHZnoZ2UUPyWBw9yv+1jgqyS9+Tm6o8sRumQ2FgM+wTc/J+wrSf9kUSykqrYOQJmQ8lrWdw4N03hBvW8/PT4v5vqqa0treLB1ZtSXa7JcB3VV7X2OfTw1pr5cg5jg13tubE01Zi0LwEom2McMyJ72H6RezvKv7BtUbsrlJMA02c/Se1kw1qEO6qoGBz5+mX19Q6FlIhZPcHeH2DRstbcMLGeXnM7R9vR01ZkXZjh/OjMuJgSYVdWSOfitKNT9LGfu829P0mSVz2/gGsogy8V+yBJdfgAfUfce9hm+5+cq28Oqd4JjUE62IJtUNRMCwGk4cGvSpq/yEy5+BW1Hdlr096+NzPJMaop+dvyi6KLgpEq3IUO5peDv1XsG6dmTo9RpT9MRnkFhEwknTbAQiWsoU0vLWArogO8g92m+F9wT7g33uJPvFfeMe0cMVFu+DIEIKQODJTaB0FQrIUjWLAV0yWwsRiPt4d7D+h2rUAgpA9mB3TZ0ZwD+Dpox1fD/aC9UQgyCwxCiGQwhmsEQohkMIZrBEKIZIhY/0MguGDQBzEWE59Jz0osGDQe44C7LOWtaiQYocdAXiSXtDbGu4f8tYNBQgAPmYiN3WfYKK+kUrM7SgpxBE4DYJ51ivNVZFYHE2zKb4rsnyGp35BUM6geOOWIfS6S3CDIgVtf5KPdhu8UF01IahlhHjuI93BAS6T3Rtn7LpaMk8Q6nhS9ssdqzBTGmJE1rqRt4AC/F2C5aycwWq/V81KVhifyC3tvSOrAKA72VyPSJKbGZgYUHjqWIacLui7U7G+KJ1GcQczf6LJHIfwHOtf/weZK8jAAAAABJRU5ErkJggg==;" parent="1" vertex="1">
          <mxGeometry x="320" y="560" width="40" height="40" as="geometry" />
        </mxCell>
        <mxCell id="d-gHiXN0EIWmtfIMJueE-71" style="edgeStyle=orthogonalEdgeStyle;rounded=0;orthogonalLoop=1;jettySize=auto;html=1;exitX=0.5;exitY=1;exitDx=0;exitDy=0;strokeWidth=2;fillColor=#dae8fc;strokeColor=#6c8ebf;endArrow=none;endFill=0;" parent="1" source="d-gHiXN0EIWmtfIMJueE-18" target="d-gHiXN0EIWmtfIMJueE-25" edge="1">
          <mxGeometry relative="1" as="geometry" />
        </mxCell>
        <mxCell id="d-gHiXN0EIWmtfIMJueE-72" style="edgeStyle=orthogonalEdgeStyle;rounded=0;orthogonalLoop=1;jettySize=auto;html=1;exitX=0.5;exitY=1;exitDx=0;exitDy=0;entryX=0.5;entryY=0;entryDx=0;entryDy=0;strokeWidth=2;fillColor=#dae8fc;strokeColor=#6c8ebf;endArrow=none;endFill=0;" parent="1" source="d-gHiXN0EIWmtfIMJueE-18" target="d-gHiXN0EIWmtfIMJueE-27" edge="1">
          <mxGeometry relative="1" as="geometry" />
        </mxCell>
        <mxCell id="d-gHiXN0EIWmtfIMJueE-73" style="edgeStyle=orthogonalEdgeStyle;rounded=0;orthogonalLoop=1;jettySize=auto;html=1;exitX=0.5;exitY=1;exitDx=0;exitDy=0;entryX=0.5;entryY=0;entryDx=0;entryDy=0;strokeWidth=2;fillColor=#dae8fc;strokeColor=#6c8ebf;endArrow=none;endFill=0;" parent="1" source="d-gHiXN0EIWmtfIMJueE-18" target="d-gHiXN0EIWmtfIMJueE-28" edge="1">
          <mxGeometry relative="1" as="geometry" />
        </mxCell>
        <mxCell id="d-gHiXN0EIWmtfIMJueE-74" style="edgeStyle=orthogonalEdgeStyle;rounded=0;orthogonalLoop=1;jettySize=auto;html=1;exitX=0.5;exitY=1;exitDx=0;exitDy=0;entryX=0.5;entryY=0;entryDx=0;entryDy=0;strokeWidth=2;fillColor=#dae8fc;strokeColor=#6c8ebf;endArrow=none;endFill=0;" parent="1" source="d-gHiXN0EIWmtfIMJueE-18" target="d-gHiXN0EIWmtfIMJueE-29" edge="1">
          <mxGeometry relative="1" as="geometry" />
        </mxCell>
        <mxCell id="d-gHiXN0EIWmtfIMJueE-18" value="LB" style="shape=image;verticalLabelPosition=bottom;labelBackgroundColor=default;verticalAlign=top;aspect=fixed;imageAspect=0;image=data:image/png,iVBORw0KGgoAAAANSUhEUgAAAGQAAABkCAYAAABw4pVUAAAAAXNSR0IArs4c6QAAAARnQU1BAACxjwv8YQUAAAAJcEhZcwAAFxEAABcRAcom8z8AAAoHSURBVHhe7V1rjBtXFTb8QUJQCil90GY9dkUFpWp/9EGTICgVBIEEQa0I/QECpLaUCvH4kf4qjyIVJBDwB5QENYkKqC3Jxut9dPPYPEpS0iTtRiFpE5JNs2t7xt5HnH2/7GwO57seV5vl2jPXM7Zv6D3Sp2w0955z5nznPubeO+PIFUL0nmjCXhFry6y3Epm+aCIzZyVtstoyBmGAYyliyrGNtTvrW9rslYi5G/0r5dY2e7m1PbXJSjqFWNewqCxVahAcHNtY1xD+LVhtqc3xrU6LS0NJ4h1OSyxp74rvnqBY56BciUHoiHXkKN4zQVYi3WO1ZqMuHZEIN6HnQIbV7kgrGtQRHHMR+0RqsyAj2p65H92UZVpG84DYJ+0iDxsrI9xVbRBjhqygQcMADmLJ9MaI1WafNQO4Bihx0BcR0zBZAYOGA1xETOvQCMwFd1mSCwZNgyFEM2hLyMe2p+nDW1N0zUsp+mBIgC7ohG6ZTR2gHSFRxke3pem+HVla15un358aoz+eHg8F0AWdn2bdsAFbMh+aCa0IaWHcxNn73UMjdGJ0nuolJ1n399gGbMGmzJdmQStCbmhN09f2D9Lg7CU3dPWTIbaxZv+QsCnzpVnQhpBbEhn6eLtNHZlpN2T1l062dRvbhG2ZT82ANoTcxJl6T3eWhufq3zrKMsK27uXxBLZlPjUD2hByIwfl/p1Zmrt02Q1X/WV+4TKtYJuwLfOpGTCEGELkMISUYAgxhMhhCCnBEGIIkcMQUoIhxBAihyGkBEOIIUQOQ0gJhhBDiByGkBIMIYYQOQwhJRhCDCFyGEJKMIQYQuQoE4IgNUoKhpDKwL723d3Zhpw4Kcvo/CVx/svsqUtwy/Y03daeoZftxp062ZebpU922HSzRicZtSEEpwjRdXz71WGaKC64IaufTBYW6FtsC+eydDrBqA0hwPJERmTrumN5smfq13U500VxpBS2YFPmS7OgFSFACwcIWfuFPTl69sQovdA/Ra2p6XfwIv/fmfYmy2FCUXZx3a2pKfrDqTFavXeQrmcbsCXzoZnQjhAAXQhOqC/blqJr/5GiDy1C5O/94sShl3TxWISyi+tC10fc0+86HrQGtCSkGhDQnc6MG/bKsis7I8rKdOgMQ4hmMIRoBkOIZjCEaAZDiGYIhRAse2Aq2Qh84KUB6ra9CdnBpKGsTEc9ENbySyiEfKrTpru6nIYglszQ3tysG/bKsm9wVpSV6agH7uAYyGKjikCE4EkX2fHq8CyNzi80BBcZWDb3EpRBWZmOeuDQyKyIRdCn/1AIeWus4Ibh3Sunxwv6EHL8Yv1eYb5aBK9xG0I0EkOIZmII0UwMIZqJIUQzMYRoJlcdIQeH5ujJoxdoXe/FQPgh68DXfLzkzbF5UVamQwVPHrlAB9h3L7nqCFl/ZoIif71yS7UWRP6msIXLZWU6VBB5vp/+zL57yVVHyOZzk3QN36BMjwoavdqLr9BtYt+9xBDiIe9aQvBVNj+E4KbCIATfTPRLCMrKdKgAhDznkxDxhbpmEoJDZsjCY3lvQjaenaD3vTAg1eMXOLrz/hcH6GUf+yHdTBrKBj3uA583sO9egqRELIIevKuZkOWJtDjQ9o2DQ5T1ccrwyIU5cdK81o9PIvNQd/WeHP1n3Ht1+QyX+dLeHF3PdWrJWvgIeziRD9+9JMcxWHtwmG7gOoiNTKcf1EQIDGKX8KnevNIX4BDIb7LTOMMbVQgSAor++bHDI5SaKrravCU9XaTHuY5qVwLf4OPaA8NiWd2v4At1Tx3L03K2VyspyoQgc+Ds9w9fqOnlmv6pAn2RM1flnQzREg8MUX5e/bwvNqnWcl0VeyiLo6zn2VdVwfstP+BnF+iopSdQJgSZ+mBPjjIKmbpU9g/iNQDsxcttLMbNXObubkcMmrUK6t7LOqBLZmMx4NMn2Ld9Oe9xqpLYM0V6kAlFrGQ2qkGZEPSrm/q8B7lqUuCG9ZPX876mpSjz65Ojbs3a5Tesw6+9Hx3N+9omriZbzk2IWMlsVIMSIWB8JQ9yfQr9aiXpeucTrZWdxkmOO7tsOjziPah6yVHWAV3Vsha+4FO1flYCvOTcRIFW7coqtxIlQq7blhKD5GwIL2b2c5f3ee76qn3IGBn20D9rGzuWCnQ8zLqqZS18eWA3jx2TwRMOMcI4i5jJbFWCEiHXcnN++njw7gMyww6veWWIHa4cIDzYPco3tXA5eAJAx+Osq9rDInzBl7VnisHtQX7OsULMZLYqQYkQPGn/9s0x11xweYSnwMuqOIz3OX7MY01Y8tM38kKnzBYAXzAjC0t+99aY8uqEEiFY/fzlv8NpIZgeojvyaiFo9mEJpqNeLeTrrwyG9mr2MydGRcxktipBbQzhmwlrDBlwxxA8SctsAeUxBM8SQQU6HubsrzaG4DW3B3qyNBDSGPIExpAqCSCDEiGYMWA+j2WJoJLkmUw8WZrZyGwBmGXhteV/DXsfHfWS13iWdbvHK9DwBT61pafcWrXLWZ5l3ddd51kWnjwxE/Gz2FZN0CVgN2/ZVm9nr+Myz3A3GbRN/urEmNAls7EY8Am7hHMBu62/cIwQK9WndSVCADC+YkeW3g7QrHEyHZnoZ2UUPyWBw9yv+1jgqyS9+Tm6o8sRumQ2FgM+wTc/J+wrSf9kUSykqrYOQJmQ8lrWdw4N03hBvW8/PT4v5vqqa0treLB1ZtSXa7JcB3VV7X2OfTw1pr5cg5jg13tubE01Zi0LwEom2McMyJ72H6RezvKv7BtUbsrlJMA02c/Se1kw1qEO6qoGBz5+mX19Q6FlIhZPcHeH2DRstbcMLGeXnM7R9vR01ZkXZjh/OjMuJgSYVdWSOfitKNT9LGfu829P0mSVz2/gGsogy8V+yBJdfgAfUfce9hm+5+cq28Oqd4JjUE62IJtUNRMCwGk4cGvSpq/yEy5+BW1Hdlr096+NzPJMaop+dvyi6KLgpEq3IUO5peDv1XsG6dmTo9RpT9MRnkFhEwknTbAQiWsoU0vLWArogO8g92m+F9wT7g33uJPvFfeMe0cMVFu+DIEIKQODJTaB0FQrIUjWLAV0yWwsRiPt4d7D+h2rUAgpA9mB3TZ0ZwD+Dpox1fD/aC9UQgyCwxCiGQwhmsEQohkMIZrBEKIZIhY/0MguGDQBzEWE59Jz0osGDQe44C7LOWtaiQYocdAXiSXtDbGu4f8tYNBQgAPmYiN3WfYKK+kUrM7SgpxBE4DYJ51ivNVZFYHE2zKb4rsnyGp35BUM6geOOWIfS6S3CDIgVtf5KPdhu8UF01IahlhHjuI93BAS6T3Rtn7LpaMk8Q6nhS9ssdqzBTGmJE1rqRt4AC/F2C5aycwWq/V81KVhifyC3tvSOrAKA72VyPSJKbGZgYUHjqWIacLui7U7G+KJ1GcQczf6LJHIfwHOtf/weZK8jAAAAABJRU5ErkJggg==;" parent="1" vertex="1">
          <mxGeometry x="720" y="560" width="40" height="40" as="geometry" />
        </mxCell>
        <mxCell id="d-gHiXN0EIWmtfIMJueE-76" style="edgeStyle=orthogonalEdgeStyle;rounded=0;orthogonalLoop=1;jettySize=auto;html=1;exitX=0.5;exitY=1;exitDx=0;exitDy=0;entryX=0.5;entryY=0;entryDx=0;entryDy=0;strokeWidth=2;fillColor=#dae8fc;strokeColor=#6c8ebf;endArrow=none;endFill=0;" parent="1" source="d-gHiXN0EIWmtfIMJueE-19" target="d-gHiXN0EIWmtfIMJueE-30" edge="1">
          <mxGeometry relative="1" as="geometry" />
        </mxCell>
        <mxCell id="d-gHiXN0EIWmtfIMJueE-77" style="edgeStyle=orthogonalEdgeStyle;rounded=0;orthogonalLoop=1;jettySize=auto;html=1;exitX=0.5;exitY=1;exitDx=0;exitDy=0;entryX=0.5;entryY=0;entryDx=0;entryDy=0;strokeWidth=2;fillColor=#dae8fc;strokeColor=#6c8ebf;endArrow=none;endFill=0;" parent="1" source="d-gHiXN0EIWmtfIMJueE-19" target="d-gHiXN0EIWmtfIMJueE-31" edge="1">
          <mxGeometry relative="1" as="geometry" />
        </mxCell>
        <mxCell id="d-gHiXN0EIWmtfIMJueE-19" value="LB" style="shape=image;verticalLabelPosition=bottom;labelBackgroundColor=default;verticalAlign=top;aspect=fixed;imageAspect=0;image=data:image/png,iVBORw0KGgoAAAANSUhEUgAAAGQAAABkCAYAAABw4pVUAAAAAXNSR0IArs4c6QAAAARnQU1BAACxjwv8YQUAAAAJcEhZcwAAFxEAABcRAcom8z8AAAoHSURBVHhe7V1rjBtXFTb8QUJQCil90GY9dkUFpWp/9EGTICgVBIEEQa0I/QECpLaUCvH4kf4qjyIVJBDwB5QENYkKqC3Jxut9dPPYPEpS0iTtRiFpE5JNs2t7xt5HnH2/7GwO57seV5vl2jPXM7Zv6D3Sp2w0955z5nznPubeO+PIFUL0nmjCXhFry6y3Epm+aCIzZyVtstoyBmGAYyliyrGNtTvrW9rslYi5G/0r5dY2e7m1PbXJSjqFWNewqCxVahAcHNtY1xD+LVhtqc3xrU6LS0NJ4h1OSyxp74rvnqBY56BciUHoiHXkKN4zQVYi3WO1ZqMuHZEIN6HnQIbV7kgrGtQRHHMR+0RqsyAj2p65H92UZVpG84DYJ+0iDxsrI9xVbRBjhqygQcMADmLJ9MaI1WafNQO4Bihx0BcR0zBZAYOGA1xETOvQCMwFd1mSCwZNgyFEM2hLyMe2p+nDW1N0zUsp+mBIgC7ohG6ZTR2gHSFRxke3pem+HVla15un358aoz+eHg8F0AWdn2bdsAFbMh+aCa0IaWHcxNn73UMjdGJ0nuolJ1n399gGbMGmzJdmQStCbmhN09f2D9Lg7CU3dPWTIbaxZv+QsCnzpVnQhpBbEhn6eLtNHZlpN2T1l062dRvbhG2ZT82ANoTcxJl6T3eWhufq3zrKMsK27uXxBLZlPjUD2hByIwfl/p1Zmrt02Q1X/WV+4TKtYJuwLfOpGTCEGELkMISUYAgxhMhhCCnBEGIIkcMQUoIhxBAihyGkBEOIIUQOQ0gJhhBDiByGkBIMIYYQOQwhJRhCDCFyGEJKMIQYQuQoE4IgNUoKhpDKwL723d3Zhpw4Kcvo/CVx/svsqUtwy/Y03daeoZftxp062ZebpU922HSzRicZtSEEpwjRdXz71WGaKC64IaufTBYW6FtsC+eydDrBqA0hwPJERmTrumN5smfq13U500VxpBS2YFPmS7OgFSFACwcIWfuFPTl69sQovdA/Ra2p6XfwIv/fmfYmy2FCUXZx3a2pKfrDqTFavXeQrmcbsCXzoZnQjhAAXQhOqC/blqJr/5GiDy1C5O/94sShl3TxWISyi+tC10fc0+86HrQGtCSkGhDQnc6MG/bKsis7I8rKdOgMQ4hmMIRoBkOIZjCEaAZDiGYIhRAse2Aq2Qh84KUB6ra9CdnBpKGsTEc9ENbySyiEfKrTpru6nIYglszQ3tysG/bKsm9wVpSV6agH7uAYyGKjikCE4EkX2fHq8CyNzi80BBcZWDb3EpRBWZmOeuDQyKyIRdCn/1AIeWus4Ibh3Sunxwv6EHL8Yv1eYb5aBK9xG0I0EkOIZmII0UwMIZqJIUQzMYRoJlcdIQeH5ujJoxdoXe/FQPgh68DXfLzkzbF5UVamQwVPHrlAB9h3L7nqCFl/ZoIif71yS7UWRP6msIXLZWU6VBB5vp/+zL57yVVHyOZzk3QN36BMjwoavdqLr9BtYt+9xBDiIe9aQvBVNj+E4KbCIATfTPRLCMrKdKgAhDznkxDxhbpmEoJDZsjCY3lvQjaenaD3vTAg1eMXOLrz/hcH6GUf+yHdTBrKBj3uA583sO9egqRELIIevKuZkOWJtDjQ9o2DQ5T1ccrwyIU5cdK81o9PIvNQd/WeHP1n3Ht1+QyX+dLeHF3PdWrJWvgIeziRD9+9JMcxWHtwmG7gOoiNTKcf1EQIDGKX8KnevNIX4BDIb7LTOMMbVQgSAor++bHDI5SaKrravCU9XaTHuY5qVwLf4OPaA8NiWd2v4At1Tx3L03K2VyspyoQgc+Ds9w9fqOnlmv6pAn2RM1flnQzREg8MUX5e/bwvNqnWcl0VeyiLo6zn2VdVwfstP+BnF+iopSdQJgSZ+mBPjjIKmbpU9g/iNQDsxcttLMbNXObubkcMmrUK6t7LOqBLZmMx4NMn2Ld9Oe9xqpLYM0V6kAlFrGQ2qkGZEPSrm/q8B7lqUuCG9ZPX876mpSjz65Ojbs3a5Tesw6+9Hx3N+9omriZbzk2IWMlsVIMSIWB8JQ9yfQr9aiXpeucTrZWdxkmOO7tsOjziPah6yVHWAV3Vsha+4FO1flYCvOTcRIFW7coqtxIlQq7blhKD5GwIL2b2c5f3ee76qn3IGBn20D9rGzuWCnQ8zLqqZS18eWA3jx2TwRMOMcI4i5jJbFWCEiHXcnN++njw7gMyww6veWWIHa4cIDzYPco3tXA5eAJAx+Osq9rDInzBl7VnisHtQX7OsULMZLYqQYkQPGn/9s0x11xweYSnwMuqOIz3OX7MY01Y8tM38kKnzBYAXzAjC0t+99aY8uqEEiFY/fzlv8NpIZgeojvyaiFo9mEJpqNeLeTrrwyG9mr2MydGRcxktipBbQzhmwlrDBlwxxA8SctsAeUxBM8SQQU6HubsrzaG4DW3B3qyNBDSGPIExpAqCSCDEiGYMWA+j2WJoJLkmUw8WZrZyGwBmGXhteV/DXsfHfWS13iWdbvHK9DwBT61pafcWrXLWZ5l3ddd51kWnjwxE/Gz2FZN0CVgN2/ZVm9nr+Myz3A3GbRN/urEmNAls7EY8Am7hHMBu62/cIwQK9WndSVCADC+YkeW3g7QrHEyHZnoZ2UUPyWBw9yv+1jgqyS9+Tm6o8sRumQ2FgM+wTc/J+wrSf9kUSykqrYOQJmQ8lrWdw4N03hBvW8/PT4v5vqqa0treLB1ZtSXa7JcB3VV7X2OfTw1pr5cg5jg13tubE01Zi0LwEom2McMyJ72H6RezvKv7BtUbsrlJMA02c/Se1kw1qEO6qoGBz5+mX19Q6FlIhZPcHeH2DRstbcMLGeXnM7R9vR01ZkXZjh/OjMuJgSYVdWSOfitKNT9LGfu829P0mSVz2/gGsogy8V+yBJdfgAfUfce9hm+5+cq28Oqd4JjUE62IJtUNRMCwGk4cGvSpq/yEy5+BW1Hdlr096+NzPJMaop+dvyi6KLgpEq3IUO5peDv1XsG6dmTo9RpT9MRnkFhEwknTbAQiWsoU0vLWArogO8g92m+F9wT7g33uJPvFfeMe0cMVFu+DIEIKQODJTaB0FQrIUjWLAV0yWwsRiPt4d7D+h2rUAgpA9mB3TZ0ZwD+Dpox1fD/aC9UQgyCwxCiGQwhmsEQohkMIZrBEKIZIhY/0MguGDQBzEWE59Jz0osGDQe44C7LOWtaiQYocdAXiSXtDbGu4f8tYNBQgAPmYiN3WfYKK+kUrM7SgpxBE4DYJ51ivNVZFYHE2zKb4rsnyGp35BUM6geOOWIfS6S3CDIgVtf5KPdhu8UF01IahlhHjuI93BAS6T3Rtn7LpaMk8Q6nhS9ssdqzBTGmJE1rqRt4AC/F2C5aycwWq/V81KVhifyC3tvSOrAKA72VyPSJKbGZgYUHjqWIacLui7U7G+KJ1GcQczf6LJHIfwHOtf/weZK8jAAAAABJRU5ErkJggg==;" parent="1" vertex="1">
          <mxGeometry x="1040" y="560" width="40" height="40" as="geometry" />
        </mxCell>
        <mxCell id="d-gHiXN0EIWmtfIMJueE-20" value="Kaist&#xa;LMS01" style="shape=image;verticalLabelPosition=bottom;labelBackgroundColor=default;verticalAlign=top;imageAspect=0;image=data:image/png,iVBORw0KGgoAAAANSUhEUgAAAGMAAABkCAMAAACl4H4fAAAAAXNSR0IArs4c6QAAAARnQU1BAACxjwv8YQUAAAIKUExURQAAAEC//zOZzDPMzDPM/yuq1SCv3yiv3x+q4B+y6Cat4SGv4yCu4yCw4yCv4SCt4SCv4SCv5CK06yCw5CKy6CKz6SGx5yGw4yGx5CCw4iGv4iGv4iCv5CCv4yGx5SGx5SGx5iGy5iGy5yGz5iKz5yGv4yGw5CCv4yCw4yCw4yCw5ACj3wOk4Amn4A6o4Q6p4RCp4RGp4RGq4RSr4har4his4hms4hmt4hqt4hut4huu4xyt4hyu4x2t4h2t4x2u4h2u4x6u4x+u4x+v4yCv4yCv5CCw5CCx5SCx5iCy5iG06SG06iG16yG26yG27CG27SG37SK37SSw5CWx5Cax5Cmy5Cqy5Cqz5Cuz5Cyz5Cyz5Sy05C205S+05TC05Ta25ja35je35je45ji45jm45kC65kC750G65kK75ka96FLB6VPB6VbC6VrE6lvE6lvE61zE6l7F6mLG62PG62PH62TH62TI62bI7GfJ7HTN7YfT74jU74nU75TY8pXY8pXZ8pbZ8pja8prb8p3c857c863h9K3i9K3i9a/h9K/i9K/i9bDi9bHj9brm9rvn9r7n97/o98Do987t+M7u+M/t+M/u+dDu+NDu+dLv+dnx+trx+tvx+uf3++n3/Oz5/e35/e75/e/5/fL6/fP6/fP7/fT7/vX7/vf8/vj8/vj9/vn8/vn9/vr9/v///2NImxMAAAArdFJOUwAEBQUFBiAgISEibW5ub3BwcHBxcXJzi4yOwsPFxuHi4uLi4+Ps7O7u/v5oqSCPAAAACXBIWXMAABcRAAAXEQHKJvM/AAAC0UlEQVRoQ+2a+VPTQBSAV0TwtvVEsOLFpYj2sLEatbGRQ0I5quKN4oGC4IVURQW8FTwB7wNRLsH/0cR5pW7SIWG7m2FKvp+SvDfvm07SzWb3IYWUxatyNorUyXEsnf2vPkJJC9aWFxXCdZoUFpWvsyUrihkrJAku0kcqS0uSHfOkUrjAglJpoXwvVgfhlA3BzBRkq2RxK6Lsq7Sh9BI4YUVJOspi+zPkpysL5cEhO/IQHLDEchgnoR0BgZQAVMCI4RC2x4MAVf5D6/D7Gh91vyej+3GTzw91omgc/K7bA3/IGWjdw0OlcdSOAHdtGNLJ+N3MqW+K2sFXvYJkUt6EdkKtCGqH7/AXyCXl6xEf1IqgcRztg1xSfhzXd3yHXFL6LAfO8/sPcTpeQoSeozZ/C86mSxCh57jogfwIrmaIWA41lkPGoON8wTaczVchQs/ReOIMTvUtiNBzjA4N4wyNQYSeYwKmiiMx3lE7Dn6EXFI+V+s5BOEe5JLSvlc9VVQ7RK6mB5LJeHeag0rjaByit67rJ+RPnl9dF7xQJ4rWIXpCDeGbZIQbDqgHMpkYDpF3O7eS4XRrJrsysRy0sRzGSWQH73Y5yXAZfXY9ofqWMBkt9SFD/0Hvuc5+GBkmT39nnYGxhKt5C/lk9JzSHRMF4S4kk9KmO7bH/476dEj/XfsNckmZPnOGKeQYGxnFGaE/F7188izOMfpzajO+DaxvNRnLARF6jtr8AhwGazJPOh7gtL+ACD3HBEwnhwnvKBPWkPmq15BLiv5aeIC7Huea/g3dNX2R3906COkkDN7x6+5NKHssTU97P5DR++yKkT2WePeKtIpYDjP2vKhjOYyTMA4zeg2ymfdMZKOMYjhmRXEGsjPvYbGj1EzGvThrUhGaz7SnaL+0SOmNSitj2BsVXDlTacBKtq+vYNTjVbFhySxFITNnmSOXQa9armP5XIQQ+guU8GZcBNE4FwAAAABJRU5ErkJggg==;aspect=fixed;" parent="1" vertex="1">
          <mxGeometry x="160" y="680" width="40" height="40" as="geometry" />
        </mxCell>
        <mxCell id="d-gHiXN0EIWmtfIMJueE-21" value="Kaist&#xa;LMS02" style="shape=image;verticalLabelPosition=bottom;labelBackgroundColor=default;verticalAlign=top;imageAspect=0;image=data:image/png,iVBORw0KGgoAAAANSUhEUgAAAGMAAABkCAMAAACl4H4fAAAAAXNSR0IArs4c6QAAAARnQU1BAACxjwv8YQUAAAIKUExURQAAAEC//zOZzDPMzDPM/yuq1SCv3yiv3x+q4B+y6Cat4SGv4yCu4yCw4yCv4SCt4SCv4SCv5CK06yCw5CKy6CKz6SGx5yGw4yGx5CCw4iGv4iGv4iCv5CCv4yGx5SGx5SGx5iGy5iGy5yGz5iKz5yGv4yGw5CCv4yCw4yCw4yCw5ACj3wOk4Amn4A6o4Q6p4RCp4RGp4RGq4RSr4har4his4hms4hmt4hqt4hut4huu4xyt4hyu4x2t4h2t4x2u4h2u4x6u4x+u4x+v4yCv4yCv5CCw5CCx5SCx5iCy5iG06SG06iG16yG26yG27CG27SG37SK37SSw5CWx5Cax5Cmy5Cqy5Cqz5Cuz5Cyz5Cyz5Sy05C205S+05TC05Ta25ja35je35je45ji45jm45kC65kC750G65kK75ka96FLB6VPB6VbC6VrE6lvE6lvE61zE6l7F6mLG62PG62PH62TH62TI62bI7GfJ7HTN7YfT74jU74nU75TY8pXY8pXZ8pbZ8pja8prb8p3c857c863h9K3i9K3i9a/h9K/i9K/i9bDi9bHj9brm9rvn9r7n97/o98Do987t+M7u+M/t+M/u+dDu+NDu+dLv+dnx+trx+tvx+uf3++n3/Oz5/e35/e75/e/5/fL6/fP6/fP7/fT7/vX7/vf8/vj8/vj9/vn8/vn9/vr9/v///2NImxMAAAArdFJOUwAEBQUFBiAgISEibW5ub3BwcHBxcXJzi4yOwsPFxuHi4uLi4+Ps7O7u/v5oqSCPAAAACXBIWXMAABcRAAAXEQHKJvM/AAAC0UlEQVRoQ+2a+VPTQBSAV0TwtvVEsOLFpYj2sLEatbGRQ0I5quKN4oGC4IVURQW8FTwB7wNRLsH/0cR5pW7SIWG7m2FKvp+SvDfvm07SzWb3IYWUxatyNorUyXEsnf2vPkJJC9aWFxXCdZoUFpWvsyUrihkrJAku0kcqS0uSHfOkUrjAglJpoXwvVgfhlA3BzBRkq2RxK6Lsq7Sh9BI4YUVJOspi+zPkpysL5cEhO/IQHLDEchgnoR0BgZQAVMCI4RC2x4MAVf5D6/D7Gh91vyej+3GTzw91omgc/K7bA3/IGWjdw0OlcdSOAHdtGNLJ+N3MqW+K2sFXvYJkUt6EdkKtCGqH7/AXyCXl6xEf1IqgcRztg1xSfhzXd3yHXFL6LAfO8/sPcTpeQoSeozZ/C86mSxCh57jogfwIrmaIWA41lkPGoON8wTaczVchQs/ReOIMTvUtiNBzjA4N4wyNQYSeYwKmiiMx3lE7Dn6EXFI+V+s5BOEe5JLSvlc9VVQ7RK6mB5LJeHeag0rjaByit67rJ+RPnl9dF7xQJ4rWIXpCDeGbZIQbDqgHMpkYDpF3O7eS4XRrJrsysRy0sRzGSWQH73Y5yXAZfXY9ofqWMBkt9SFD/0Hvuc5+GBkmT39nnYGxhKt5C/lk9JzSHRMF4S4kk9KmO7bH/476dEj/XfsNckmZPnOGKeQYGxnFGaE/F7188izOMfpzajO+DaxvNRnLARF6jtr8AhwGazJPOh7gtL+ACD3HBEwnhwnvKBPWkPmq15BLiv5aeIC7Huea/g3dNX2R3906COkkDN7x6+5NKHssTU97P5DR++yKkT2WePeKtIpYDjP2vKhjOYyTMA4zeg2ymfdMZKOMYjhmRXEGsjPvYbGj1EzGvThrUhGaz7SnaL+0SOmNSitj2BsVXDlTacBKtq+vYNTjVbFhySxFITNnmSOXQa9armP5XIQQ+guU8GZcBNE4FwAAAABJRU5ErkJggg==;aspect=fixed;" parent="1" vertex="1">
          <mxGeometry x="240" y="680" width="40" height="40" as="geometry" />
        </mxCell>
        <mxCell id="d-gHiXN0EIWmtfIMJueE-22" value="Kaist&#xa;LMS03" style="shape=image;verticalLabelPosition=bottom;labelBackgroundColor=default;verticalAlign=top;imageAspect=0;image=data:image/png,iVBORw0KGgoAAAANSUhEUgAAAGMAAABkCAMAAACl4H4fAAAAAXNSR0IArs4c6QAAAARnQU1BAACxjwv8YQUAAAIKUExURQAAAEC//zOZzDPMzDPM/yuq1SCv3yiv3x+q4B+y6Cat4SGv4yCu4yCw4yCv4SCt4SCv4SCv5CK06yCw5CKy6CKz6SGx5yGw4yGx5CCw4iGv4iGv4iCv5CCv4yGx5SGx5SGx5iGy5iGy5yGz5iKz5yGv4yGw5CCv4yCw4yCw4yCw5ACj3wOk4Amn4A6o4Q6p4RCp4RGp4RGq4RSr4har4his4hms4hmt4hqt4hut4huu4xyt4hyu4x2t4h2t4x2u4h2u4x6u4x+u4x+v4yCv4yCv5CCw5CCx5SCx5iCy5iG06SG06iG16yG26yG27CG27SG37SK37SSw5CWx5Cax5Cmy5Cqy5Cqz5Cuz5Cyz5Cyz5Sy05C205S+05TC05Ta25ja35je35je45ji45jm45kC65kC750G65kK75ka96FLB6VPB6VbC6VrE6lvE6lvE61zE6l7F6mLG62PG62PH62TH62TI62bI7GfJ7HTN7YfT74jU74nU75TY8pXY8pXZ8pbZ8pja8prb8p3c857c863h9K3i9K3i9a/h9K/i9K/i9bDi9bHj9brm9rvn9r7n97/o98Do987t+M7u+M/t+M/u+dDu+NDu+dLv+dnx+trx+tvx+uf3++n3/Oz5/e35/e75/e/5/fL6/fP6/fP7/fT7/vX7/vf8/vj8/vj9/vn8/vn9/vr9/v///2NImxMAAAArdFJOUwAEBQUFBiAgISEibW5ub3BwcHBxcXJzi4yOwsPFxuHi4uLi4+Ps7O7u/v5oqSCPAAAACXBIWXMAABcRAAAXEQHKJvM/AAAC0UlEQVRoQ+2a+VPTQBSAV0TwtvVEsOLFpYj2sLEatbGRQ0I5quKN4oGC4IVURQW8FTwB7wNRLsH/0cR5pW7SIWG7m2FKvp+SvDfvm07SzWb3IYWUxatyNorUyXEsnf2vPkJJC9aWFxXCdZoUFpWvsyUrihkrJAku0kcqS0uSHfOkUrjAglJpoXwvVgfhlA3BzBRkq2RxK6Lsq7Sh9BI4YUVJOspi+zPkpysL5cEhO/IQHLDEchgnoR0BgZQAVMCI4RC2x4MAVf5D6/D7Gh91vyej+3GTzw91omgc/K7bA3/IGWjdw0OlcdSOAHdtGNLJ+N3MqW+K2sFXvYJkUt6EdkKtCGqH7/AXyCXl6xEf1IqgcRztg1xSfhzXd3yHXFL6LAfO8/sPcTpeQoSeozZ/C86mSxCh57jogfwIrmaIWA41lkPGoON8wTaczVchQs/ReOIMTvUtiNBzjA4N4wyNQYSeYwKmiiMx3lE7Dn6EXFI+V+s5BOEe5JLSvlc9VVQ7RK6mB5LJeHeag0rjaByit67rJ+RPnl9dF7xQJ4rWIXpCDeGbZIQbDqgHMpkYDpF3O7eS4XRrJrsysRy0sRzGSWQH73Y5yXAZfXY9ofqWMBkt9SFD/0Hvuc5+GBkmT39nnYGxhKt5C/lk9JzSHRMF4S4kk9KmO7bH/476dEj/XfsNckmZPnOGKeQYGxnFGaE/F7188izOMfpzajO+DaxvNRnLARF6jtr8AhwGazJPOh7gtL+ACD3HBEwnhwnvKBPWkPmq15BLiv5aeIC7Huea/g3dNX2R3906COkkDN7x6+5NKHssTU97P5DR++yKkT2WePeKtIpYDjP2vKhjOYyTMA4zeg2ymfdMZKOMYjhmRXEGsjPvYbGj1EzGvThrUhGaz7SnaL+0SOmNSitj2BsVXDlTacBKtq+vYNTjVbFhySxFITNnmSOXQa9armP5XIQQ+guU8GZcBNE4FwAAAABJRU5ErkJggg==;aspect=fixed;" parent="1" vertex="1">
          <mxGeometry x="320" y="680" width="40" height="40" as="geometry" />
        </mxCell>
        <mxCell id="d-gHiXN0EIWmtfIMJueE-23" value="Kaist&#xa;LMS04" style="shape=image;verticalLabelPosition=bottom;labelBackgroundColor=default;verticalAlign=top;imageAspect=0;image=data:image/png,iVBORw0KGgoAAAANSUhEUgAAAGMAAABkCAMAAACl4H4fAAAAAXNSR0IArs4c6QAAAARnQU1BAACxjwv8YQUAAAIKUExURQAAAEC//zOZzDPMzDPM/yuq1SCv3yiv3x+q4B+y6Cat4SGv4yCu4yCw4yCv4SCt4SCv4SCv5CK06yCw5CKy6CKz6SGx5yGw4yGx5CCw4iGv4iGv4iCv5CCv4yGx5SGx5SGx5iGy5iGy5yGz5iKz5yGv4yGw5CCv4yCw4yCw4yCw5ACj3wOk4Amn4A6o4Q6p4RCp4RGp4RGq4RSr4har4his4hms4hmt4hqt4hut4huu4xyt4hyu4x2t4h2t4x2u4h2u4x6u4x+u4x+v4yCv4yCv5CCw5CCx5SCx5iCy5iG06SG06iG16yG26yG27CG27SG37SK37SSw5CWx5Cax5Cmy5Cqy5Cqz5Cuz5Cyz5Cyz5Sy05C205S+05TC05Ta25ja35je35je45ji45jm45kC65kC750G65kK75ka96FLB6VPB6VbC6VrE6lvE6lvE61zE6l7F6mLG62PG62PH62TH62TI62bI7GfJ7HTN7YfT74jU74nU75TY8pXY8pXZ8pbZ8pja8prb8p3c857c863h9K3i9K3i9a/h9K/i9K/i9bDi9bHj9brm9rvn9r7n97/o98Do987t+M7u+M/t+M/u+dDu+NDu+dLv+dnx+trx+tvx+uf3++n3/Oz5/e35/e75/e/5/fL6/fP6/fP7/fT7/vX7/vf8/vj8/vj9/vn8/vn9/vr9/v///2NImxMAAAArdFJOUwAEBQUFBiAgISEibW5ub3BwcHBxcXJzi4yOwsPFxuHi4uLi4+Ps7O7u/v5oqSCPAAAACXBIWXMAABcRAAAXEQHKJvM/AAAC0UlEQVRoQ+2a+VPTQBSAV0TwtvVEsOLFpYj2sLEatbGRQ0I5quKN4oGC4IVURQW8FTwB7wNRLsH/0cR5pW7SIWG7m2FKvp+SvDfvm07SzWb3IYWUxatyNorUyXEsnf2vPkJJC9aWFxXCdZoUFpWvsyUrihkrJAku0kcqS0uSHfOkUrjAglJpoXwvVgfhlA3BzBRkq2RxK6Lsq7Sh9BI4YUVJOspi+zPkpysL5cEhO/IQHLDEchgnoR0BgZQAVMCI4RC2x4MAVf5D6/D7Gh91vyej+3GTzw91omgc/K7bA3/IGWjdw0OlcdSOAHdtGNLJ+N3MqW+K2sFXvYJkUt6EdkKtCGqH7/AXyCXl6xEf1IqgcRztg1xSfhzXd3yHXFL6LAfO8/sPcTpeQoSeozZ/C86mSxCh57jogfwIrmaIWA41lkPGoON8wTaczVchQs/ReOIMTvUtiNBzjA4N4wyNQYSeYwKmiiMx3lE7Dn6EXFI+V+s5BOEe5JLSvlc9VVQ7RK6mB5LJeHeag0rjaByit67rJ+RPnl9dF7xQJ4rWIXpCDeGbZIQbDqgHMpkYDpF3O7eS4XRrJrsysRy0sRzGSWQH73Y5yXAZfXY9ofqWMBkt9SFD/0Hvuc5+GBkmT39nnYGxhKt5C/lk9JzSHRMF4S4kk9KmO7bH/476dEj/XfsNckmZPnOGKeQYGxnFGaE/F7188izOMfpzajO+DaxvNRnLARF6jtr8AhwGazJPOh7gtL+ACD3HBEwnhwnvKBPWkPmq15BLiv5aeIC7Huea/g3dNX2R3906COkkDN7x6+5NKHssTU97P5DR++yKkT2WePeKtIpYDjP2vKhjOYyTMA4zeg2ymfdMZKOMYjhmRXEGsjPvYbGj1EzGvThrUhGaz7SnaL+0SOmNSitj2BsVXDlTacBKtq+vYNTjVbFhySxFITNnmSOXQa9armP5XIQQ+guU8GZcBNE4FwAAAABJRU5ErkJggg==;aspect=fixed;" parent="1" vertex="1">
          <mxGeometry x="400" y="680" width="40" height="40" as="geometry" />
        </mxCell>
        <mxCell id="d-gHiXN0EIWmtfIMJueE-24" value="Kaist&#xa;LMS05" style="shape=image;verticalLabelPosition=bottom;labelBackgroundColor=default;verticalAlign=top;imageAspect=0;image=data:image/png,iVBORw0KGgoAAAANSUhEUgAAAGMAAABkCAMAAACl4H4fAAAAAXNSR0IArs4c6QAAAARnQU1BAACxjwv8YQUAAAIKUExURQAAAEC//zOZzDPMzDPM/yuq1SCv3yiv3x+q4B+y6Cat4SGv4yCu4yCw4yCv4SCt4SCv4SCv5CK06yCw5CKy6CKz6SGx5yGw4yGx5CCw4iGv4iGv4iCv5CCv4yGx5SGx5SGx5iGy5iGy5yGz5iKz5yGv4yGw5CCv4yCw4yCw4yCw5ACj3wOk4Amn4A6o4Q6p4RCp4RGp4RGq4RSr4har4his4hms4hmt4hqt4hut4huu4xyt4hyu4x2t4h2t4x2u4h2u4x6u4x+u4x+v4yCv4yCv5CCw5CCx5SCx5iCy5iG06SG06iG16yG26yG27CG27SG37SK37SSw5CWx5Cax5Cmy5Cqy5Cqz5Cuz5Cyz5Cyz5Sy05C205S+05TC05Ta25ja35je35je45ji45jm45kC65kC750G65kK75ka96FLB6VPB6VbC6VrE6lvE6lvE61zE6l7F6mLG62PG62PH62TH62TI62bI7GfJ7HTN7YfT74jU74nU75TY8pXY8pXZ8pbZ8pja8prb8p3c857c863h9K3i9K3i9a/h9K/i9K/i9bDi9bHj9brm9rvn9r7n97/o98Do987t+M7u+M/t+M/u+dDu+NDu+dLv+dnx+trx+tvx+uf3++n3/Oz5/e35/e75/e/5/fL6/fP6/fP7/fT7/vX7/vf8/vj8/vj9/vn8/vn9/vr9/v///2NImxMAAAArdFJOUwAEBQUFBiAgISEibW5ub3BwcHBxcXJzi4yOwsPFxuHi4uLi4+Ps7O7u/v5oqSCPAAAACXBIWXMAABcRAAAXEQHKJvM/AAAC0UlEQVRoQ+2a+VPTQBSAV0TwtvVEsOLFpYj2sLEatbGRQ0I5quKN4oGC4IVURQW8FTwB7wNRLsH/0cR5pW7SIWG7m2FKvp+SvDfvm07SzWb3IYWUxatyNorUyXEsnf2vPkJJC9aWFxXCdZoUFpWvsyUrihkrJAku0kcqS0uSHfOkUrjAglJpoXwvVgfhlA3BzBRkq2RxK6Lsq7Sh9BI4YUVJOspi+zPkpysL5cEhO/IQHLDEchgnoR0BgZQAVMCI4RC2x4MAVf5D6/D7Gh91vyej+3GTzw91omgc/K7bA3/IGWjdw0OlcdSOAHdtGNLJ+N3MqW+K2sFXvYJkUt6EdkKtCGqH7/AXyCXl6xEf1IqgcRztg1xSfhzXd3yHXFL6LAfO8/sPcTpeQoSeozZ/C86mSxCh57jogfwIrmaIWA41lkPGoON8wTaczVchQs/ReOIMTvUtiNBzjA4N4wyNQYSeYwKmiiMx3lE7Dn6EXFI+V+s5BOEe5JLSvlc9VVQ7RK6mB5LJeHeag0rjaByit67rJ+RPnl9dF7xQJ4rWIXpCDeGbZIQbDqgHMpkYDpF3O7eS4XRrJrsysRy0sRzGSWQH73Y5yXAZfXY9ofqWMBkt9SFD/0Hvuc5+GBkmT39nnYGxhKt5C/lk9JzSHRMF4S4kk9KmO7bH/476dEj/XfsNckmZPnOGKeQYGxnFGaE/F7188izOMfpzajO+DaxvNRnLARF6jtr8AhwGazJPOh7gtL+ACD3HBEwnhwnvKBPWkPmq15BLiv5aeIC7Huea/g3dNX2R3906COkkDN7x6+5NKHssTU97P5DR++yKkT2WePeKtIpYDjP2vKhjOYyTMA4zeg2ymfdMZKOMYjhmRXEGsjPvYbGj1EzGvThrUhGaz7SnaL+0SOmNSitj2BsVXDlTacBKtq+vYNTjVbFhySxFITNnmSOXQa9armP5XIQQ+guU8GZcBNE4FwAAAABJRU5ErkJggg==;aspect=fixed;" parent="1" vertex="1">
          <mxGeometry x="480" y="680" width="40" height="40" as="geometry" />
        </mxCell>
        <mxCell id="d-gHiXN0EIWmtfIMJueE-25" value="Kaist&#xa;TRSC-001" style="shape=image;verticalLabelPosition=bottom;labelBackgroundColor=default;verticalAlign=top;imageAspect=0;image=data:image/png,iVBORw0KGgoAAAANSUhEUgAAAGMAAABkCAMAAACl4H4fAAAAAXNSR0IArs4c6QAAAARnQU1BAACxjwv8YQUAAAIKUExURQAAAEC//zOZzDPMzDPM/yuq1SCv3yiv3x+q4B+y6Cat4SGv4yCu4yCw4yCv4SCt4SCv4SCv5CK06yCw5CKy6CKz6SGx5yGw4yGx5CCw4iGv4iGv4iCv5CCv4yGx5SGx5SGx5iGy5iGy5yGz5iKz5yGv4yGw5CCv4yCw4yCw4yCw5ACj3wOk4Amn4A6o4Q6p4RCp4RGp4RGq4RSr4har4his4hms4hmt4hqt4hut4huu4xyt4hyu4x2t4h2t4x2u4h2u4x6u4x+u4x+v4yCv4yCv5CCw5CCx5SCx5iCy5iG06SG06iG16yG26yG27CG27SG37SK37SSw5CWx5Cax5Cmy5Cqy5Cqz5Cuz5Cyz5Cyz5Sy05C205S+05TC05Ta25ja35je35je45ji45jm45kC65kC750G65kK75ka96FLB6VPB6VbC6VrE6lvE6lvE61zE6l7F6mLG62PG62PH62TH62TI62bI7GfJ7HTN7YfT74jU74nU75TY8pXY8pXZ8pbZ8pja8prb8p3c857c863h9K3i9K3i9a/h9K/i9K/i9bDi9bHj9brm9rvn9r7n97/o98Do987t+M7u+M/t+M/u+dDu+NDu+dLv+dnx+trx+tvx+uf3++n3/Oz5/e35/e75/e/5/fL6/fP6/fP7/fT7/vX7/vf8/vj8/vj9/vn8/vn9/vr9/v///2NImxMAAAArdFJOUwAEBQUFBiAgISEibW5ub3BwcHBxcXJzi4yOwsPFxuHi4uLi4+Ps7O7u/v5oqSCPAAAACXBIWXMAABcRAAAXEQHKJvM/AAAC0UlEQVRoQ+2a+VPTQBSAV0TwtvVEsOLFpYj2sLEatbGRQ0I5quKN4oGC4IVURQW8FTwB7wNRLsH/0cR5pW7SIWG7m2FKvp+SvDfvm07SzWb3IYWUxatyNorUyXEsnf2vPkJJC9aWFxXCdZoUFpWvsyUrihkrJAku0kcqS0uSHfOkUrjAglJpoXwvVgfhlA3BzBRkq2RxK6Lsq7Sh9BI4YUVJOspi+zPkpysL5cEhO/IQHLDEchgnoR0BgZQAVMCI4RC2x4MAVf5D6/D7Gh91vyej+3GTzw91omgc/K7bA3/IGWjdw0OlcdSOAHdtGNLJ+N3MqW+K2sFXvYJkUt6EdkKtCGqH7/AXyCXl6xEf1IqgcRztg1xSfhzXd3yHXFL6LAfO8/sPcTpeQoSeozZ/C86mSxCh57jogfwIrmaIWA41lkPGoON8wTaczVchQs/ReOIMTvUtiNBzjA4N4wyNQYSeYwKmiiMx3lE7Dn6EXFI+V+s5BOEe5JLSvlc9VVQ7RK6mB5LJeHeag0rjaByit67rJ+RPnl9dF7xQJ4rWIXpCDeGbZIQbDqgHMpkYDpF3O7eS4XRrJrsysRy0sRzGSWQH73Y5yXAZfXY9ofqWMBkt9SFD/0Hvuc5+GBkmT39nnYGxhKt5C/lk9JzSHRMF4S4kk9KmO7bH/476dEj/XfsNckmZPnOGKeQYGxnFGaE/F7188izOMfpzajO+DaxvNRnLARF6jtr8AhwGazJPOh7gtL+ACD3HBEwnhwnvKBPWkPmq15BLiv5aeIC7Huea/g3dNX2R3906COkkDN7x6+5NKHssTU97P5DR++yKkT2WePeKtIpYDjP2vKhjOYyTMA4zeg2ymfdMZKOMYjhmRXEGsjPvYbGj1EzGvThrUhGaz7SnaL+0SOmNSitj2BsVXDlTacBKtq+vYNTjVbFhySxFITNnmSOXQa9armP5XIQQ+guU8GZcBNE4FwAAAABJRU5ErkJggg==;aspect=fixed;" parent="1" vertex="1">
          <mxGeometry x="600" y="680" width="40" height="40" as="geometry" />
        </mxCell>
        <mxCell id="d-gHiXN0EIWmtfIMJueE-27" value="Kaist&#xa;TRSC-002" style="shape=image;verticalLabelPosition=bottom;labelBackgroundColor=default;verticalAlign=top;imageAspect=0;image=data:image/png,iVBORw0KGgoAAAANSUhEUgAAAGMAAABkCAMAAACl4H4fAAAAAXNSR0IArs4c6QAAAARnQU1BAACxjwv8YQUAAAIKUExURQAAAEC//zOZzDPMzDPM/yuq1SCv3yiv3x+q4B+y6Cat4SGv4yCu4yCw4yCv4SCt4SCv4SCv5CK06yCw5CKy6CKz6SGx5yGw4yGx5CCw4iGv4iGv4iCv5CCv4yGx5SGx5SGx5iGy5iGy5yGz5iKz5yGv4yGw5CCv4yCw4yCw4yCw5ACj3wOk4Amn4A6o4Q6p4RCp4RGp4RGq4RSr4har4his4hms4hmt4hqt4hut4huu4xyt4hyu4x2t4h2t4x2u4h2u4x6u4x+u4x+v4yCv4yCv5CCw5CCx5SCx5iCy5iG06SG06iG16yG26yG27CG27SG37SK37SSw5CWx5Cax5Cmy5Cqy5Cqz5Cuz5Cyz5Cyz5Sy05C205S+05TC05Ta25ja35je35je45ji45jm45kC65kC750G65kK75ka96FLB6VPB6VbC6VrE6lvE6lvE61zE6l7F6mLG62PG62PH62TH62TI62bI7GfJ7HTN7YfT74jU74nU75TY8pXY8pXZ8pbZ8pja8prb8p3c857c863h9K3i9K3i9a/h9K/i9K/i9bDi9bHj9brm9rvn9r7n97/o98Do987t+M7u+M/t+M/u+dDu+NDu+dLv+dnx+trx+tvx+uf3++n3/Oz5/e35/e75/e/5/fL6/fP6/fP7/fT7/vX7/vf8/vj8/vj9/vn8/vn9/vr9/v///2NImxMAAAArdFJOUwAEBQUFBiAgISEibW5ub3BwcHBxcXJzi4yOwsPFxuHi4uLi4+Ps7O7u/v5oqSCPAAAACXBIWXMAABcRAAAXEQHKJvM/AAAC0UlEQVRoQ+2a+VPTQBSAV0TwtvVEsOLFpYj2sLEatbGRQ0I5quKN4oGC4IVURQW8FTwB7wNRLsH/0cR5pW7SIWG7m2FKvp+SvDfvm07SzWb3IYWUxatyNorUyXEsnf2vPkJJC9aWFxXCdZoUFpWvsyUrihkrJAku0kcqS0uSHfOkUrjAglJpoXwvVgfhlA3BzBRkq2RxK6Lsq7Sh9BI4YUVJOspi+zPkpysL5cEhO/IQHLDEchgnoR0BgZQAVMCI4RC2x4MAVf5D6/D7Gh91vyej+3GTzw91omgc/K7bA3/IGWjdw0OlcdSOAHdtGNLJ+N3MqW+K2sFXvYJkUt6EdkKtCGqH7/AXyCXl6xEf1IqgcRztg1xSfhzXd3yHXFL6LAfO8/sPcTpeQoSeozZ/C86mSxCh57jogfwIrmaIWA41lkPGoON8wTaczVchQs/ReOIMTvUtiNBzjA4N4wyNQYSeYwKmiiMx3lE7Dn6EXFI+V+s5BOEe5JLSvlc9VVQ7RK6mB5LJeHeag0rjaByit67rJ+RPnl9dF7xQJ4rWIXpCDeGbZIQbDqgHMpkYDpF3O7eS4XRrJrsysRy0sRzGSWQH73Y5yXAZfXY9ofqWMBkt9SFD/0Hvuc5+GBkmT39nnYGxhKt5C/lk9JzSHRMF4S4kk9KmO7bH/476dEj/XfsNckmZPnOGKeQYGxnFGaE/F7188izOMfpzajO+DaxvNRnLARF6jtr8AhwGazJPOh7gtL+ACD3HBEwnhwnvKBPWkPmq15BLiv5aeIC7Huea/g3dNX2R3906COkkDN7x6+5NKHssTU97P5DR++yKkT2WePeKtIpYDjP2vKhjOYyTMA4zeg2ymfdMZKOMYjhmRXEGsjPvYbGj1EzGvThrUhGaz7SnaL+0SOmNSitj2BsVXDlTacBKtq+vYNTjVbFhySxFITNnmSOXQa9armP5XIQQ+guU8GZcBNE4FwAAAABJRU5ErkJggg==;aspect=fixed;" parent="1" vertex="1">
          <mxGeometry x="680" y="680" width="40" height="40" as="geometry" />
        </mxCell>
        <mxCell id="d-gHiXN0EIWmtfIMJueE-28" value="Kaist&#xa;TRSC-003" style="shape=image;verticalLabelPosition=bottom;labelBackgroundColor=default;verticalAlign=top;imageAspect=0;image=data:image/png,iVBORw0KGgoAAAANSUhEUgAAAGMAAABkCAMAAACl4H4fAAAAAXNSR0IArs4c6QAAAARnQU1BAACxjwv8YQUAAAIKUExURQAAAEC//zOZzDPMzDPM/yuq1SCv3yiv3x+q4B+y6Cat4SGv4yCu4yCw4yCv4SCt4SCv4SCv5CK06yCw5CKy6CKz6SGx5yGw4yGx5CCw4iGv4iGv4iCv5CCv4yGx5SGx5SGx5iGy5iGy5yGz5iKz5yGv4yGw5CCv4yCw4yCw4yCw5ACj3wOk4Amn4A6o4Q6p4RCp4RGp4RGq4RSr4har4his4hms4hmt4hqt4hut4huu4xyt4hyu4x2t4h2t4x2u4h2u4x6u4x+u4x+v4yCv4yCv5CCw5CCx5SCx5iCy5iG06SG06iG16yG26yG27CG27SG37SK37SSw5CWx5Cax5Cmy5Cqy5Cqz5Cuz5Cyz5Cyz5Sy05C205S+05TC05Ta25ja35je35je45ji45jm45kC65kC750G65kK75ka96FLB6VPB6VbC6VrE6lvE6lvE61zE6l7F6mLG62PG62PH62TH62TI62bI7GfJ7HTN7YfT74jU74nU75TY8pXY8pXZ8pbZ8pja8prb8p3c857c863h9K3i9K3i9a/h9K/i9K/i9bDi9bHj9brm9rvn9r7n97/o98Do987t+M7u+M/t+M/u+dDu+NDu+dLv+dnx+trx+tvx+uf3++n3/Oz5/e35/e75/e/5/fL6/fP6/fP7/fT7/vX7/vf8/vj8/vj9/vn8/vn9/vr9/v///2NImxMAAAArdFJOUwAEBQUFBiAgISEibW5ub3BwcHBxcXJzi4yOwsPFxuHi4uLi4+Ps7O7u/v5oqSCPAAAACXBIWXMAABcRAAAXEQHKJvM/AAAC0UlEQVRoQ+2a+VPTQBSAV0TwtvVEsOLFpYj2sLEatbGRQ0I5quKN4oGC4IVURQW8FTwB7wNRLsH/0cR5pW7SIWG7m2FKvp+SvDfvm07SzWb3IYWUxatyNorUyXEsnf2vPkJJC9aWFxXCdZoUFpWvsyUrihkrJAku0kcqS0uSHfOkUrjAglJpoXwvVgfhlA3BzBRkq2RxK6Lsq7Sh9BI4YUVJOspi+zPkpysL5cEhO/IQHLDEchgnoR0BgZQAVMCI4RC2x4MAVf5D6/D7Gh91vyej+3GTzw91omgc/K7bA3/IGWjdw0OlcdSOAHdtGNLJ+N3MqW+K2sFXvYJkUt6EdkKtCGqH7/AXyCXl6xEf1IqgcRztg1xSfhzXd3yHXFL6LAfO8/sPcTpeQoSeozZ/C86mSxCh57jogfwIrmaIWA41lkPGoON8wTaczVchQs/ReOIMTvUtiNBzjA4N4wyNQYSeYwKmiiMx3lE7Dn6EXFI+V+s5BOEe5JLSvlc9VVQ7RK6mB5LJeHeag0rjaByit67rJ+RPnl9dF7xQJ4rWIXpCDeGbZIQbDqgHMpkYDpF3O7eS4XRrJrsysRy0sRzGSWQH73Y5yXAZfXY9ofqWMBkt9SFD/0Hvuc5+GBkmT39nnYGxhKt5C/lk9JzSHRMF4S4kk9KmO7bH/476dEj/XfsNckmZPnOGKeQYGxnFGaE/F7188izOMfpzajO+DaxvNRnLARF6jtr8AhwGazJPOh7gtL+ACD3HBEwnhwnvKBPWkPmq15BLiv5aeIC7Huea/g3dNX2R3906COkkDN7x6+5NKHssTU97P5DR++yKkT2WePeKtIpYDjP2vKhjOYyTMA4zeg2ymfdMZKOMYjhmRXEGsjPvYbGj1EzGvThrUhGaz7SnaL+0SOmNSitj2BsVXDlTacBKtq+vYNTjVbFhySxFITNnmSOXQa9armP5XIQQ+guU8GZcBNE4FwAAAABJRU5ErkJggg==;aspect=fixed;" parent="1" vertex="1">
          <mxGeometry x="760" y="680" width="40" height="40" as="geometry" />
        </mxCell>
        <mxCell id="d-gHiXN0EIWmtfIMJueE-29" value="Kaist&#xa;TRSC-004" style="shape=image;verticalLabelPosition=bottom;labelBackgroundColor=default;verticalAlign=top;imageAspect=0;image=data:image/png,iVBORw0KGgoAAAANSUhEUgAAAGMAAABkCAMAAACl4H4fAAAAAXNSR0IArs4c6QAAAARnQU1BAACxjwv8YQUAAAIKUExURQAAAEC//zOZzDPMzDPM/yuq1SCv3yiv3x+q4B+y6Cat4SGv4yCu4yCw4yCv4SCt4SCv4SCv5CK06yCw5CKy6CKz6SGx5yGw4yGx5CCw4iGv4iGv4iCv5CCv4yGx5SGx5SGx5iGy5iGy5yGz5iKz5yGv4yGw5CCv4yCw4yCw4yCw5ACj3wOk4Amn4A6o4Q6p4RCp4RGp4RGq4RSr4har4his4hms4hmt4hqt4hut4huu4xyt4hyu4x2t4h2t4x2u4h2u4x6u4x+u4x+v4yCv4yCv5CCw5CCx5SCx5iCy5iG06SG06iG16yG26yG27CG27SG37SK37SSw5CWx5Cax5Cmy5Cqy5Cqz5Cuz5Cyz5Cyz5Sy05C205S+05TC05Ta25ja35je35je45ji45jm45kC65kC750G65kK75ka96FLB6VPB6VbC6VrE6lvE6lvE61zE6l7F6mLG62PG62PH62TH62TI62bI7GfJ7HTN7YfT74jU74nU75TY8pXY8pXZ8pbZ8pja8prb8p3c857c863h9K3i9K3i9a/h9K/i9K/i9bDi9bHj9brm9rvn9r7n97/o98Do987t+M7u+M/t+M/u+dDu+NDu+dLv+dnx+trx+tvx+uf3++n3/Oz5/e35/e75/e/5/fL6/fP6/fP7/fT7/vX7/vf8/vj8/vj9/vn8/vn9/vr9/v///2NImxMAAAArdFJOUwAEBQUFBiAgISEibW5ub3BwcHBxcXJzi4yOwsPFxuHi4uLi4+Ps7O7u/v5oqSCPAAAACXBIWXMAABcRAAAXEQHKJvM/AAAC0UlEQVRoQ+2a+VPTQBSAV0TwtvVEsOLFpYj2sLEatbGRQ0I5quKN4oGC4IVURQW8FTwB7wNRLsH/0cR5pW7SIWG7m2FKvp+SvDfvm07SzWb3IYWUxatyNorUyXEsnf2vPkJJC9aWFxXCdZoUFpWvsyUrihkrJAku0kcqS0uSHfOkUrjAglJpoXwvVgfhlA3BzBRkq2RxK6Lsq7Sh9BI4YUVJOspi+zPkpysL5cEhO/IQHLDEchgnoR0BgZQAVMCI4RC2x4MAVf5D6/D7Gh91vyej+3GTzw91omgc/K7bA3/IGWjdw0OlcdSOAHdtGNLJ+N3MqW+K2sFXvYJkUt6EdkKtCGqH7/AXyCXl6xEf1IqgcRztg1xSfhzXd3yHXFL6LAfO8/sPcTpeQoSeozZ/C86mSxCh57jogfwIrmaIWA41lkPGoON8wTaczVchQs/ReOIMTvUtiNBzjA4N4wyNQYSeYwKmiiMx3lE7Dn6EXFI+V+s5BOEe5JLSvlc9VVQ7RK6mB5LJeHeag0rjaByit67rJ+RPnl9dF7xQJ4rWIXpCDeGbZIQbDqgHMpkYDpF3O7eS4XRrJrsysRy0sRzGSWQH73Y5yXAZfXY9ofqWMBkt9SFD/0Hvuc5+GBkmT39nnYGxhKt5C/lk9JzSHRMF4S4kk9KmO7bH/476dEj/XfsNckmZPnOGKeQYGxnFGaE/F7188izOMfpzajO+DaxvNRnLARF6jtr8AhwGazJPOh7gtL+ACD3HBEwnhwnvKBPWkPmq15BLiv5aeIC7Huea/g3dNX2R3906COkkDN7x6+5NKHssTU97P5DR++yKkT2WePeKtIpYDjP2vKhjOYyTMA4zeg2ymfdMZKOMYjhmRXEGsjPvYbGj1EzGvThrUhGaz7SnaL+0SOmNSitj2BsVXDlTacBKtq+vYNTjVbFhySxFITNnmSOXQa9armP5XIQQ+guU8GZcBNE4FwAAAABJRU5ErkJggg==;aspect=fixed;" parent="1" vertex="1">
          <mxGeometry x="840" y="680" width="40" height="40" as="geometry" />
        </mxCell>
        <mxCell id="d-gHiXN0EIWmtfIMJueE-30" value="Kaist&#xa;Homepage01" style="shape=image;verticalLabelPosition=bottom;labelBackgroundColor=default;verticalAlign=top;imageAspect=0;image=data:image/png,iVBORw0KGgoAAAANSUhEUgAAAGMAAABkCAMAAACl4H4fAAAAAXNSR0IArs4c6QAAAARnQU1BAACxjwv8YQUAAAIKUExURQAAAEC//zOZzDPMzDPM/yuq1SCv3yiv3x+q4B+y6Cat4SGv4yCu4yCw4yCv4SCt4SCv4SCv5CK06yCw5CKy6CKz6SGx5yGw4yGx5CCw4iGv4iGv4iCv5CCv4yGx5SGx5SGx5iGy5iGy5yGz5iKz5yGv4yGw5CCv4yCw4yCw4yCw5ACj3wOk4Amn4A6o4Q6p4RCp4RGp4RGq4RSr4har4his4hms4hmt4hqt4hut4huu4xyt4hyu4x2t4h2t4x2u4h2u4x6u4x+u4x+v4yCv4yCv5CCw5CCx5SCx5iCy5iG06SG06iG16yG26yG27CG27SG37SK37SSw5CWx5Cax5Cmy5Cqy5Cqz5Cuz5Cyz5Cyz5Sy05C205S+05TC05Ta25ja35je35je45ji45jm45kC65kC750G65kK75ka96FLB6VPB6VbC6VrE6lvE6lvE61zE6l7F6mLG62PG62PH62TH62TI62bI7GfJ7HTN7YfT74jU74nU75TY8pXY8pXZ8pbZ8pja8prb8p3c857c863h9K3i9K3i9a/h9K/i9K/i9bDi9bHj9brm9rvn9r7n97/o98Do987t+M7u+M/t+M/u+dDu+NDu+dLv+dnx+trx+tvx+uf3++n3/Oz5/e35/e75/e/5/fL6/fP6/fP7/fT7/vX7/vf8/vj8/vj9/vn8/vn9/vr9/v///2NImxMAAAArdFJOUwAEBQUFBiAgISEibW5ub3BwcHBxcXJzi4yOwsPFxuHi4uLi4+Ps7O7u/v5oqSCPAAAACXBIWXMAABcRAAAXEQHKJvM/AAAC0UlEQVRoQ+2a+VPTQBSAV0TwtvVEsOLFpYj2sLEatbGRQ0I5quKN4oGC4IVURQW8FTwB7wNRLsH/0cR5pW7SIWG7m2FKvp+SvDfvm07SzWb3IYWUxatyNorUyXEsnf2vPkJJC9aWFxXCdZoUFpWvsyUrihkrJAku0kcqS0uSHfOkUrjAglJpoXwvVgfhlA3BzBRkq2RxK6Lsq7Sh9BI4YUVJOspi+zPkpysL5cEhO/IQHLDEchgnoR0BgZQAVMCI4RC2x4MAVf5D6/D7Gh91vyej+3GTzw91omgc/K7bA3/IGWjdw0OlcdSOAHdtGNLJ+N3MqW+K2sFXvYJkUt6EdkKtCGqH7/AXyCXl6xEf1IqgcRztg1xSfhzXd3yHXFL6LAfO8/sPcTpeQoSeozZ/C86mSxCh57jogfwIrmaIWA41lkPGoON8wTaczVchQs/ReOIMTvUtiNBzjA4N4wyNQYSeYwKmiiMx3lE7Dn6EXFI+V+s5BOEe5JLSvlc9VVQ7RK6mB5LJeHeag0rjaByit67rJ+RPnl9dF7xQJ4rWIXpCDeGbZIQbDqgHMpkYDpF3O7eS4XRrJrsysRy0sRzGSWQH73Y5yXAZfXY9ofqWMBkt9SFD/0Hvuc5+GBkmT39nnYGxhKt5C/lk9JzSHRMF4S4kk9KmO7bH/476dEj/XfsNckmZPnOGKeQYGxnFGaE/F7188izOMfpzajO+DaxvNRnLARF6jtr8AhwGazJPOh7gtL+ACD3HBEwnhwnvKBPWkPmq15BLiv5aeIC7Huea/g3dNX2R3906COkkDN7x6+5NKHssTU97P5DR++yKkT2WePeKtIpYDjP2vKhjOYyTMA4zeg2ymfdMZKOMYjhmRXEGsjPvYbGj1EzGvThrUhGaz7SnaL+0SOmNSitj2BsVXDlTacBKtq+vYNTjVbFhySxFITNnmSOXQa9armP5XIQQ+guU8GZcBNE4FwAAAABJRU5ErkJggg==;aspect=fixed;" parent="1" vertex="1">
          <mxGeometry x="1000" y="680" width="40" height="40" as="geometry" />
        </mxCell>
        <mxCell id="d-gHiXN0EIWmtfIMJueE-31" value="Kaist&#xa;Homepage02" style="shape=image;verticalLabelPosition=bottom;labelBackgroundColor=default;verticalAlign=top;imageAspect=0;image=data:image/png,iVBORw0KGgoAAAANSUhEUgAAAGMAAABkCAMAAACl4H4fAAAAAXNSR0IArs4c6QAAAARnQU1BAACxjwv8YQUAAAIKUExURQAAAEC//zOZzDPMzDPM/yuq1SCv3yiv3x+q4B+y6Cat4SGv4yCu4yCw4yCv4SCt4SCv4SCv5CK06yCw5CKy6CKz6SGx5yGw4yGx5CCw4iGv4iGv4iCv5CCv4yGx5SGx5SGx5iGy5iGy5yGz5iKz5yGv4yGw5CCv4yCw4yCw4yCw5ACj3wOk4Amn4A6o4Q6p4RCp4RGp4RGq4RSr4har4his4hms4hmt4hqt4hut4huu4xyt4hyu4x2t4h2t4x2u4h2u4x6u4x+u4x+v4yCv4yCv5CCw5CCx5SCx5iCy5iG06SG06iG16yG26yG27CG27SG37SK37SSw5CWx5Cax5Cmy5Cqy5Cqz5Cuz5Cyz5Cyz5Sy05C205S+05TC05Ta25ja35je35je45ji45jm45kC65kC750G65kK75ka96FLB6VPB6VbC6VrE6lvE6lvE61zE6l7F6mLG62PG62PH62TH62TI62bI7GfJ7HTN7YfT74jU74nU75TY8pXY8pXZ8pbZ8pja8prb8p3c857c863h9K3i9K3i9a/h9K/i9K/i9bDi9bHj9brm9rvn9r7n97/o98Do987t+M7u+M/t+M/u+dDu+NDu+dLv+dnx+trx+tvx+uf3++n3/Oz5/e35/e75/e/5/fL6/fP6/fP7/fT7/vX7/vf8/vj8/vj9/vn8/vn9/vr9/v///2NImxMAAAArdFJOUwAEBQUFBiAgISEibW5ub3BwcHBxcXJzi4yOwsPFxuHi4uLi4+Ps7O7u/v5oqSCPAAAACXBIWXMAABcRAAAXEQHKJvM/AAAC0UlEQVRoQ+2a+VPTQBSAV0TwtvVEsOLFpYj2sLEatbGRQ0I5quKN4oGC4IVURQW8FTwB7wNRLsH/0cR5pW7SIWG7m2FKvp+SvDfvm07SzWb3IYWUxatyNorUyXEsnf2vPkJJC9aWFxXCdZoUFpWvsyUrihkrJAku0kcqS0uSHfOkUrjAglJpoXwvVgfhlA3BzBRkq2RxK6Lsq7Sh9BI4YUVJOspi+zPkpysL5cEhO/IQHLDEchgnoR0BgZQAVMCI4RC2x4MAVf5D6/D7Gh91vyej+3GTzw91omgc/K7bA3/IGWjdw0OlcdSOAHdtGNLJ+N3MqW+K2sFXvYJkUt6EdkKtCGqH7/AXyCXl6xEf1IqgcRztg1xSfhzXd3yHXFL6LAfO8/sPcTpeQoSeozZ/C86mSxCh57jogfwIrmaIWA41lkPGoON8wTaczVchQs/ReOIMTvUtiNBzjA4N4wyNQYSeYwKmiiMx3lE7Dn6EXFI+V+s5BOEe5JLSvlc9VVQ7RK6mB5LJeHeag0rjaByit67rJ+RPnl9dF7xQJ4rWIXpCDeGbZIQbDqgHMpkYDpF3O7eS4XRrJrsysRy0sRzGSWQH73Y5yXAZfXY9ofqWMBkt9SFD/0Hvuc5+GBkmT39nnYGxhKt5C/lk9JzSHRMF4S4kk9KmO7bH/476dEj/XfsNckmZPnOGKeQYGxnFGaE/F7188izOMfpzajO+DaxvNRnLARF6jtr8AhwGazJPOh7gtL+ACD3HBEwnhwnvKBPWkPmq15BLiv5aeIC7Huea/g3dNX2R3906COkkDN7x6+5NKHssTU97P5DR++yKkT2WePeKtIpYDjP2vKhjOYyTMA4zeg2ymfdMZKOMYjhmRXEGsjPvYbGj1EzGvThrUhGaz7SnaL+0SOmNSitj2BsVXDlTacBKtq+vYNTjVbFhySxFITNnmSOXQa9armP5XIQQ+guU8GZcBNE4FwAAAABJRU5ErkJggg==;aspect=fixed;" parent="1" vertex="1">
          <mxGeometry x="1080" y="680" width="40" height="40" as="geometry" />
        </mxCell>
        <mxCell id="d-gHiXN0EIWmtfIMJueE-32" value="" style="endArrow=none;html=1;rounded=0;exitX=0.5;exitY=0;exitDx=0;exitDy=0;fillColor=#dae8fc;strokeColor=#6c8ebf;strokeWidth=3;" parent="1" source="d-gHiXN0EIWmtfIMJueE-5" edge="1">
          <mxGeometry width="50" height="50" relative="1" as="geometry">
            <mxPoint x="410" y="215.5" as="sourcePoint" />
            <mxPoint x="420" y="200" as="targetPoint" />
          </mxGeometry>
        </mxCell>
        <mxCell id="d-gHiXN0EIWmtfIMJueE-34" value="" style="endArrow=none;html=1;rounded=0;exitX=0.5;exitY=0;exitDx=0;exitDy=0;fillColor=#dae8fc;strokeColor=#6c8ebf;strokeWidth=3;" parent="1" edge="1">
          <mxGeometry width="50" height="50" relative="1" as="geometry">
            <mxPoint x="660" y="240" as="sourcePoint" />
            <mxPoint x="660" y="200" as="targetPoint" />
          </mxGeometry>
        </mxCell>
        <mxCell id="d-gHiXN0EIWmtfIMJueE-36" value="" style="endArrow=none;html=1;rounded=0;exitX=0.5;exitY=0;exitDx=0;exitDy=0;fillColor=#dae8fc;strokeColor=#6c8ebf;strokeWidth=3;" parent="1" edge="1">
          <mxGeometry width="50" height="50" relative="1" as="geometry">
            <mxPoint x="780" y="240" as="sourcePoint" />
            <mxPoint x="780" y="200" as="targetPoint" />
          </mxGeometry>
        </mxCell>
        <mxCell id="d-gHiXN0EIWmtfIMJueE-38" value="" style="endArrow=none;html=1;rounded=0;exitX=0.5;exitY=0;exitDx=0;exitDy=0;fillColor=#dae8fc;strokeColor=#6c8ebf;strokeWidth=3;" parent="1" edge="1">
          <mxGeometry width="50" height="50" relative="1" as="geometry">
            <mxPoint x="900" y="240" as="sourcePoint" />
            <mxPoint x="900" y="200" as="targetPoint" />
          </mxGeometry>
        </mxCell>
        <mxCell id="d-gHiXN0EIWmtfIMJueE-40" value="" style="endArrow=none;html=1;rounded=0;exitX=0.5;exitY=0;exitDx=0;exitDy=0;fillColor=#dae8fc;strokeColor=#6c8ebf;strokeWidth=3;" parent="1" edge="1">
          <mxGeometry width="50" height="50" relative="1" as="geometry">
            <mxPoint x="1020" y="240" as="sourcePoint" />
            <mxPoint x="1020" y="200" as="targetPoint" />
          </mxGeometry>
        </mxCell>
        <mxCell id="d-gHiXN0EIWmtfIMJueE-45" value="" style="endArrow=none;html=1;rounded=0;" parent="1" target="d-gHiXN0EIWmtfIMJueE-44" edge="1">
          <mxGeometry width="50" height="50" relative="1" as="geometry">
            <mxPoint x="420" y="200" as="sourcePoint" />
            <mxPoint x="1020" y="200" as="targetPoint" />
          </mxGeometry>
        </mxCell>
        <mxCell id="d-gHiXN0EIWmtfIMJueE-44" value="" style="line;strokeWidth=2;html=1;fillColor=#dae8fc;strokeColor=#6c8ebf;" parent="1" vertex="1">
          <mxGeometry x="419" y="195" width="741" height="10" as="geometry" />
        </mxCell>
        <mxCell id="d-gHiXN0EIWmtfIMJueE-46" value="" style="line;strokeWidth=2;html=1;fillColor=#dae8fc;strokeColor=#6c8ebf;" parent="1" vertex="1">
          <mxGeometry x="340" y="355" width="820" height="10" as="geometry" />
        </mxCell>
        <mxCell id="d-gHiXN0EIWmtfIMJueE-47" value="" style="line;strokeWidth=2;html=1;fillColor=#dae8fc;strokeColor=#6c8ebf;" parent="1" vertex="1">
          <mxGeometry x="340" y="515.5" width="820" height="10" as="geometry" />
        </mxCell>
        <mxCell id="d-gHiXN0EIWmtfIMJueE-49" value="" style="endArrow=none;html=1;rounded=0;exitX=0.5;exitY=0;exitDx=0;exitDy=0;fillColor=#dae8fc;strokeColor=#6c8ebf;strokeWidth=3;entryX=0;entryY=0.5;entryDx=0;entryDy=0;entryPerimeter=0;" parent="1" source="d-gHiXN0EIWmtfIMJueE-10" target="d-gHiXN0EIWmtfIMJueE-46" edge="1">
          <mxGeometry width="50" height="50" relative="1" as="geometry">
            <mxPoint x="330" y="395" as="sourcePoint" />
            <mxPoint x="330" y="355" as="targetPoint" />
          </mxGeometry>
        </mxCell>
        <mxCell id="d-gHiXN0EIWmtfIMJueE-50" value="" style="endArrow=none;html=1;rounded=0;fillColor=#dae8fc;strokeColor=#6c8ebf;strokeWidth=3;entryX=0;entryY=0.5;entryDx=0;entryDy=0;entryPerimeter=0;" parent="1" edge="1">
          <mxGeometry width="50" height="50" relative="1" as="geometry">
            <mxPoint x="460" y="400" as="sourcePoint" />
            <mxPoint x="460" y="360" as="targetPoint" />
          </mxGeometry>
        </mxCell>
        <mxCell id="d-gHiXN0EIWmtfIMJueE-52" value="" style="endArrow=none;html=1;rounded=0;fillColor=#dae8fc;strokeColor=#6c8ebf;strokeWidth=3;entryX=0;entryY=0.5;entryDx=0;entryDy=0;entryPerimeter=0;" parent="1" edge="1">
          <mxGeometry width="50" height="50" relative="1" as="geometry">
            <mxPoint x="580" y="400" as="sourcePoint" />
            <mxPoint x="580" y="360" as="targetPoint" />
          </mxGeometry>
        </mxCell>
        <mxCell id="d-gHiXN0EIWmtfIMJueE-54" value="" style="endArrow=none;html=1;rounded=0;fillColor=#dae8fc;strokeColor=#6c8ebf;strokeWidth=3;entryX=0;entryY=0.5;entryDx=0;entryDy=0;entryPerimeter=0;" parent="1" edge="1">
          <mxGeometry width="50" height="50" relative="1" as="geometry">
            <mxPoint x="700" y="400" as="sourcePoint" />
            <mxPoint x="700" y="360" as="targetPoint" />
          </mxGeometry>
        </mxCell>
        <mxCell id="d-gHiXN0EIWmtfIMJueE-56" value="" style="endArrow=none;html=1;rounded=0;fillColor=#dae8fc;strokeColor=#6c8ebf;strokeWidth=3;entryX=0;entryY=0.5;entryDx=0;entryDy=0;entryPerimeter=0;" parent="1" edge="1">
          <mxGeometry width="50" height="50" relative="1" as="geometry">
            <mxPoint x="820" y="400" as="sourcePoint" />
            <mxPoint x="820" y="360" as="targetPoint" />
          </mxGeometry>
        </mxCell>
        <mxCell id="d-gHiXN0EIWmtfIMJueE-57" value="" style="endArrow=none;html=1;rounded=0;fillColor=#dae8fc;strokeColor=#6c8ebf;strokeWidth=3;entryX=0;entryY=0.5;entryDx=0;entryDy=0;entryPerimeter=0;" parent="1" edge="1">
          <mxGeometry width="50" height="50" relative="1" as="geometry">
            <mxPoint x="940" y="400" as="sourcePoint" />
            <mxPoint x="940" y="360" as="targetPoint" />
          </mxGeometry>
        </mxCell>
        <mxCell id="d-gHiXN0EIWmtfIMJueE-58" value="" style="endArrow=none;html=1;rounded=0;fillColor=#dae8fc;strokeColor=#6c8ebf;strokeWidth=3;entryX=0;entryY=0.5;entryDx=0;entryDy=0;entryPerimeter=0;" parent="1" edge="1">
          <mxGeometry width="50" height="50" relative="1" as="geometry">
            <mxPoint x="1060" y="400" as="sourcePoint" />
            <mxPoint x="1060" y="360" as="targetPoint" />
          </mxGeometry>
        </mxCell>
        <mxCell id="d-gHiXN0EIWmtfIMJueE-60" value="" style="endArrow=none;html=1;rounded=0;fillColor=#dae8fc;strokeColor=#6c8ebf;strokeWidth=3;entryX=0;entryY=0.5;entryDx=0;entryDy=0;entryPerimeter=0;" parent="1" edge="1">
          <mxGeometry width="50" height="50" relative="1" as="geometry">
            <mxPoint x="340" y="560" as="sourcePoint" />
            <mxPoint x="340" y="520" as="targetPoint" />
          </mxGeometry>
        </mxCell>
        <mxCell id="d-gHiXN0EIWmtfIMJueE-61" value="" style="endArrow=none;html=1;rounded=0;fillColor=#dae8fc;strokeColor=#6c8ebf;strokeWidth=3;entryX=0;entryY=0.5;entryDx=0;entryDy=0;entryPerimeter=0;" parent="1" edge="1">
          <mxGeometry width="50" height="50" relative="1" as="geometry">
            <mxPoint x="740" y="560" as="sourcePoint" />
            <mxPoint x="740" y="520" as="targetPoint" />
          </mxGeometry>
        </mxCell>
        <mxCell id="d-gHiXN0EIWmtfIMJueE-63" value="" style="endArrow=none;html=1;rounded=0;fillColor=#dae8fc;strokeColor=#6c8ebf;strokeWidth=3;entryX=0;entryY=0.5;entryDx=0;entryDy=0;entryPerimeter=0;" parent="1" edge="1">
          <mxGeometry width="50" height="50" relative="1" as="geometry">
            <mxPoint x="1060" y="560" as="sourcePoint" />
            <mxPoint x="1060" y="520" as="targetPoint" />
          </mxGeometry>
        </mxCell>
        <mxCell id="d-gHiXN0EIWmtfIMJueE-65" value="" style="line;strokeWidth=2;html=1;fillColor=#dae8fc;strokeColor=#6c8ebf;rotation=90;" parent="1" vertex="1">
          <mxGeometry x="999.74" y="355.35" width="321.62" height="9.92" as="geometry" />
        </mxCell>
        <mxCell id="d-gHiXN0EIWmtfIMJueE-78" value="&lt;font style=&quot;font-size: 15px;&quot;&gt;&lt;b style=&quot;font-size: 15px;&quot;&gt;외부연동 VPN&lt;/b&gt;&lt;/font&gt;" style="rounded=0;whiteSpace=wrap;html=1;fillColor=none;strokeColor=none;fontColor=#518DC9;fontSize=15;" parent="1" vertex="1">
          <mxGeometry x="280" y="160" width="120" height="20" as="geometry" />
        </mxCell>
        <mxCell id="d-gHiXN0EIWmtfIMJueE-79" value="&lt;font style=&quot;font-size: 15px;&quot;&gt;&lt;b style=&quot;font-size: 15px;&quot;&gt;Server Managed Solution Zone&lt;/b&gt;&lt;/font&gt;" style="rounded=0;whiteSpace=wrap;html=1;fillColor=none;strokeColor=none;fontColor=#518DC9;fontSize=15;" parent="1" vertex="1">
          <mxGeometry x="660" y="160" width="240" height="20" as="geometry" />
        </mxCell>
        <mxCell id="d-gHiXN0EIWmtfIMJueE-80" value="&lt;b&gt;서비스 운영 Zone (DMZ)&lt;/b&gt;" style="rounded=0;whiteSpace=wrap;html=1;fillColor=none;strokeColor=none;fontColor=#518DC9;fontSize=15;" parent="1" vertex="1">
          <mxGeometry x="660" y="330" width="240" height="20" as="geometry" />
        </mxCell>
        <mxCell id="d-gHiXN0EIWmtfIMJueE-81" value="&lt;font style=&quot;font-size: 15px;&quot;&gt;&lt;b style=&quot;font-size: 15px;&quot;&gt;Kaist DB&lt;/b&gt;&lt;/font&gt;" style="rounded=0;whiteSpace=wrap;html=1;fillColor=none;strokeColor=none;fontColor=#518DC9;fontSize=15;" parent="1" vertex="1">
          <mxGeometry x="240" y="335.35" width="120" height="20" as="geometry" />
        </mxCell>
        <mxCell id="d-gHiXN0EIWmtfIMJueE-82" value="&lt;font style=&quot;font-size: 15px;&quot;&gt;&lt;b style=&quot;font-size: 15px;&quot;&gt;Kaist LMS&lt;/b&gt;&lt;/font&gt;" style="rounded=0;whiteSpace=wrap;html=1;fillColor=none;strokeColor=none;fontColor=#518DC9;fontSize=15;" parent="1" vertex="1">
          <mxGeometry x="200" y="540" width="120" height="20" as="geometry" />
        </mxCell>
        <mxCell id="d-gHiXN0EIWmtfIMJueE-83" value="&lt;font style=&quot;font-size: 15px;&quot;&gt;&lt;b style=&quot;font-size: 15px;&quot;&gt;Kaist 트랜스 코딩&lt;/b&gt;&lt;/font&gt;" style="rounded=0;whiteSpace=wrap;html=1;fillColor=none;strokeColor=none;fontColor=#518DC9;fontSize=15;" parent="1" vertex="1">
          <mxGeometry x="590" y="540" width="120" height="20" as="geometry" />
        </mxCell>
        <mxCell id="d-gHiXN0EIWmtfIMJueE-84" value="&lt;font style=&quot;font-size: 15px;&quot;&gt;&lt;b style=&quot;font-size: 15px;&quot;&gt;Kaist 홈페이지&lt;/b&gt;&lt;/font&gt;" style="rounded=0;whiteSpace=wrap;html=1;fillColor=none;strokeColor=none;fontColor=#518DC9;fontSize=15;" parent="1" vertex="1">
          <mxGeometry x="920" y="540" width="120" height="20" as="geometry" />
        </mxCell>
        <mxCell id="d-gHiXN0EIWmtfIMJueE-89" style="edgeStyle=orthogonalEdgeStyle;rounded=0;orthogonalLoop=1;jettySize=auto;html=1;exitX=1;exitY=0.5;exitDx=0;exitDy=0;entryX=0;entryY=0.5;entryDx=0;entryDy=0;endArrow=none;endFill=0;fillColor=#dae8fc;strokeColor=#6c8ebf;strokeWidth=3;" parent="1" source="d-gHiXN0EIWmtfIMJueE-85" target="d-gHiXN0EIWmtfIMJueE-86" edge="1">
          <mxGeometry relative="1" as="geometry" />
        </mxCell>
        <mxCell id="d-gHiXN0EIWmtfIMJueE-85" value="Kaist&#xa;학사 View&#xa;(Sysbase)" style="shape=image;verticalLabelPosition=bottom;labelBackgroundColor=default;verticalAlign=top;imageAspect=0;image=data:image/png,iVBORw0KGgoAAAANSUhEUgAAACsAAAAtCAMAAAAA2mLvAAAAAXNSR0IArs4c6QAAAARnQU1BAACxjwv8YQUAAAEFUExURQAAAAAAAAAAAAAAAAAAAAAAAAAAAAAAAAAAAAAAAAAAAAAAAAAAAAAAAAAAAAAAAAAAAAAAAAAAAAAAAAAAAAAAAAAAAAAAAAAAAAAAAAAAAAAAAAAAAAAAAAAAAAAAAAAAAAAAAAAAAAAAAAAAAAAAAAAAAAAAAAAAAAAAAAAAAAAAAAAAAAAAAAAAAAAAAAAAAAAAAAAAAAAAAAAAAAAAAAAAAAAAAAAAAAAAAAAAAAAAAAAAAAAAAAAAAAAAAAAAAAAAAAAAAAAAAAAAAAAAAAAAAAAAAAAAAAAAAAAAAAAAAAAAAAAAAAAAAAAAAAAAAAAAAAAAAAAAAAAAAAAAAAAAADxFFqkAAABWdFJOUwABBAUHCAkKCwwNDhETFBUYGTc5Ojw+UFFSW11eX4iJiouOkJSWl5igoaqrra6vsLW2t7i5ury9ycrNztLe3+Dh4uPk5ebn6err7O3u7/Dx9PX3+P3+uoaOUgAAAAlwSFlzAAAXEQAAFxEByibzPwAAATRJREFUSEvt1FtTgkAYBmCwRAHTrCwrNTtpB8lSqLQDFkGCZdlh//9PaWO/pm3mA9oL73xudnjnvdj52F1pZtrkXH4hST4nh12157mP4/HL0I3mXWbDruYR8nnn2O8kxoPKujYh50pmfg9i1M1v16TrDsQorntG1zrEKK7bK60uH0OMgq4+gu84vhZ2lUOz07VMq9uJZh6kw66IufXqZpJqORV2RfarDQhxGs39a4hRt3/nuwUxipuvRdddiFFc95SuNYhRP126X7u+XetDjIL96gF8xxmyOaTKlY0klTU2XxFK02gZ7ZO20YpmNNh50J9gT3EC+G/f53eltHQEMYqbr8i9ELlvF5ls+l/32CXk494ZvEGMclhXvQr80eR18uxHC/rs3ZELxcUkxQJ7z2amRpK+AGpaCKWs6GFMAAAAAElFTkSuQmCC;aspect=fixed;" parent="1" vertex="1">
          <mxGeometry x="-120" y="119.5" width="40" height="40" as="geometry" />
        </mxCell>
        <mxCell id="d-gHiXN0EIWmtfIMJueE-86" value="Kaist&#xa;교원 View&#xa;(Oracle)" style="shape=image;verticalLabelPosition=bottom;labelBackgroundColor=default;verticalAlign=top;imageAspect=0;image=data:image/png,iVBORw0KGgoAAAANSUhEUgAAACsAAAAtCAMAAAAA2mLvAAAAAXNSR0IArs4c6QAAAARnQU1BAACxjwv8YQUAAAEFUExURQAAAAAAAAAAAAAAAAAAAAAAAAAAAAAAAAAAAAAAAAAAAAAAAAAAAAAAAAAAAAAAAAAAAAAAAAAAAAAAAAAAAAAAAAAAAAAAAAAAAAAAAAAAAAAAAAAAAAAAAAAAAAAAAAAAAAAAAAAAAAAAAAAAAAAAAAAAAAAAAAAAAAAAAAAAAAAAAAAAAAAAAAAAAAAAAAAAAAAAAAAAAAAAAAAAAAAAAAAAAAAAAAAAAAAAAAAAAAAAAAAAAAAAAAAAAAAAAAAAAAAAAAAAAAAAAAAAAAAAAAAAAAAAAAAAAAAAAAAAAAAAAAAAAAAAAAAAAAAAAAAAAAAAAAAAAAAAAAAAAAAAAAAAADxFFqkAAABWdFJOUwABBAUHCAkKCwwNDhETFBUYGTc5Ojw+UFFSW11eX4iJiouOkJSWl5igoaqrra6vsLW2t7i5ury9ycrNztLe3+Dh4uPk5ebn6err7O3u7/Dx9PX3+P3+uoaOUgAAAAlwSFlzAAAXEQAAFxEByibzPwAAATRJREFUSEvt1FtTgkAYBmCwRAHTrCwrNTtpB8lSqLQDFkGCZdlh//9PaWO/pm3mA9oL73xudnjnvdj52F1pZtrkXH4hST4nh12157mP4/HL0I3mXWbDruYR8nnn2O8kxoPKujYh50pmfg9i1M1v16TrDsQorntG1zrEKK7bK60uH0OMgq4+gu84vhZ2lUOz07VMq9uJZh6kw66IufXqZpJqORV2RfarDQhxGs39a4hRt3/nuwUxipuvRdddiFFc95SuNYhRP126X7u+XetDjIL96gF8xxmyOaTKlY0klTU2XxFK02gZ7ZO20YpmNNh50J9gT3EC+G/f53eltHQEMYqbr8i9ELlvF5ls+l/32CXk494ZvEGMclhXvQr80eR18uxHC/rs3ZELxcUkxQJ7z2amRpK+AGpaCKWs6GFMAAAAAElFTkSuQmCC;aspect=fixed;" parent="1" vertex="1">
          <mxGeometry x="-40" y="119.5" width="40" height="40" as="geometry" />
        </mxCell>
        <mxCell id="d-gHiXN0EIWmtfIMJueE-87" value="IPsec VPN" style="shape=image;verticalLabelPosition=bottom;labelBackgroundColor=default;verticalAlign=top;aspect=fixed;imageAspect=0;image=data:image/png,iVBORw0KGgoAAAANSUhEUgAAAB4AAAAeCAMAAAAM7l6QAAAAAXNSR0IArs4c6QAAAARnQU1BAACxjwv8YQUAAAGMUExURQAAAAAAADMzMyQkJDk5OTY2NjMzMzExMS4uLikpKS8vLy4uLjAwMDg4OC4uLjY2NjU1NTIyMjExMTIyMjExMTU1NTQ0NDAwMDAwMDIyMjAwMDAwMDMzMy8vLzIyMjExMTAwMDQ0NDMzMzIyMjMzMzIyMjIyMjQ0NDMzMzIyMjQ0NDMzMzIyMjIyMjExMTQ0NDQ0NDMzMzIyMjQ0NDIyMjExMTMzMzU1NTMzMzU1NTIyMjQ0NDIyMjMzMzMzMzMzMzMzMzIyMjU1NTQ0NDMzMzMzMzMzMzQ0NDQ0NDU1NTQ0NDMzMzQ0NDMzMzY2NjQ0NDY2NjQ0NDQ0NDIyMjMzMzQ0NDIyMjQ0NDMzMzIyMjMzMzQ0NDU1NTU1NTMzMzY2NjMzMzIyMjMzMzMzMzMzMzQ0NDU1NTMzMzMzMzU1NTMzMzU1NTMzMzMzMzQ0NDMzMzMzMzMzMzU1NTMzMzQ0NDMzMzMzMzMzMzU1NTU1NTMzMzQ0NDU1NTY2Njc3Nzg4ODk5OTo6Ojs7Oz09PRK2CZEAAAB6dFJOUwACBQcJExQVFhkbHCAgISEiKSozNDU2OjtISktLTE1OT09QUVVWV1laXF5fYGFiYmNucHBxcnJzdHR1dXaDhoiNk5aYmpucnKOkpqqtrq+wsLS2u7+/wMDDxc7Ozs/Q0dLV1dfY2Nnc3t7f3+Dh4eLj5uv29vf4+fn9JIi6MAAAAAlwSFlzAAAXEQAAFxEByibzPwAAAZ5JREFUOE91kutbEkEUh0+gmQmIZWVKhGAX07KbgkSayq3oTlctpIvX8oqyMGdn2PAf78zuPLj7sLxffuecd5/Z2dkBiKywDnyLAoSE4B0QIgw/Gl9vRGMuRMe+NH4C8uvQgWscgfFR1bUR5ox0THVtRBzao7JV2LXn+V0ziYkX1gM2ff5jc8qcEZPNz30yT/WVPwJ/F98+BHjwuvgLxe6QXUfrnDGdG3sAfw2uU12naUuHalILYwdg2xCkeS1sX/zimsDlQv4+wFS+sIxifdDxbuh+17wnUzLRfH9Wpk0DLE5aCXBnyUqHhjMqW4WlaRPujEgtxlXXxm1BGvefzc27MLdwgAyQoXClgXSfYIMOwQ3UesaNTbjZ0PEUGrd4+ubfLYDHW0fVY4uKxphWUU1VP5yWG+zyB/uJQCDgu4o47KNC9kF/l7l/G+cQe1XpxDuby2bSLxl7lc5kc0+8agwwEE8lk4kPhvwY+q10+YUwPiWSyVT8AunSiUGQsMPl7KRM+tFquVwuaQ7PtRINV2fM5SWXVuQhKfD7ZXMI8B8jWtDacRQmdAAAAABJRU5ErkJggg==;" parent="1" vertex="1">
          <mxGeometry x="40" y="320" width="40" height="40" as="geometry" />
        </mxCell>
        <mxCell id="d-gHiXN0EIWmtfIMJueE-88" value="IPsec 터널&#xa;암호화 통신" style="shape=image;verticalLabelPosition=bottom;labelBackgroundColor=default;verticalAlign=top;aspect=fixed;imageAspect=0;image=data:image/png,iVBORw0KGgoAAAANSUhEUgAAAB4AAAAeCAMAAAAM7l6QAAAAAXNSR0IArs4c6QAAAARnQU1BAACxjwv8YQUAAAGMUExURQAAAAAAADMzMyQkJDk5OTY2NjMzMzExMS4uLikpKS8vLy4uLjAwMDg4OC4uLjY2NjU1NTIyMjExMTIyMjExMTU1NTQ0NDAwMDAwMDIyMjAwMDAwMDMzMy8vLzIyMjExMTAwMDQ0NDMzMzIyMjMzMzIyMjIyMjQ0NDMzMzIyMjQ0NDMzMzIyMjIyMjExMTQ0NDQ0NDMzMzIyMjQ0NDIyMjExMTMzMzU1NTMzMzU1NTIyMjQ0NDIyMjMzMzMzMzMzMzMzMzIyMjU1NTQ0NDMzMzMzMzMzMzQ0NDQ0NDU1NTQ0NDMzMzQ0NDMzMzY2NjQ0NDY2NjQ0NDQ0NDIyMjMzMzQ0NDIyMjQ0NDMzMzIyMjMzMzQ0NDU1NTU1NTMzMzY2NjMzMzIyMjMzMzMzMzMzMzQ0NDU1NTMzMzMzMzU1NTMzMzU1NTMzMzMzMzQ0NDMzMzMzMzMzMzU1NTMzMzQ0NDMzMzMzMzMzMzU1NTU1NTMzMzQ0NDU1NTY2Njc3Nzg4ODk5OTo6Ojs7Oz09PRK2CZEAAAB6dFJOUwACBQcJExQVFhkbHCAgISEiKSozNDU2OjtISktLTE1OT09QUVVWV1laXF5fYGFiYmNucHBxcnJzdHR1dXaDhoiNk5aYmpucnKOkpqqtrq+wsLS2u7+/wMDDxc7Ozs/Q0dLV1dfY2Nnc3t7f3+Dh4eLj5uv29vf4+fn9JIi6MAAAAAlwSFlzAAAXEQAAFxEByibzPwAAAZ5JREFUOE91kutbEkEUh0+gmQmIZWVKhGAX07KbgkSayq3oTlctpIvX8oqyMGdn2PAf78zuPLj7sLxffuecd5/Z2dkBiKywDnyLAoSE4B0QIgw/Gl9vRGMuRMe+NH4C8uvQgWscgfFR1bUR5ox0THVtRBzao7JV2LXn+V0ziYkX1gM2ff5jc8qcEZPNz30yT/WVPwJ/F98+BHjwuvgLxe6QXUfrnDGdG3sAfw2uU12naUuHalILYwdg2xCkeS1sX/zimsDlQv4+wFS+sIxifdDxbuh+17wnUzLRfH9Wpk0DLE5aCXBnyUqHhjMqW4WlaRPujEgtxlXXxm1BGvefzc27MLdwgAyQoXClgXSfYIMOwQ3UesaNTbjZ0PEUGrd4+ubfLYDHW0fVY4uKxphWUU1VP5yWG+zyB/uJQCDgu4o47KNC9kF/l7l/G+cQe1XpxDuby2bSLxl7lc5kc0+8agwwEE8lk4kPhvwY+q10+YUwPiWSyVT8AunSiUGQsMPl7KRM+tFquVwuaQ7PtRINV2fM5SWXVuQhKfD7ZXMI8B8jWtDacRQmdAAAAABJRU5ErkJggg==;" parent="1" vertex="1">
          <mxGeometry x="-80" y="280" width="40" height="40" as="geometry" />
        </mxCell>
        <mxCell id="d-gHiXN0EIWmtfIMJueE-90" style="edgeStyle=orthogonalEdgeStyle;rounded=0;orthogonalLoop=1;jettySize=auto;html=1;entryX=0.5;entryY=0;entryDx=0;entryDy=0;endArrow=none;endFill=0;fillColor=#dae8fc;strokeColor=#6c8ebf;strokeWidth=3;" parent="1" target="d-gHiXN0EIWmtfIMJueE-88" edge="1">
          <mxGeometry relative="1" as="geometry">
            <mxPoint x="-60" y="140" as="sourcePoint" />
            <mxPoint x="-30" y="150" as="targetPoint" />
          </mxGeometry>
        </mxCell>
        <mxCell id="d-gHiXN0EIWmtfIMJueE-91" value="" style="shape=image;verticalLabelPosition=bottom;labelBackgroundColor=default;verticalAlign=top;aspect=fixed;imageAspect=0;image=data:image/png,iVBORw0KGgoAAAANSUhEUgAAAHwAAAACCAMAAACt6Eg9AAAAAXNSR0IArs4c6QAAAARnQU1BAACxjwv8YQUAAAAJUExURQAAAP8AAP8AANk/duEAAAACdFJOUwCfFiND7QAAAAlwSFlzAAAXEQAAFxEByibzPwAAABZJREFUGFdjYAIDhgGgGYlRRCuakQEAt4sBc9h+nf0AAAAASUVORK5CYII=;" parent="1" vertex="1">
          <mxGeometry y="335.35" width="124" height="2" as="geometry" />
        </mxCell>
        <mxCell id="d-gHiXN0EIWmtfIMJueE-96" style="edgeStyle=orthogonalEdgeStyle;rounded=0;orthogonalLoop=1;jettySize=auto;html=1;entryX=0;entryY=0.5;entryDx=0;entryDy=0;strokeWidth=3;fillColor=#dae8fc;strokeColor=#6c8ebf;endArrow=none;endFill=0;" parent="1" source="d-gHiXN0EIWmtfIMJueE-92" target="d-gHiXN0EIWmtfIMJueE-95" edge="1">
          <mxGeometry relative="1" as="geometry" />
        </mxCell>
        <mxCell id="d-gHiXN0EIWmtfIMJueE-92" value="&lt;b&gt;&lt;font style=&quot;font-size: 17px;&quot;&gt;DEV&lt;/font&gt;&lt;/b&gt;" style="sketch=0;outlineConnect=0;fontColor=#232F3E;gradientColor=none;fillColor=#232F3D;strokeColor=default;dashed=0;verticalLabelPosition=bottom;verticalAlign=top;align=center;html=1;fontSize=12;fontStyle=0;aspect=fixed;pointerEvents=1;shape=mxgraph.aws4.user;" parent="1" vertex="1">
          <mxGeometry x="-90" y="460" width="50" height="50" as="geometry" />
        </mxCell>
        <mxCell id="d-gHiXN0EIWmtfIMJueE-98" style="edgeStyle=orthogonalEdgeStyle;rounded=0;orthogonalLoop=1;jettySize=auto;html=1;entryX=0;entryY=0.5;entryDx=0;entryDy=0;strokeWidth=3;fillColor=#dae8fc;strokeColor=#6c8ebf;endArrow=none;endFill=0;" parent="1" source="d-gHiXN0EIWmtfIMJueE-93" target="d-gHiXN0EIWmtfIMJueE-95" edge="1">
          <mxGeometry relative="1" as="geometry" />
        </mxCell>
        <mxCell id="d-gHiXN0EIWmtfIMJueE-93" value="&lt;b&gt;&lt;font style=&quot;font-size: 17px;&quot;&gt;Admin&lt;/font&gt;&lt;/b&gt;" style="sketch=0;outlineConnect=0;fontColor=#232F3E;gradientColor=none;fillColor=#232F3D;strokeColor=default;dashed=0;verticalLabelPosition=bottom;verticalAlign=top;align=center;html=1;fontSize=12;fontStyle=0;aspect=fixed;pointerEvents=1;shape=mxgraph.aws4.user;" parent="1" vertex="1">
          <mxGeometry x="-90" y="554.5" width="50" height="50" as="geometry" />
        </mxCell>
        <mxCell id="d-gHiXN0EIWmtfIMJueE-94" value="&lt;b&gt;&lt;font style=&quot;font-size: 17px;&quot;&gt;DEV&lt;/font&gt;&lt;/b&gt;" style="sketch=0;outlineConnect=0;fontColor=#232F3E;gradientColor=none;fillColor=#232F3D;strokeColor=default;dashed=0;verticalLabelPosition=bottom;verticalAlign=top;align=center;html=1;fontSize=12;fontStyle=0;aspect=fixed;pointerEvents=1;shape=mxgraph.aws4.user;" parent="1" vertex="1">
          <mxGeometry x="-90" y="644.5" width="50" height="50" as="geometry" />
        </mxCell>
        <mxCell id="d-gHiXN0EIWmtfIMJueE-95" value="SSL VPN" style="shape=image;verticalLabelPosition=bottom;labelBackgroundColor=default;verticalAlign=top;imageAspect=0;image=data:image/png,iVBORw0KGgoAAAANSUhEUgAAAC0AAAAnCAYAAACbgcH8AAAAAXNSR0IArs4c6QAAAARnQU1BAACxjwv8YQUAAAAJcEhZcwAAFxEAABcRAcom8z8AAAbvSURBVFhH7ZhpbFVFGIYpLqBEQARLa+2+a6uxIGiQgmJYBEVKqYaopQQIMSqiPzBoJMBPY1wwqChLROGPLE2JIULKEmKRzbBoVKRiC0EgFGywFErr8w7fOfdeelu6ocTwJl9m5v3WmTPnnDmn03WAtLS0+ISEhDwky6hrE8nJyZlJSUlTKLQkMTHxr5SUlAbaOsZb4V+n3w+zzpes/zt0pqBsCppJQZuR2tTU1AYr9nf4Vej30jaw8g1q4fcg8+k/HBkZ2c3iXF1kZ2d3i4+PH0DSuST/ToWoUFa5gQJ/gXsXbnhcXFxP2efk5NwENwh5C/3OYHu4/Yzfhx8WExPTyyXoKLBKt5HgUeQd5AclVGIVwHgP7TxkKHwXc2kS2OUg2iqlyMWgK1OOLEKehutt5q1DbGzs7QrAKiykPaTAXqHIJgqcpQJyc3NvNJdWg9ipyHTir0FqgiZwElmOFDK+y8zDg0valUIKCLQYOe4VivM5+HW0Mxin5+fn32AujSAdtg9hq+2wkf5CZGx6evodZhIW2NytIpGVyImgCZxFViPTWKg+Zh6AZo6zP1vGq2gnZWRkxJlJWERFRd2K31Bs5+Ozz9s+Xqt48CfQf4FdgQo017Bg8fpiMxafJbTlXhz6E8wkAIwzUKjgY4geT01Cs8ZmJLKA4AcVWE8IxhLdoLMpdgC6icjXcMGrdwpZC1/ETZ1mIcOCG/9ObLfLl/ZZowOg6HQrupyAkUb7oLAY+Dz0y7A7rAJsBWrgNzJ+GbnfzEMgX2Q8tkvxP+r50pfvBtoZ6O4Jt/XQrbc8BUYF4BVNkMMYxhrtAD8bOaJkEvTVyGpsJ9OmmFmLQJ6e+D1BvPfwPaSrZBM4B/8NY3/vahKaVJuKZvytBd6EfiJbIdpU7QLP51uI+RiyAFF8ib8I7S16rVaYVZhuVIeC+Nq7VeQ+T55Eozus6BlGdSiIm3Q1i37VqA4FeZP/V0XDe/fTM0YHoGemikZZwY0Wb7RDUNFXZXsQPxZR0ReCi7YDV6nlHm90ALavLiCnMMow2gFumRwJOseodoN8XTIzM3sRM5LYg8lxlv4ZzjNdzUR5e8DtVG4WdITRAWCgO1jn4IvIEKMdGM+zS/S5UW1FBMWOJs5HFLOLtgq5SL/WrnI1+jzvIAanM8lR1YRNfxchGDJEUaLiaEMebTg9pdkS4AB7352VWwv8huBfSlHey6QO+QkpI99e2pPSSci3XatPqyOv6jmIf18LFQoc37SAxUY56JQG95sKJ0jjvXUFkHSmVssWZAcxdO6gjji3FbR34WKwmYDoSKAa6rH9UX3alS5QOODwAMa1yDmCZBrtgG62Jd2vDwOjrwj8XlJi2nriziJuyMcCZ/cE9vbNNnTAZjL2f1vxdbTjTBUeGBVbcYuNciBQd7h9pltodLMgVj8lx1dFTzXaAS4Xvfb1eXQ/EzPPVA6MR8PXIHXYjjE6PAgyCMMLyHkcHzfagfEj8FW2cnONbgoR2Hxlk1xmnIN9Gf2KHMLmeaSMvr7g/cedADdf/rSlOqcYHR4k+VjGBNupFTbagXE+fK1duk+RHqYKgT4e0J3BVis90GgH4mfBK/48jbErxEbxRjoDg2Jgexw7rXZIjEag4N4YelthxeV7Dm4MCY7YxHbQH2UqH9gM08Ro9+or3mi9xDSZNSoa3QFEZ+zvNabdgk/ImRz9OssTsr3CAkP90zgqB4J9YLQPgmXDr1dhWiXGJUg+fXdl8HWPSbitzsGgXxBw2n4qxHvE+cI4ZG+TY7kt3htGNQ+C6Nuv2rbCJ5c/NXQ2IEkROvdoMrtKJUIWqSDa3bT+E4NxP+S0CqT1xcZ6sT1ppg5wa22lpxh1ZeA0CodjFCzHDRSQZCofcN2xG4fod8BJFa9EVvRpxv4lZ9zionk/RLHCfxCnnhiDjW4ZcNSNU6bCCVxJf6peCKYOATbR6Edg9wp+22x7fWhqTXCgivQm5UnQ2H95Eec1LQBxdrXm3eCDYH0IssRLQOLN9PVIjLhk0RgkexA7/TfRQcy9IOAi6etnzxz6vmgM/zbiPreIPRDutPJxHzwnrs0g0HACb9MKKCDjjYwLo6Ojw/6QQT8V0QtEBUwyullgp0NVpS2ODmlNLkyLoUcgwaZRyA5v/zI+QjLdfEVw92n7cEn1n3o84n452CT1H2Qk/ZDnv14e6IZgq5807qamXeqdTzoMCqgCSLSCtlrF2wS0Dytoa7xi6Z9S8dJb8X/CbUOKkS1IpXjzr8D2RVK0f4WbA8UlUkgBCT9DdiP6kaiXx5dIEbpkHS/hXqCvf4OaVD19Falj6jH67qcPr/koC/vvglXTX6Umf/+yor2ZTBbSn4Lv1YRMdR3XEDp1+gdOBfhygC7i+wAAAABJRU5ErkJggg==;aspect=fixed;fontStyle=1;fontSize=17;" parent="1" vertex="1">
          <mxGeometry x="37" y="640" width="50" height="50" as="geometry" />
        </mxCell>
        <mxCell id="d-gHiXN0EIWmtfIMJueE-101" style="edgeStyle=orthogonalEdgeStyle;rounded=0;orthogonalLoop=1;jettySize=auto;html=1;entryX=0.5;entryY=0;entryDx=0;entryDy=0;" parent="1" source="d-gHiXN0EIWmtfIMJueE-99" target="d-gHiXN0EIWmtfIMJueE-100" edge="1">
          <mxGeometry relative="1" as="geometry" />
        </mxCell>
        <mxCell id="d-gHiXN0EIWmtfIMJueE-99" value="&lt;span style=&quot;font-size: 17px;&quot;&gt;&lt;b&gt;사용자&lt;/b&gt;&lt;/span&gt;" style="sketch=0;outlineConnect=0;fontColor=#232F3E;gradientColor=none;fillColor=#232F3D;strokeColor=default;dashed=0;verticalLabelPosition=bottom;verticalAlign=top;align=center;html=1;fontSize=12;fontStyle=0;aspect=fixed;pointerEvents=1;shape=mxgraph.aws4.user;" parent="1" vertex="1">
          <mxGeometry x="1260" y="159.5" width="50" height="50" as="geometry" />
        </mxCell>
        <mxCell id="d-gHiXN0EIWmtfIMJueE-100" value="&lt;font style=&quot;font-size: 17px;&quot;&gt;&lt;b&gt;Internet&lt;/b&gt;&lt;/font&gt;" style="image;aspect=fixed;perimeter=ellipsePerimeter;html=1;align=center;shadow=0;dashed=0;spacingTop=3;image=img/lib/active_directory/internet_cloud.svg;" parent="1" vertex="1">
          <mxGeometry x="1245" y="290" width="80" height="50.4" as="geometry" />
        </mxCell>
        <mxCell id="d-gHiXN0EIWmtfIMJueE-102" value="DDoS&#xa;(Ahnlab TrusGuard DPX)" style="shape=image;verticalLabelPosition=middle;labelBackgroundColor=default;verticalAlign=middle;aspect=fixed;imageAspect=0;image=data:image/png,iVBORw0KGgoAAAANSUhEUgAAAGQAAABkCAYAAABw4pVUAAAAAXNSR0IArs4c6QAAAARnQU1BAACxjwv8YQUAAAAJcEhZcwAAFxEAABcRAcom8z8AAA+2SURBVHhe7Z0JdxTFFsfz3vd4+j7GU99H8Bwf7iLJJIEAiijgggqCiuKKoriw474gLkcQURRwO0ePih43hLiSZCaTTPZtkkxS7/5udw+dTk9m65lpse85/5PJdFV11f133bp1q6qnzi3GmH+0Nzefl2hsfLojFmsVpOOxmJG/EQKArcu0oDUpOm5vbDwfndvqnyly8V9tsdiuRCw2kWpuNvHGxlkFRggG6LZbdIyu5f/dHfX159g0WNKxePE57bHYe8MtLaarqcm3kAjBIym6Rufy+XC8uflcmw7tHTu5IKZqVqYIlQU6R/dinXYrGZ2x2H/oOlHPqB3QvYwvk+0LFpxfJ19sTUVk1BzKQUPDtrp4Q8OpaACvPWwOWukhuGGzEoQa9fWmY8EC03711aZ9/nzTftVVFvgs33FN0/jlDTfSdaGeZzQ0qGJV0Vdeadouu0zRLt/HFy82iWXLTOfKlSZ5yy0KPieuu87ElyzR/Nn0kpcylCTKBN57hQBwQQ/xvVgToCiefAiw0bFokem64w7Ts2WLGdi71wwfPWpGv/7apH/80YyfOmUmfv/dTLa3K/jMd1wbO35c05Kn56mnTNf69aZj4UKrXLtnaU/yq0cNEQ5ChAg1OfIkx0VpiVWrlIARUejE6dMm09dnptNpmdSWJtPj4ybT328m/vxTy+x58knTedNNRnx/037FFXrvsPSa2hICEShE0LlihSpq9IsvzNTgoGhx2lZnBUTKnhoZMaOff256nnhCTZ3WQx4I33pWEbUhBCIwHaKArnXrzOCbb5rx336ztVV9mfjjDzP49tsmKaYxO97UqMdUlxCHCDERmIyh994zmZ4eWy21l0wqZYYOHTKdN99s1RNi/NpRQVSPELwlMQuJ5cvNwKuvmkx3t62G8Emmt1d7LXVtv/zyqrrQVSFEnzbxbFKPPmomAjJN0xMTZmpoSJU32dWl4DPfMYgHIeOtrabnkUdMB14ZA79P24JGZQnBROE5LV1qBg8cMFNjY3ZTi5PpyUkz/ssvZuTYMTO4b5/p277dpDZtMt0bN5quu+4yybVrFXzmO66RZuC11zQPiqWMUgTvDjPG/EYH/QqPLZUjBBMlDegWJY2fOGE3r3DB08Lj6tu1Swd+zEdHU5OavbZLLrEmfLaHpgMxsP/XCaGk4TN5yEsZfTt3Wl7cwIB9l8Jl/OTJ7KBfSRNWGUKY3EnFMVHFjBXaE6ThA6+8ogMrZekkDmUzwDKRK+YJJa0z0YQswiryPQ7FwMsv672K6TmTyaTp2bzZmjNVaFIZOCFUFAX07d6t9rxQGfv2W9P79NM6Mcwqzwl1+NynJFAWPReS5R7cq1dm8dy7UJkaHTX9zz9vlVEBUoIlBDIE2O5CB1bCHYQ2OlpaTLuYmqqGM6gv91y0SCelBc+FMhntxfrQ2L0uKARHCI2TrtwvpqCQWfa0PGlMxtS1dJmTWsDpMQzc1Im65RUhpR9SHFPqU24pCIYQewBnAJ4qIOZEfCp1//2WbadBFfZcCoLUwakPdSPulU9wvftfeCFQUsonhIZIzyAYWMiYMSJeTueNN1oTrjAQ4QXtkbp1rlqldc0nuPKMfep9BdCesgmhq3dt2KAR2XwyePCgFQKn8j5lhQlax+ZmrXM+IZLcfe+9qgu/sopBeYSI7cW/LyQeRSjCMQu+ZYUQjjml7vnGRR7IrjvvLHuQL50QlCs3xy8f/vBDM/z++znR98wzVp4aDtwlw65z3549vm3LQnTQ8/jjlnNShukqr4c0Nur40XbxxXMD1zIA+1ozSN119u/XNhc03lXmhpHyB/UIgSIiJGSICAkZIkJChoiQkCEiJGQIhBANztlxoJwoxD9nbuOX1wviRrVwo6lfrrba85VyUT4hUkkituyryoXEDTeYxDXXZCPCucphda9T0vqV4SBx/fW6jTRIJRQCXeeR+7EcTXtm1YsVTZ98xaI8Quwnmu2bRD5zYWp42Iz/+qtu6yRo5xfLohzIYAObXxkOMgMDZuy77zSynFiyxCqr0rv3WShbuFBn66zP+9WR7wuyAnkQCCFsNCtUCGv7BeKUEHnSpqem7JT5hf275KlosJI2Su8Y3L/fvqu/0K7wEFLk1p7JeNwkb711hiKzhMjTVoyw8VpNWIXMFyY2tXGjLt3OJax8hpYQVtym+vs1LJ1ro/TQ4cOmHVMApCxfQtiDy94rpyzBdCZjXzwjfdu2af65lIGyWOfQHSsOLr3UGtPmyEcalqTzSSaZDC8hg2+8Ye2TWrdOjxKwTyr9ww/2VUvYwZFcvTrbS/wIgYxeUXZyzRqrLAH/TyQSdgpLxr75Rm2876oddWR5Vgbj1AMP6GJS344dpnf7do3Oak+Veyuh3rwCgobDhw7ZdzojY9IzRz76yIx88omCEH0Q3l9FCOmRRrfJ08jTx/XT//ufKpNekxV5+nUsYeVQyvIjhB4BGboHy1Za27x5OqC7t++wJxcvbpbZwjMSsLOEMyN+PRXzqRvhxKHwG4tyEYK3d/rCC8/0NiLanryloCKE8PS5uy+fcQvxtNzCE+s0JBchHLThmnNPPndv2KCemyN4PYlrr51JCOv8QsbAvn0FjUvpkyctD9DjlucixDsGBoXqESJPlHebTSUJoedx9qOYfb6jX36py7bOuAYiQgoh5J575iZE/uJ5MV+ZIWImqQNjTlquZTgY5BZxuRnv3PfLRQhzpraLLrLS2u0MAmclIc7GixmuqpCBsxFftkzJAl0yhjGGuIWlWH3y7bpDCGOMVyB76J13dHO3LvO6elU5OCsJwVVlX7FbJtradODmmg72Ug5mbUBIcguKnkEIbu/evfbV2cK9Oe+ihARAyllLSM9jj9lXLUmfODHTrFF3+Uw4xC2kcxPCIO8ds7xCnVMPPTSjnqXi70PIzz/rufZZhDz7rJ3CkvRPP80gRO8p6bQnzbEVaOSzz6yyXflKQURIAYSoKWpqMr1bt+p8hnrhALglXMHFs50Q7su4I+n1HL1MQic7O+0clhBg1bIjQqpDiJOnQ+5PvsmODjuHJaEOLvoSEuRM/e67ZxIi7m1eQkoc1GfB9qS87nK4CRFb2yZzAa7R1Yn1sON90hMU7L7vvryxrK61a624mDQWMC/gZKw7LkU6dywLQma5vadPl+T2ZndnSj6F3J+/vFvFLaEmhKeO6KszAcNUDB04YF+1JDM0pJFgZ6HKl5CBAQ1AEs5wyuJ84Ojx43YKSzihyzWNtlKWMzF0n/qVQRjlx6WXxFtaNH2XmD6v6fFODFFy15o12uMUmzfrX45guyXUYwirZ6zmEaLgL0+PV0a/+srEFy3Kbmb2I0QPgZ46daYsgXcwRQggKhmOMqRMXtE09v33dgpbCJ2I2YRQDZ14T+P6hU7mzTMjR47YCXKLjj1hJSSfsICVErPjXsb1I6QQmZAnPCm9xhulLSW4OCYPSaHBRa8MvfvuX5MQbH//Sy/NqnwphHAuhRlyGybGXS8gStXw++uvF1RmWnqinuwqMPzuFo5+a/TX7u3lIBBCMj5mxCvTYs9ZNezdssWquCfuo4SsXGmnnltYFubVSryUYE6PiMFbwCohJsV3gUocDV6Ck3OBCpN19Kid2iOZjJ5150yimt4yewcojxAgiu0Rj4a3JOQCXhcuLnZdzZRfxaUcBlteieFXhgNW/3iFBnn8FDgLPDRyT7yw1IMP6hKwlrNjh56LTN52mz4MwC8/30P8rHqQX8xu0K/cKJ8QAXOJ7FJmDmDTHS8oJ6RRfnlnQFxOJdXTw/KBXkkdZpWVT5m4vZJmRj4H0u4gzJQbgRASIThEhIQMESEhQ0RIyBAREjJEhIQMZROikVDc3jngnf3+FVGtdpZOiO27s17BhIvZai7kOhPyVwF1pw1+bctCdED0utj5kRdlEcJEr//FF+04Qm4h+qszYpmYBTWjrQpoo9SZuhdyBkZf1VTmrL08k8XTIGDDWD7RqCzrH5BS5lNUFUgdlQyp84RnMcpP2Ezn5JtVVhEof1CfP1/XNXjbZz5hLSP18MNW7CjgkEOQ0DCL1JFIsneV0090baelRXXhV14xKJ8QAd2ULZpp74KQj7AhQcPvdj6/8moJ6sTvk2CKqWs+IWyfK1JcCgIhBGhEdcUKXU7NJ2w3G/n0U5PkHes0JAy9hV4hdeH1tNStkN9mYBcNS8pBPliBEQIgpXP16oLeV4hMdnfru7Qwefpk1oAYNU9yb+pAXXhleSHCUrC+tJ/Is0+5pSJQQgCN46ga+6AKkulpXbhiTQU7rP58ALY4H7gH4Xfuyb31yN0cW0Xdoj2D43gBkwECJwSo+Vq+XNeoixE2MbC6R17d+oMpwGvBjSzHXXby4zkxwZOyuYe+RFnuWYzoUWxnXlVOnXKgIoQANQOLF5vhDz6wm1K4YA6GDh7Usxds3dSlWEyLKDProbHYBVl+cNKTljx2espiWxFlezft5RXpPayt63YjyPBpcxCoGCHOBjM+9+7caSZL+OEWdidyrmP444+zp3E5ucRyrBLFjzFyL4cIPst3zv5b0pKHvMMffaRluXc8FipsF2LLKT1C21TBN0dUjhAHPK1iwlDMaJHmYZZMTekuRTYWsP2fTW28xpUjyQr5zHdcIw1pvbvUixVMWvZXEeiVfm0MEJUnBPBkYcLEkyG8UMhkq9aCt9X/3HNn3jNcgfHCD9UhxAF2HddYfPfBt96yfo0tZEKdhvbvz56y1fHHry0VQnUJAXZvofsnb79dTUyhvn8lhZcPDB8+rESoma1ir3Cj+oQ4kEFYvSABOwb5+Qc2s5Vr84sR9g5zT95loq/5sD2zrINQA9SOEAf0GFGETtKWLjU9mzaZARmgOacR1I97uYUyeWsDP0vBxmruqfuzIKIGPcKL2hPighJjz9Q5XINnxi/1DB85or9jhVnBbUWp+lYgv5m1fMc10pCW/b/soB8+dkx3HGIm9eCOmCW9V5XHiHwIFSFZ0GswZ+5BlfnFkiXqgnI+A+Xy00OYG14uBviMF8fLafRNP5JWfznanq+oSaLMGpuluRBOQtzAjDgTPwZblApZzMABCnbD+R5AJnMHJ38ITFI+hJ+QvxkiQkKGiJCQoS7u82WE2gAu6CFp74UINUOaHnIqXukXEUfIC5uD1rpEU9PWlLOuEKFmUA4aGrbVtTc3n9cZi010RaTUDOg+EYtNyucL6hD5sGu4pcUkItNVdaBzdN/W0LBHyUB+a24+V8aS97kQ9ZTqISm6RucdjY0f/B6L/dumw5KO+vpzTgtLnY2NE6nm5qi3VBDoFh3LQD4p48aeuHQIm4aZsn79+n9KhgsY6OVvqyAdzVOCg61Lphmt0ju2/llf/18jOrfVL1JX93+FkIKP3UdJAwAAAABJRU5ErkJggg==;labelPosition=right;align=left;fontSize=13;fontStyle=1" parent="1" vertex="1">
          <mxGeometry x="1245" y="380" width="40" height="40" as="geometry" />
        </mxCell>
        <mxCell id="d-gHiXN0EIWmtfIMJueE-103" value="IPS&#xa;(TESS TAS)" style="shape=image;verticalLabelPosition=middle;labelBackgroundColor=default;verticalAlign=middle;aspect=fixed;imageAspect=0;image=data:image/png,iVBORw0KGgoAAAANSUhEUgAAAGQAAABkCAMAAABHPGVmAAAAAXNSR0IArs4c6QAAAARnQU1BAACxjwv8YQUAAALWUExURQAAAP///4CAgP+AgOVhYeZeXuZmZt5jY+ZjY99gYOhgYORiYuVcXOVhYeVfX+FeXudgYOlgYOZgYOhhYelhYeZfX+VgYONgYOVgYORfX+VfX+JfX+RfX+VfX+VfX+ZgYOVfX+VgYOZfX+ZgYOVfX+VgYOhgYOlgYOlhYedfX+dhYehfX+JRUeNUVONVVeNWVuNXV+RVVeRWVuRXV+RYWORZWeRaWuRbW+RcXORdXeReXuVbW+VcXOVdXeVeXuVfX+VgYOVhYeViYuVjY+VkZOVmZuZfX+ZgYOZiYuZjY+ZkZOZlZeZmZuZnZ+ZpaeZqauZra+ZsbOdgYOdpaedqaudra+dtbedvb+dwcOhubuhvb+hwcOhxcehycuhzc+h0dOh1deh2duh3d+lhYel4eOl5eel7e+phYep7e+p8fOp/f+qAgOqBgeqCgutiYuuCguuDg+uEhOuFheuGhuuHh+uLi+xhYexiYuyIiOyJieyNjeyOjuyQkO2Oju2Pj+2QkO2Rke2Sku2Tk+2UlO2Vle2Wlu6UlO6Vle6Wlu6Xl+6YmO6amu6bm+6cnO6dne+dne+enu+fn++goPChofCjo/CkpPClpfCmpvCoqPCpqfGoqPGpqfGqqvGrq/KurvKxsfKzs/OysvOzs/O0tPO3t/O4uPO7u/RlZfS9vfS+vvS/v/XBwfXCwvXExPXFxfbFxfbGxvbHx/bIyPbJyfbKyvfNzffOzvfPz/fQ0PfR0ffS0vfT0/jQ0PjR0fjS0vjU1PjV1fjW1vjZ2fjd3fna2vnc3Pnd3fne3vnf3/ng4Pre3vrf3/rg4Prh4frj4/vh4fvi4vvk5Pvl5fvm5vvn5/vr6/zp6fzq6vzr6/zs7Pzt7fzu7vzv7/zw8Pzx8f3w8P3x8f3y8v3z8/319f329v729v739/74+P75+f76+v77+/78/P79/f7+/v/8/P/9/f/+/v///2xCrXUAAAAsdFJOUwABAgIdHh4fHyA4OTo6OzyXl5iYmJmcnZ2enp+fn7m6u7za2tv4+vr6+/v7jBEDqAAAAAlwSFlzAAAXEQAAFxEByibzPwAABVJJREFUaEPtmvlfFkUYwNfKLssOu+8D6PJ9X2CvN3l31hcLkqODCIuErDDJoohKoktBOqRQseywlA4LD5BMEDqsSMtKqCzMNIjAoxcyhf+gfV8ePrzMzO7OsiyffuD7EzvzPPNld9+ZnZ0dTmPchFMjIhPUESchMuK0k8cFDRx3zNlRhYlQPsIkPhR13vig49iLquZAmQPcW3XJ8ZrkrKo0KHCEtKpzOe7EKAfPI8icq07iTp8HB44x70zuMofu+SCJEVwk/OkgkZwD/QMngYM/HOV/KUGSyyUhOGDFigQpMi/dvWTJPRIvK1ZEzBIkCzLKrqhr7etrrVuWHTqEKlMYJT4Pn5KztKHjSF+IIx0NS3NSeI8Pqk1gkCBFcCXlvVq/v18wwP7Ny/OSXALLdTOTKLIk+gtWNXZB00Po+mRVgV+UZAWC9TCUIJFXUvPf2doJjVLo3PpefqrCi4bnYyCRXVJmUWVLNzSnS3dLZVGm5JIhjQJdghSvED2jZPV2aMeU7asXZkbzXp0bRJP4RMmb8WL19/9AC0wcaq5elOGVRR/FQ0oEzw1ZpR/tMr1KJN27NpZmTfcI0NAghATllNe0Q9YwaK8pn02cCy5B0hcQPmy+JIYCUvITxA6bnxkkP0DssNkxJrHCmMQSYxJL2Jf0dLW1dfXAAR27ks7aspz09Jyy2r+ggIZNyZZ8QZC9XlkQHv4ciijYk6xJdkM6cievgUISW5JN08KeeWL8x1BMYEeyexYPMSH4u36DChw7krf4IbmIXwEVODYk7Q94IATwzG2DKgwbkqZUbPYmX/8VVGHYkNThM1Ek6tx6G5KNsbgkthaqMGxItsRjLyM+fyNUYdiQNM+UIASQ7twBVRg2JH/Pd0MI4H7mIFRh2JD0bVC9EBPCi2qgAseOJFDiCUtGnuIAVODYkfT9fn8MBGnE5O6GYgIWyTcQS/JL0UA6kp/YCYUk3zJImiCWwoFHYGjx5B+AIgpNDJLNEEtjoas/ylUCBTQaGCRrIZZG8YBkARTQWM8g0RvBgzBJVppKVOlJWNqgwSLpXYANDTTJjD8hmgKLZF+2ucQ3rQGiKbBImpKJZR1CgqRlEE2BRfIGcUtIiSrM1n/DZpAcnDtkvhGClFyL1kE8yfzJvhCTn4UCkk3xQ8bREKREdT9KXXcK8oKYFEJ8HgoIAsWx0EwYFAmSN0AGQdeevSH26P4bn/kpi18UiSrmdkCKZQKPkysrdAkS3oYcy6z10lbxaBJVTvkUkiyyM4voiEGoEpW/by+kWSLwFD5v6ocuQdElOrMEI/5dKdGXPOkSrd8vPwSp7Kzz66xD6khUH6rshVxW6lNFSMbRk6iy+q41S+NttF9vCF2JKqmVVq5Yw826DgOJKk15TW9qRVJ9qzAV8kgMJGqc9JzRq3QYPZXx+udhLFEV/kH9WVgYf7ysxEEKFUOJ9g5yx3poyIBtebzxJwFjifYIUxebdP7ABxn0fj6ImUT18bn10ByVlqfjqONVOKYS7d3QX9EKLRLse/92k0sVxFyi9Ut+1ofUH3NvY4Gk18vDYZFoD5gpjzWS60/fvTRdMD8NDSaJ9mMW/GXboG3gxxU38iP34awfxX3T4rBvNq1vZrN+m7Mg0YaZ6Fsqmg8HDb2/vj5TNOriGBYk2kNGSi1v6jn89SvpkvGXMgwrEk3ji76udFGyx2tFYVWiocS4me/FAJYlw2F0JKOyfWFUNmJcPhpbSiaNxuaYCVc4vc3nmokcd47TG5Yu4DjuuIud3Xp16QnBDV7jz7+y0KGTSSu8+sLg9i6NoyZOcmo73BmnHM1x3H++9RPWCRYvBQAAAABJRU5ErkJggg==;labelPosition=right;align=left;fontStyle=1;fontSize=13;" parent="1" vertex="1">
          <mxGeometry x="1245" y="420" width="40" height="40" as="geometry" />
        </mxCell>
        <mxCell id="d-gHiXN0EIWmtfIMJueE-104" value="&lt;b style=&quot;font-size: 17px;&quot;&gt;&lt;font style=&quot;font-size: 17px;&quot;&gt;L3&lt;/font&gt;&lt;/b&gt;" style="sketch=0;points=[[0.015,0.015,0],[0.985,0.015,0],[0.985,0.985,0],[0.015,0.985,0],[0.25,0,0],[0.5,0,0],[0.75,0,0],[1,0.25,0],[1,0.5,0],[1,0.75,0],[0.75,1,0],[0.5,1,0],[0.25,1,0],[0,0.75,0],[0,0.5,0],[0,0.25,0]];verticalLabelPosition=bottom;html=1;verticalAlign=top;aspect=fixed;align=center;pointerEvents=1;shape=mxgraph.cisco19.rect;prIcon=l3_switch;fillColor=#FAFAFA;strokeColor=#005073;fontSize=17;" parent="1" vertex="1">
          <mxGeometry x="1265" y="475.5" width="40" height="40" as="geometry" />
        </mxCell>
        <mxCell id="d-gHiXN0EIWmtfIMJueE-105" value="방화벽" style="shape=image;verticalLabelPosition=bottom;labelBackgroundColor=default;verticalAlign=top;aspect=fixed;imageAspect=0;image=data:image/png,iVBORw0KGgoAAAANSUhEUgAAAEIAAABCCAMAAADUivDaAAAAAXNSR0IArs4c6QAAAARnQU1BAACxjwv8YQUAAAB1UExURQAAAONcXOVcXONdXfZmZuFbW+VfX+VeXuNfX+VfX+VeXuVfX+hfX+hhYfRlZfdlZeVgYOVfX+RfX+RfX+ReXudgYOhhYfVlZfdlZeNfX+ReXuVfX+hgYOlhYfVmZvdmZvhnZ/loaPpnZ/toaPxoaP9tbf9ubt91DwQAAAAbdFJOUwAkJzc3OztsdnaApqampqaoqbKztbW1tbXCw3wUUAsAAAAJcEhZcwAAFxEAABcRAcom8z8AAADsSURBVFhH7dZJDsIwDAXQDwUKDVMhlKETdLr/EWFhkSjBUoW6qMBv9xXZK8cyhPgX4U4x1psJsNxSUmoXUonr2JWMql4AN/PcHanEpcqUkeUBoAtKaVoqKnFJC0NaGIe2YNwfc+BqntsDlbhWF804JVMgOlPS+rKiknGazIKeZq+//1Hc5D01MZW49lXWU7WnEhc/F64vRsslLYyRtxhgtAYY8AG+2ThYi+8cAdPkRMnDLj5r/bZXYP64U/Kw69eai0IDQZ5R8vQZLWkhLd6s07W7AYu6ouRhT1frgN4uX39/s6bkYQ9oIX4M8AQgIqKJTRPNOQAAAABJRU5ErkJggg==;fontStyle=1;fontSize=16;" parent="1" vertex="1">
          <mxGeometry x="1257.5" y="540" width="55" height="55" as="geometry" />
        </mxCell>
        <mxCell id="d-gHiXN0EIWmtfIMJueE-106" value="&lt;b style=&quot;font-size: 17px;&quot;&gt;&lt;font style=&quot;font-size: 17px;&quot;&gt;L3&lt;/font&gt;&lt;/b&gt;" style="sketch=0;points=[[0.015,0.015,0],[0.985,0.015,0],[0.985,0.985,0],[0.015,0.985,0],[0.25,0,0],[0.5,0,0],[0.75,0,0],[1,0.25,0],[1,0.5,0],[1,0.75,0],[0.75,1,0],[0.5,1,0],[0.25,1,0],[0,0.75,0],[0,0.5,0],[0,0.25,0]];verticalLabelPosition=bottom;html=1;verticalAlign=top;aspect=fixed;align=center;pointerEvents=1;shape=mxgraph.cisco19.rect;prIcon=l3_switch;fillColor=#FAFAFA;strokeColor=#005073;fontSize=17;" parent="1" vertex="1">
          <mxGeometry x="1265" y="630" width="40" height="40" as="geometry" />
        </mxCell>
      </root>
    </mxGraphModel>
  </diagram>
</mxfile>
